G04 #@! TF.GenerationSoftware,KiCad,Pcbnew,(5.0.0)*
G04 #@! TF.CreationDate,2018-07-30T10:59:50+01:00*
G04 #@! TF.ProjectId,Mixer,4D697865722E6B696361645F70636200,rev?*
G04 #@! TF.SameCoordinates,Original*
G04 #@! TF.FileFunction,Legend,Bot*
G04 #@! TF.FilePolarity,Positive*
%FSLAX46Y46*%
G04 Gerber Fmt 4.6, Leading zero omitted, Abs format (unit mm)*
G04 Created by KiCad (PCBNEW (5.0.0)) date 07/30/18 10:59:50*
%MOMM*%
%LPD*%
G01*
G04 APERTURE LIST*
%ADD10C,0.200000*%
%ADD11C,0.300000*%
%ADD12C,0.120000*%
%ADD13C,0.150000*%
G04 APERTURE END LIST*
D10*
X146859238Y-64206380D02*
X147335428Y-64206380D01*
X147335428Y-63206380D01*
X146525904Y-64206380D02*
X146525904Y-63539714D01*
X146525904Y-63206380D02*
X146573523Y-63254000D01*
X146525904Y-63301619D01*
X146478285Y-63254000D01*
X146525904Y-63206380D01*
X146525904Y-63301619D01*
X146049714Y-63539714D02*
X146049714Y-64206380D01*
X146049714Y-63634952D02*
X146002095Y-63587333D01*
X145906857Y-63539714D01*
X145764000Y-63539714D01*
X145668761Y-63587333D01*
X145621142Y-63682571D01*
X145621142Y-64206380D01*
X144764000Y-64158761D02*
X144859238Y-64206380D01*
X145049714Y-64206380D01*
X145144952Y-64158761D01*
X145192571Y-64063523D01*
X145192571Y-63682571D01*
X145144952Y-63587333D01*
X145049714Y-63539714D01*
X144859238Y-63539714D01*
X144764000Y-63587333D01*
X144716380Y-63682571D01*
X144716380Y-63777809D01*
X145192571Y-63873047D01*
X143049714Y-64206380D02*
X143525904Y-64206380D01*
X143525904Y-63206380D01*
X142335428Y-64158761D02*
X142430666Y-64206380D01*
X142621142Y-64206380D01*
X142716380Y-64158761D01*
X142764000Y-64063523D01*
X142764000Y-63682571D01*
X142716380Y-63587333D01*
X142621142Y-63539714D01*
X142430666Y-63539714D01*
X142335428Y-63587333D01*
X142287809Y-63682571D01*
X142287809Y-63777809D01*
X142764000Y-63873047D01*
X141954476Y-63539714D02*
X141716380Y-64206380D01*
X141478285Y-63539714D01*
X140716380Y-64158761D02*
X140811619Y-64206380D01*
X141002095Y-64206380D01*
X141097333Y-64158761D01*
X141144952Y-64063523D01*
X141144952Y-63682571D01*
X141097333Y-63587333D01*
X141002095Y-63539714D01*
X140811619Y-63539714D01*
X140716380Y-63587333D01*
X140668761Y-63682571D01*
X140668761Y-63777809D01*
X141144952Y-63873047D01*
X140097333Y-64206380D02*
X140192571Y-64158761D01*
X140240190Y-64063523D01*
X140240190Y-63206380D01*
X146787809Y-53942571D02*
X146454476Y-53942571D01*
X146311619Y-54466380D02*
X146787809Y-54466380D01*
X146787809Y-53466380D01*
X146311619Y-53466380D01*
X145454476Y-53799714D02*
X145454476Y-54466380D01*
X145883047Y-53799714D02*
X145883047Y-54323523D01*
X145835428Y-54418761D01*
X145740190Y-54466380D01*
X145597333Y-54466380D01*
X145502095Y-54418761D01*
X145454476Y-54371142D01*
X144978285Y-54466380D02*
X144978285Y-53799714D01*
X144978285Y-53990190D02*
X144930666Y-53894952D01*
X144883047Y-53847333D01*
X144787809Y-53799714D01*
X144692571Y-53799714D01*
X144216380Y-54466380D02*
X144311619Y-54418761D01*
X144359238Y-54371142D01*
X144406857Y-54275904D01*
X144406857Y-53990190D01*
X144359238Y-53894952D01*
X144311619Y-53847333D01*
X144216380Y-53799714D01*
X144073523Y-53799714D01*
X143978285Y-53847333D01*
X143930666Y-53894952D01*
X143883047Y-53990190D01*
X143883047Y-54275904D01*
X143930666Y-54371142D01*
X143978285Y-54418761D01*
X144073523Y-54466380D01*
X144216380Y-54466380D01*
X143454476Y-54466380D02*
X143454476Y-53799714D01*
X143454476Y-53990190D02*
X143406857Y-53894952D01*
X143359238Y-53847333D01*
X143263999Y-53799714D01*
X143168761Y-53799714D01*
X142406857Y-54466380D02*
X142406857Y-53942571D01*
X142454476Y-53847333D01*
X142549714Y-53799714D01*
X142740190Y-53799714D01*
X142835428Y-53847333D01*
X142406857Y-54418761D02*
X142502095Y-54466380D01*
X142740190Y-54466380D01*
X142835428Y-54418761D01*
X142883047Y-54323523D01*
X142883047Y-54228285D01*
X142835428Y-54133047D01*
X142740190Y-54085428D01*
X142502095Y-54085428D01*
X142406857Y-54037809D01*
X141502095Y-54418761D02*
X141597333Y-54466380D01*
X141787809Y-54466380D01*
X141883047Y-54418761D01*
X141930666Y-54371142D01*
X141978285Y-54275904D01*
X141978285Y-53990190D01*
X141930666Y-53894952D01*
X141883047Y-53847333D01*
X141787809Y-53799714D01*
X141597333Y-53799714D01*
X141502095Y-53847333D01*
X141073523Y-54466380D02*
X141073523Y-53466380D01*
X140978285Y-54085428D02*
X140692571Y-54466380D01*
X140692571Y-53799714D02*
X141073523Y-54180666D01*
X144954476Y-56166380D02*
X145430666Y-56166380D01*
X145430666Y-55166380D01*
X144240190Y-56118761D02*
X144335428Y-56166380D01*
X144525904Y-56166380D01*
X144621142Y-56118761D01*
X144668761Y-56023523D01*
X144668761Y-55642571D01*
X144621142Y-55547333D01*
X144525904Y-55499714D01*
X144335428Y-55499714D01*
X144240190Y-55547333D01*
X144192571Y-55642571D01*
X144192571Y-55737809D01*
X144668761Y-55833047D01*
X143859238Y-55499714D02*
X143621142Y-56166380D01*
X143383047Y-55499714D01*
X142621142Y-56118761D02*
X142716380Y-56166380D01*
X142906857Y-56166380D01*
X143002095Y-56118761D01*
X143049714Y-56023523D01*
X143049714Y-55642571D01*
X143002095Y-55547333D01*
X142906857Y-55499714D01*
X142716380Y-55499714D01*
X142621142Y-55547333D01*
X142573523Y-55642571D01*
X142573523Y-55737809D01*
X143049714Y-55833047D01*
X142002095Y-56166380D02*
X142097333Y-56118761D01*
X142144952Y-56023523D01*
X142144952Y-55166380D01*
X146859238Y-43544380D02*
X146859238Y-42544380D01*
X146859238Y-43020571D02*
X146287809Y-43020571D01*
X146287809Y-43544380D02*
X146287809Y-42544380D01*
X145097333Y-42496761D02*
X145954476Y-43782476D01*
X144764000Y-43544380D02*
X144764000Y-42544380D01*
X144383047Y-42544380D01*
X144287809Y-42592000D01*
X144240190Y-42639619D01*
X144192571Y-42734857D01*
X144192571Y-42877714D01*
X144240190Y-42972952D01*
X144287809Y-43020571D01*
X144383047Y-43068190D01*
X144764000Y-43068190D01*
X143764000Y-43544380D02*
X143764000Y-42544380D01*
X143335428Y-43544380D02*
X143335428Y-43020571D01*
X143383047Y-42925333D01*
X143478285Y-42877714D01*
X143621142Y-42877714D01*
X143716380Y-42925333D01*
X143764000Y-42972952D01*
X142716380Y-43544380D02*
X142811619Y-43496761D01*
X142859238Y-43449142D01*
X142906857Y-43353904D01*
X142906857Y-43068190D01*
X142859238Y-42972952D01*
X142811619Y-42925333D01*
X142716380Y-42877714D01*
X142573523Y-42877714D01*
X142478285Y-42925333D01*
X142430666Y-42972952D01*
X142383047Y-43068190D01*
X142383047Y-43353904D01*
X142430666Y-43449142D01*
X142478285Y-43496761D01*
X142573523Y-43544380D01*
X142716380Y-43544380D01*
X141954476Y-42877714D02*
X141954476Y-43544380D01*
X141954476Y-42972952D02*
X141906857Y-42925333D01*
X141811619Y-42877714D01*
X141668761Y-42877714D01*
X141573523Y-42925333D01*
X141525904Y-43020571D01*
X141525904Y-43544380D01*
X140668761Y-43496761D02*
X140764000Y-43544380D01*
X140954476Y-43544380D01*
X141049714Y-43496761D01*
X141097333Y-43401523D01*
X141097333Y-43020571D01*
X141049714Y-42925333D01*
X140954476Y-42877714D01*
X140764000Y-42877714D01*
X140668761Y-42925333D01*
X140621142Y-43020571D01*
X140621142Y-43115809D01*
X141097333Y-43211047D01*
X146359238Y-44244380D02*
X146025904Y-45244380D01*
X145692571Y-44244380D01*
X145216380Y-45244380D02*
X145311619Y-45196761D01*
X145359238Y-45149142D01*
X145406857Y-45053904D01*
X145406857Y-44768190D01*
X145359238Y-44672952D01*
X145311619Y-44625333D01*
X145216380Y-44577714D01*
X145073523Y-44577714D01*
X144978285Y-44625333D01*
X144930666Y-44672952D01*
X144883047Y-44768190D01*
X144883047Y-45053904D01*
X144930666Y-45149142D01*
X144978285Y-45196761D01*
X145073523Y-45244380D01*
X145216380Y-45244380D01*
X144311619Y-45244380D02*
X144406857Y-45196761D01*
X144454476Y-45101523D01*
X144454476Y-44244380D01*
X143502095Y-44577714D02*
X143502095Y-45244380D01*
X143930666Y-44577714D02*
X143930666Y-45101523D01*
X143883047Y-45196761D01*
X143787809Y-45244380D01*
X143644952Y-45244380D01*
X143549714Y-45196761D01*
X143502095Y-45149142D01*
X143025904Y-45244380D02*
X143025904Y-44577714D01*
X143025904Y-44672952D02*
X142978285Y-44625333D01*
X142883047Y-44577714D01*
X142740190Y-44577714D01*
X142644952Y-44625333D01*
X142597333Y-44720571D01*
X142597333Y-45244380D01*
X142597333Y-44720571D02*
X142549714Y-44625333D01*
X142454476Y-44577714D01*
X142311619Y-44577714D01*
X142216380Y-44625333D01*
X142168761Y-44720571D01*
X142168761Y-45244380D01*
X141311619Y-45196761D02*
X141406857Y-45244380D01*
X141597333Y-45244380D01*
X141692571Y-45196761D01*
X141740190Y-45101523D01*
X141740190Y-44720571D01*
X141692571Y-44625333D01*
X141597333Y-44577714D01*
X141406857Y-44577714D01*
X141311619Y-44625333D01*
X141264000Y-44720571D01*
X141264000Y-44815809D01*
X141740190Y-44911047D01*
X147264000Y-34488380D02*
X147264000Y-33488380D01*
X147264000Y-33964571D02*
X146692571Y-33964571D01*
X146692571Y-34488380D02*
X146692571Y-33488380D01*
X145502095Y-33440761D02*
X146359238Y-34726476D01*
X145168761Y-34488380D02*
X145168761Y-33488380D01*
X144787809Y-33488380D01*
X144692571Y-33536000D01*
X144644952Y-33583619D01*
X144597333Y-33678857D01*
X144597333Y-33821714D01*
X144644952Y-33916952D01*
X144692571Y-33964571D01*
X144787809Y-34012190D01*
X145168761Y-34012190D01*
X144168761Y-34488380D02*
X144168761Y-33488380D01*
X143740190Y-34488380D02*
X143740190Y-33964571D01*
X143787809Y-33869333D01*
X143883047Y-33821714D01*
X144025904Y-33821714D01*
X144121142Y-33869333D01*
X144168761Y-33916952D01*
X143121142Y-34488380D02*
X143216380Y-34440761D01*
X143264000Y-34393142D01*
X143311619Y-34297904D01*
X143311619Y-34012190D01*
X143264000Y-33916952D01*
X143216380Y-33869333D01*
X143121142Y-33821714D01*
X142978285Y-33821714D01*
X142883047Y-33869333D01*
X142835428Y-33916952D01*
X142787809Y-34012190D01*
X142787809Y-34297904D01*
X142835428Y-34393142D01*
X142883047Y-34440761D01*
X142978285Y-34488380D01*
X143121142Y-34488380D01*
X142359238Y-33821714D02*
X142359238Y-34488380D01*
X142359238Y-33916952D02*
X142311619Y-33869333D01*
X142216380Y-33821714D01*
X142073523Y-33821714D01*
X141978285Y-33869333D01*
X141930666Y-33964571D01*
X141930666Y-34488380D01*
X141073523Y-34440761D02*
X141168761Y-34488380D01*
X141359238Y-34488380D01*
X141454476Y-34440761D01*
X141502095Y-34345523D01*
X141502095Y-33964571D01*
X141454476Y-33869333D01*
X141359238Y-33821714D01*
X141168761Y-33821714D01*
X141073523Y-33869333D01*
X141025904Y-33964571D01*
X141025904Y-34059809D01*
X141502095Y-34155047D01*
X140644952Y-34440761D02*
X140549714Y-34488380D01*
X140359238Y-34488380D01*
X140264000Y-34440761D01*
X140216380Y-34345523D01*
X140216380Y-34297904D01*
X140264000Y-34202666D01*
X140359238Y-34155047D01*
X140502095Y-34155047D01*
X140597333Y-34107428D01*
X140644952Y-34012190D01*
X140644952Y-33964571D01*
X140597333Y-33869333D01*
X140502095Y-33821714D01*
X140359238Y-33821714D01*
X140264000Y-33869333D01*
D11*
X63201857Y-65419857D02*
X62701857Y-65419857D01*
X62487571Y-66205571D02*
X63201857Y-66205571D01*
X63201857Y-64705571D01*
X62487571Y-64705571D01*
X61201857Y-65205571D02*
X61201857Y-66205571D01*
X61844714Y-65205571D02*
X61844714Y-65991285D01*
X61773285Y-66134142D01*
X61630428Y-66205571D01*
X61416142Y-66205571D01*
X61273285Y-66134142D01*
X61201857Y-66062714D01*
X60487571Y-66205571D02*
X60487571Y-65205571D01*
X60487571Y-65491285D02*
X60416142Y-65348428D01*
X60344714Y-65277000D01*
X60201857Y-65205571D01*
X60059000Y-65205571D01*
X59344714Y-66205571D02*
X59487571Y-66134142D01*
X59559000Y-66062714D01*
X59630428Y-65919857D01*
X59630428Y-65491285D01*
X59559000Y-65348428D01*
X59487571Y-65277000D01*
X59344714Y-65205571D01*
X59130428Y-65205571D01*
X58987571Y-65277000D01*
X58916142Y-65348428D01*
X58844714Y-65491285D01*
X58844714Y-65919857D01*
X58916142Y-66062714D01*
X58987571Y-66134142D01*
X59130428Y-66205571D01*
X59344714Y-66205571D01*
X58201857Y-66205571D02*
X58201857Y-65205571D01*
X58201857Y-65491285D02*
X58130428Y-65348428D01*
X58059000Y-65277000D01*
X57916142Y-65205571D01*
X57773285Y-65205571D01*
X56630428Y-66205571D02*
X56630428Y-65419857D01*
X56701857Y-65277000D01*
X56844714Y-65205571D01*
X57130428Y-65205571D01*
X57273285Y-65277000D01*
X56630428Y-66134142D02*
X56773285Y-66205571D01*
X57130428Y-66205571D01*
X57273285Y-66134142D01*
X57344714Y-65991285D01*
X57344714Y-65848428D01*
X57273285Y-65705571D01*
X57130428Y-65634142D01*
X56773285Y-65634142D01*
X56630428Y-65562714D01*
X55273285Y-66134142D02*
X55416142Y-66205571D01*
X55701857Y-66205571D01*
X55844714Y-66134142D01*
X55916142Y-66062714D01*
X55987571Y-65919857D01*
X55987571Y-65491285D01*
X55916142Y-65348428D01*
X55844714Y-65277000D01*
X55701857Y-65205571D01*
X55416142Y-65205571D01*
X55273285Y-65277000D01*
X54630428Y-66205571D02*
X54630428Y-64705571D01*
X54487571Y-65634142D02*
X54059000Y-66205571D01*
X54059000Y-65205571D02*
X54630428Y-65777000D01*
X52273285Y-66205571D02*
X52273285Y-64705571D01*
X51773285Y-65777000D01*
X51273285Y-64705571D01*
X51273285Y-66205571D01*
X50559000Y-66205571D02*
X50559000Y-65205571D01*
X50559000Y-64705571D02*
X50630428Y-64777000D01*
X50559000Y-64848428D01*
X50487571Y-64777000D01*
X50559000Y-64705571D01*
X50559000Y-64848428D01*
X49987571Y-66205571D02*
X49201857Y-65205571D01*
X49987571Y-65205571D02*
X49201857Y-66205571D01*
X48059000Y-66134142D02*
X48201857Y-66205571D01*
X48487571Y-66205571D01*
X48630428Y-66134142D01*
X48701857Y-65991285D01*
X48701857Y-65419857D01*
X48630428Y-65277000D01*
X48487571Y-65205571D01*
X48201857Y-65205571D01*
X48059000Y-65277000D01*
X47987571Y-65419857D01*
X47987571Y-65562714D01*
X48701857Y-65705571D01*
X47344714Y-66205571D02*
X47344714Y-65205571D01*
X47344714Y-65491285D02*
X47273285Y-65348428D01*
X47201857Y-65277000D01*
X47059000Y-65205571D01*
X46916142Y-65205571D01*
X62773285Y-67255571D02*
X62773285Y-68327000D01*
X62844714Y-68541285D01*
X62987571Y-68684142D01*
X63201857Y-68755571D01*
X63344714Y-68755571D01*
X62059000Y-67969857D02*
X61559000Y-67969857D01*
X61344714Y-68755571D02*
X62059000Y-68755571D01*
X62059000Y-67255571D01*
X61344714Y-67255571D01*
X98662571Y-37532571D02*
X97734000Y-37532571D01*
X98234000Y-38104000D01*
X98019714Y-38104000D01*
X97876857Y-38175428D01*
X97805428Y-38246857D01*
X97734000Y-38389714D01*
X97734000Y-38746857D01*
X97805428Y-38889714D01*
X97876857Y-38961142D01*
X98019714Y-39032571D01*
X98448285Y-39032571D01*
X98591142Y-38961142D01*
X98662571Y-38889714D01*
X97091142Y-38889714D02*
X97019714Y-38961142D01*
X97091142Y-39032571D01*
X97162571Y-38961142D01*
X97091142Y-38889714D01*
X97091142Y-39032571D01*
X95234000Y-38461142D02*
X94091142Y-38461142D01*
X94662571Y-39032571D02*
X94662571Y-37889714D01*
X92591142Y-39032571D02*
X93448285Y-39032571D01*
X93019714Y-39032571D02*
X93019714Y-37532571D01*
X93162571Y-37746857D01*
X93305428Y-37889714D01*
X93448285Y-37961142D01*
X92019714Y-37675428D02*
X91948285Y-37604000D01*
X91805428Y-37532571D01*
X91448285Y-37532571D01*
X91305428Y-37604000D01*
X91234000Y-37675428D01*
X91162571Y-37818285D01*
X91162571Y-37961142D01*
X91234000Y-38175428D01*
X92091142Y-39032571D01*
X91162571Y-39032571D01*
X90734000Y-37532571D02*
X90234000Y-39032571D01*
X89734000Y-37532571D01*
X98718142Y-34627428D02*
X98646714Y-34556000D01*
X98503857Y-34484571D01*
X98146714Y-34484571D01*
X98003857Y-34556000D01*
X97932428Y-34627428D01*
X97861000Y-34770285D01*
X97861000Y-34913142D01*
X97932428Y-35127428D01*
X98789571Y-35984571D01*
X97861000Y-35984571D01*
X97218142Y-35841714D02*
X97146714Y-35913142D01*
X97218142Y-35984571D01*
X97289571Y-35913142D01*
X97218142Y-35841714D01*
X97218142Y-35984571D01*
X95361000Y-35413142D02*
X94218142Y-35413142D01*
X92718142Y-35984571D02*
X93575285Y-35984571D01*
X93146714Y-35984571D02*
X93146714Y-34484571D01*
X93289571Y-34698857D01*
X93432428Y-34841714D01*
X93575285Y-34913142D01*
X92146714Y-34627428D02*
X92075285Y-34556000D01*
X91932428Y-34484571D01*
X91575285Y-34484571D01*
X91432428Y-34556000D01*
X91361000Y-34627428D01*
X91289571Y-34770285D01*
X91289571Y-34913142D01*
X91361000Y-35127428D01*
X92218142Y-35984571D01*
X91289571Y-35984571D01*
X90861000Y-34484571D02*
X90361000Y-35984571D01*
X89861000Y-34484571D01*
X97781714Y-33063571D02*
X98638857Y-33063571D01*
X98210285Y-33063571D02*
X98210285Y-31563571D01*
X98353142Y-31777857D01*
X98496000Y-31920714D01*
X98638857Y-31992142D01*
X97138857Y-32920714D02*
X97067428Y-32992142D01*
X97138857Y-33063571D01*
X97210285Y-32992142D01*
X97138857Y-32920714D01*
X97138857Y-33063571D01*
X94496000Y-31635000D02*
X94638857Y-31563571D01*
X94853142Y-31563571D01*
X95067428Y-31635000D01*
X95210285Y-31777857D01*
X95281714Y-31920714D01*
X95353142Y-32206428D01*
X95353142Y-32420714D01*
X95281714Y-32706428D01*
X95210285Y-32849285D01*
X95067428Y-32992142D01*
X94853142Y-33063571D01*
X94710285Y-33063571D01*
X94496000Y-32992142D01*
X94424571Y-32920714D01*
X94424571Y-32420714D01*
X94710285Y-32420714D01*
X93781714Y-33063571D02*
X93781714Y-31563571D01*
X92924571Y-33063571D01*
X92924571Y-31563571D01*
X92210285Y-33063571D02*
X92210285Y-31563571D01*
X91853142Y-31563571D01*
X91638857Y-31635000D01*
X91496000Y-31777857D01*
X91424571Y-31920714D01*
X91353142Y-32206428D01*
X91353142Y-32420714D01*
X91424571Y-32706428D01*
X91496000Y-32849285D01*
X91638857Y-32992142D01*
X91853142Y-33063571D01*
X92210285Y-33063571D01*
D12*
G04 #@! TO.C,R13*
X130354000Y-34037748D02*
X130354000Y-34560252D01*
X131774000Y-34037748D02*
X131774000Y-34560252D01*
G04 #@! TO.C,C16*
X101548000Y-34273748D02*
X101548000Y-34796252D01*
X100128000Y-34273748D02*
X100128000Y-34796252D01*
G04 #@! TO.C,C15*
X122122000Y-39377252D02*
X122122000Y-38854748D01*
X120702000Y-39377252D02*
X120702000Y-38854748D01*
G04 #@! TO.C,C14*
X103580000Y-34273748D02*
X103580000Y-34796252D01*
X102160000Y-34273748D02*
X102160000Y-34796252D01*
G04 #@! TO.C,C13*
X120090000Y-39386252D02*
X120090000Y-38863748D01*
X118670000Y-39386252D02*
X118670000Y-38863748D01*
G04 #@! TO.C,J12*
X107776000Y-30460000D02*
X113746000Y-30460000D01*
X113746000Y-30460000D02*
X113746000Y-40580000D01*
X113746000Y-40580000D02*
X107776000Y-40580000D01*
X107776000Y-40580000D02*
X107776000Y-30460000D01*
X107786000Y-33770000D02*
X108536000Y-33770000D01*
X108536000Y-33770000D02*
X108536000Y-37270000D01*
X108536000Y-37270000D02*
X107786000Y-37270000D01*
X107786000Y-37270000D02*
X107786000Y-33770000D01*
X107786000Y-30470000D02*
X108536000Y-30470000D01*
X108536000Y-30470000D02*
X108536000Y-32270000D01*
X108536000Y-32270000D02*
X107786000Y-32270000D01*
X107786000Y-32270000D02*
X107786000Y-30470000D01*
X107786000Y-38770000D02*
X108536000Y-38770000D01*
X108536000Y-38770000D02*
X108536000Y-40570000D01*
X108536000Y-40570000D02*
X107786000Y-40570000D01*
X107786000Y-40570000D02*
X107786000Y-38770000D01*
X110036000Y-30470000D02*
X110036000Y-31220000D01*
X110036000Y-31220000D02*
X112986000Y-31220000D01*
X112986000Y-31220000D02*
X112986000Y-35520000D01*
X110036000Y-40570000D02*
X110036000Y-39820000D01*
X110036000Y-39820000D02*
X112986000Y-39820000D01*
X112986000Y-39820000D02*
X112986000Y-35520000D01*
X107486000Y-31420000D02*
X107486000Y-30170000D01*
X107486000Y-30170000D02*
X108736000Y-30170000D01*
G04 #@! TO.C,L1*
X116333748Y-38810000D02*
X116856252Y-38810000D01*
X116333748Y-37390000D02*
X116856252Y-37390000D01*
G04 #@! TO.C,L2*
X105916252Y-36270000D02*
X105393748Y-36270000D01*
X105916252Y-34850000D02*
X105393748Y-34850000D01*
G04 #@! TO.C,L3*
X116061748Y-33730000D02*
X116584252Y-33730000D01*
X116061748Y-32310000D02*
X116584252Y-32310000D01*
G04 #@! TO.C,RV9*
X133430000Y-39096000D02*
X139400000Y-39096000D01*
X139400000Y-39096000D02*
X139400000Y-49216000D01*
X139400000Y-49216000D02*
X133430000Y-49216000D01*
X133430000Y-49216000D02*
X133430000Y-39096000D01*
X133440000Y-42406000D02*
X134190000Y-42406000D01*
X134190000Y-42406000D02*
X134190000Y-45906000D01*
X134190000Y-45906000D02*
X133440000Y-45906000D01*
X133440000Y-45906000D02*
X133440000Y-42406000D01*
X133440000Y-39106000D02*
X134190000Y-39106000D01*
X134190000Y-39106000D02*
X134190000Y-40906000D01*
X134190000Y-40906000D02*
X133440000Y-40906000D01*
X133440000Y-40906000D02*
X133440000Y-39106000D01*
X133440000Y-47406000D02*
X134190000Y-47406000D01*
X134190000Y-47406000D02*
X134190000Y-49206000D01*
X134190000Y-49206000D02*
X133440000Y-49206000D01*
X133440000Y-49206000D02*
X133440000Y-47406000D01*
X135690000Y-39106000D02*
X135690000Y-39856000D01*
X135690000Y-39856000D02*
X138640000Y-39856000D01*
X138640000Y-39856000D02*
X138640000Y-44156000D01*
X135690000Y-49206000D02*
X135690000Y-48456000D01*
X135690000Y-48456000D02*
X138640000Y-48456000D01*
X138640000Y-48456000D02*
X138640000Y-44156000D01*
X133140000Y-40056000D02*
X133140000Y-38806000D01*
X133140000Y-38806000D02*
X134390000Y-38806000D01*
G04 #@! TO.C,C12*
X130354000Y-40369748D02*
X130354000Y-40892252D01*
X131774000Y-40369748D02*
X131774000Y-40892252D01*
G04 #@! TO.C,C11*
X125782000Y-50547748D02*
X125782000Y-51070252D01*
X127202000Y-50547748D02*
X127202000Y-51070252D01*
G04 #@! TO.C,C10*
X116638000Y-50798252D02*
X116638000Y-50275748D01*
X118058000Y-50798252D02*
X118058000Y-50275748D01*
G04 #@! TO.C,C9*
X125967748Y-44398000D02*
X126490252Y-44398000D01*
X125967748Y-42978000D02*
X126490252Y-42978000D01*
G04 #@! TO.C,C8*
X48716000Y-80755748D02*
X48716000Y-81278252D01*
X47296000Y-80755748D02*
X47296000Y-81278252D01*
G04 #@! TO.C,C7*
X59996000Y-80773748D02*
X59996000Y-81296252D01*
X61416000Y-80773748D02*
X61416000Y-81296252D01*
G04 #@! TO.C,C6*
X73862000Y-80755748D02*
X73862000Y-81278252D01*
X72442000Y-80755748D02*
X72442000Y-81278252D01*
G04 #@! TO.C,C5*
X84888000Y-80764748D02*
X84888000Y-81287252D01*
X86308000Y-80764748D02*
X86308000Y-81287252D01*
G04 #@! TO.C,C4*
X98754000Y-80764748D02*
X98754000Y-81287252D01*
X97334000Y-80764748D02*
X97334000Y-81287252D01*
G04 #@! TO.C,C3*
X110288000Y-80755748D02*
X110288000Y-81278252D01*
X111708000Y-80755748D02*
X111708000Y-81278252D01*
G04 #@! TO.C,C2*
X124408000Y-80773748D02*
X124408000Y-81296252D01*
X122988000Y-80773748D02*
X122988000Y-81296252D01*
G04 #@! TO.C,C1*
X135688000Y-80755748D02*
X135688000Y-81278252D01*
X137108000Y-80755748D02*
X137108000Y-81278252D01*
G04 #@! TO.C,J3*
X120706000Y-81578000D02*
X120706000Y-82828000D01*
X119456000Y-81578000D02*
X120706000Y-81578000D01*
X113556000Y-87078000D02*
X116606000Y-87078000D01*
X113556000Y-84128000D02*
X113556000Y-87078000D01*
X112806000Y-84128000D02*
X113556000Y-84128000D01*
X119656000Y-87078000D02*
X116606000Y-87078000D01*
X119656000Y-84128000D02*
X119656000Y-87078000D01*
X120406000Y-84128000D02*
X119656000Y-84128000D01*
X112806000Y-81878000D02*
X114606000Y-81878000D01*
X112806000Y-82628000D02*
X112806000Y-81878000D01*
X114606000Y-82628000D02*
X112806000Y-82628000D01*
X114606000Y-81878000D02*
X114606000Y-82628000D01*
X118606000Y-81878000D02*
X120406000Y-81878000D01*
X118606000Y-82628000D02*
X118606000Y-81878000D01*
X120406000Y-82628000D02*
X118606000Y-82628000D01*
X120406000Y-81878000D02*
X120406000Y-82628000D01*
X116106000Y-81878000D02*
X117106000Y-81878000D01*
X116106000Y-82628000D02*
X116106000Y-81878000D01*
X117106000Y-82628000D02*
X116106000Y-82628000D01*
X117106000Y-81878000D02*
X117106000Y-82628000D01*
X112796000Y-81868000D02*
X120416000Y-81868000D01*
X112796000Y-87838000D02*
X112796000Y-81868000D01*
X120416000Y-87838000D02*
X112796000Y-87838000D01*
X120416000Y-81868000D02*
X120416000Y-87838000D01*
G04 #@! TO.C,J8*
X57460000Y-81578000D02*
X57460000Y-82828000D01*
X56210000Y-81578000D02*
X57460000Y-81578000D01*
X50310000Y-87078000D02*
X53360000Y-87078000D01*
X50310000Y-84128000D02*
X50310000Y-87078000D01*
X49560000Y-84128000D02*
X50310000Y-84128000D01*
X56410000Y-87078000D02*
X53360000Y-87078000D01*
X56410000Y-84128000D02*
X56410000Y-87078000D01*
X57160000Y-84128000D02*
X56410000Y-84128000D01*
X49560000Y-81878000D02*
X51360000Y-81878000D01*
X49560000Y-82628000D02*
X49560000Y-81878000D01*
X51360000Y-82628000D02*
X49560000Y-82628000D01*
X51360000Y-81878000D02*
X51360000Y-82628000D01*
X55360000Y-81878000D02*
X57160000Y-81878000D01*
X55360000Y-82628000D02*
X55360000Y-81878000D01*
X57160000Y-82628000D02*
X55360000Y-82628000D01*
X57160000Y-81878000D02*
X57160000Y-82628000D01*
X52860000Y-81878000D02*
X53860000Y-81878000D01*
X52860000Y-82628000D02*
X52860000Y-81878000D01*
X53860000Y-82628000D02*
X52860000Y-82628000D01*
X53860000Y-81878000D02*
X53860000Y-82628000D01*
X49550000Y-81868000D02*
X57170000Y-81868000D01*
X49550000Y-87838000D02*
X49550000Y-81868000D01*
X57170000Y-87838000D02*
X49550000Y-87838000D01*
X57170000Y-81868000D02*
X57170000Y-87838000D01*
G04 #@! TO.C,J7*
X69870000Y-81868000D02*
X69870000Y-87838000D01*
X69870000Y-87838000D02*
X62250000Y-87838000D01*
X62250000Y-87838000D02*
X62250000Y-81868000D01*
X62250000Y-81868000D02*
X69870000Y-81868000D01*
X66560000Y-81878000D02*
X66560000Y-82628000D01*
X66560000Y-82628000D02*
X65560000Y-82628000D01*
X65560000Y-82628000D02*
X65560000Y-81878000D01*
X65560000Y-81878000D02*
X66560000Y-81878000D01*
X69860000Y-81878000D02*
X69860000Y-82628000D01*
X69860000Y-82628000D02*
X68060000Y-82628000D01*
X68060000Y-82628000D02*
X68060000Y-81878000D01*
X68060000Y-81878000D02*
X69860000Y-81878000D01*
X64060000Y-81878000D02*
X64060000Y-82628000D01*
X64060000Y-82628000D02*
X62260000Y-82628000D01*
X62260000Y-82628000D02*
X62260000Y-81878000D01*
X62260000Y-81878000D02*
X64060000Y-81878000D01*
X69860000Y-84128000D02*
X69110000Y-84128000D01*
X69110000Y-84128000D02*
X69110000Y-87078000D01*
X69110000Y-87078000D02*
X66060000Y-87078000D01*
X62260000Y-84128000D02*
X63010000Y-84128000D01*
X63010000Y-84128000D02*
X63010000Y-87078000D01*
X63010000Y-87078000D02*
X66060000Y-87078000D01*
X68910000Y-81578000D02*
X70160000Y-81578000D01*
X70160000Y-81578000D02*
X70160000Y-82828000D01*
G04 #@! TO.C,J6*
X82860000Y-81578000D02*
X82860000Y-82828000D01*
X81610000Y-81578000D02*
X82860000Y-81578000D01*
X75710000Y-87078000D02*
X78760000Y-87078000D01*
X75710000Y-84128000D02*
X75710000Y-87078000D01*
X74960000Y-84128000D02*
X75710000Y-84128000D01*
X81810000Y-87078000D02*
X78760000Y-87078000D01*
X81810000Y-84128000D02*
X81810000Y-87078000D01*
X82560000Y-84128000D02*
X81810000Y-84128000D01*
X74960000Y-81878000D02*
X76760000Y-81878000D01*
X74960000Y-82628000D02*
X74960000Y-81878000D01*
X76760000Y-82628000D02*
X74960000Y-82628000D01*
X76760000Y-81878000D02*
X76760000Y-82628000D01*
X80760000Y-81878000D02*
X82560000Y-81878000D01*
X80760000Y-82628000D02*
X80760000Y-81878000D01*
X82560000Y-82628000D02*
X80760000Y-82628000D01*
X82560000Y-81878000D02*
X82560000Y-82628000D01*
X78260000Y-81878000D02*
X79260000Y-81878000D01*
X78260000Y-82628000D02*
X78260000Y-81878000D01*
X79260000Y-82628000D02*
X78260000Y-82628000D01*
X79260000Y-81878000D02*
X79260000Y-82628000D01*
X74950000Y-81868000D02*
X82570000Y-81868000D01*
X74950000Y-87838000D02*
X74950000Y-81868000D01*
X82570000Y-87838000D02*
X74950000Y-87838000D01*
X82570000Y-81868000D02*
X82570000Y-87838000D01*
G04 #@! TO.C,J5*
X95270000Y-81868000D02*
X95270000Y-87838000D01*
X95270000Y-87838000D02*
X87650000Y-87838000D01*
X87650000Y-87838000D02*
X87650000Y-81868000D01*
X87650000Y-81868000D02*
X95270000Y-81868000D01*
X91960000Y-81878000D02*
X91960000Y-82628000D01*
X91960000Y-82628000D02*
X90960000Y-82628000D01*
X90960000Y-82628000D02*
X90960000Y-81878000D01*
X90960000Y-81878000D02*
X91960000Y-81878000D01*
X95260000Y-81878000D02*
X95260000Y-82628000D01*
X95260000Y-82628000D02*
X93460000Y-82628000D01*
X93460000Y-82628000D02*
X93460000Y-81878000D01*
X93460000Y-81878000D02*
X95260000Y-81878000D01*
X89460000Y-81878000D02*
X89460000Y-82628000D01*
X89460000Y-82628000D02*
X87660000Y-82628000D01*
X87660000Y-82628000D02*
X87660000Y-81878000D01*
X87660000Y-81878000D02*
X89460000Y-81878000D01*
X95260000Y-84128000D02*
X94510000Y-84128000D01*
X94510000Y-84128000D02*
X94510000Y-87078000D01*
X94510000Y-87078000D02*
X91460000Y-87078000D01*
X87660000Y-84128000D02*
X88410000Y-84128000D01*
X88410000Y-84128000D02*
X88410000Y-87078000D01*
X88410000Y-87078000D02*
X91460000Y-87078000D01*
X94310000Y-81578000D02*
X95560000Y-81578000D01*
X95560000Y-81578000D02*
X95560000Y-82828000D01*
G04 #@! TO.C,J2*
X133660000Y-81832000D02*
X133660000Y-83082000D01*
X132410000Y-81832000D02*
X133660000Y-81832000D01*
X126510000Y-87332000D02*
X129560000Y-87332000D01*
X126510000Y-84382000D02*
X126510000Y-87332000D01*
X125760000Y-84382000D02*
X126510000Y-84382000D01*
X132610000Y-87332000D02*
X129560000Y-87332000D01*
X132610000Y-84382000D02*
X132610000Y-87332000D01*
X133360000Y-84382000D02*
X132610000Y-84382000D01*
X125760000Y-82132000D02*
X127560000Y-82132000D01*
X125760000Y-82882000D02*
X125760000Y-82132000D01*
X127560000Y-82882000D02*
X125760000Y-82882000D01*
X127560000Y-82132000D02*
X127560000Y-82882000D01*
X131560000Y-82132000D02*
X133360000Y-82132000D01*
X131560000Y-82882000D02*
X131560000Y-82132000D01*
X133360000Y-82882000D02*
X131560000Y-82882000D01*
X133360000Y-82132000D02*
X133360000Y-82882000D01*
X129060000Y-82132000D02*
X130060000Y-82132000D01*
X129060000Y-82882000D02*
X129060000Y-82132000D01*
X130060000Y-82882000D02*
X129060000Y-82882000D01*
X130060000Y-82132000D02*
X130060000Y-82882000D01*
X125750000Y-82122000D02*
X133370000Y-82122000D01*
X125750000Y-88092000D02*
X125750000Y-82122000D01*
X133370000Y-88092000D02*
X125750000Y-88092000D01*
X133370000Y-82122000D02*
X133370000Y-88092000D01*
G04 #@! TO.C,J1*
X146324000Y-81868000D02*
X146324000Y-87838000D01*
X146324000Y-87838000D02*
X138704000Y-87838000D01*
X138704000Y-87838000D02*
X138704000Y-81868000D01*
X138704000Y-81868000D02*
X146324000Y-81868000D01*
X143014000Y-81878000D02*
X143014000Y-82628000D01*
X143014000Y-82628000D02*
X142014000Y-82628000D01*
X142014000Y-82628000D02*
X142014000Y-81878000D01*
X142014000Y-81878000D02*
X143014000Y-81878000D01*
X146314000Y-81878000D02*
X146314000Y-82628000D01*
X146314000Y-82628000D02*
X144514000Y-82628000D01*
X144514000Y-82628000D02*
X144514000Y-81878000D01*
X144514000Y-81878000D02*
X146314000Y-81878000D01*
X140514000Y-81878000D02*
X140514000Y-82628000D01*
X140514000Y-82628000D02*
X138714000Y-82628000D01*
X138714000Y-82628000D02*
X138714000Y-81878000D01*
X138714000Y-81878000D02*
X140514000Y-81878000D01*
X146314000Y-84128000D02*
X145564000Y-84128000D01*
X145564000Y-84128000D02*
X145564000Y-87078000D01*
X145564000Y-87078000D02*
X142514000Y-87078000D01*
X138714000Y-84128000D02*
X139464000Y-84128000D01*
X139464000Y-84128000D02*
X139464000Y-87078000D01*
X139464000Y-87078000D02*
X142514000Y-87078000D01*
X145364000Y-81578000D02*
X146614000Y-81578000D01*
X146614000Y-81578000D02*
X146614000Y-82828000D01*
G04 #@! TO.C,J11*
X133140000Y-50530000D02*
X134390000Y-50530000D01*
X133140000Y-51780000D02*
X133140000Y-50530000D01*
X138640000Y-57680000D02*
X138640000Y-54630000D01*
X135690000Y-57680000D02*
X138640000Y-57680000D01*
X135690000Y-58430000D02*
X135690000Y-57680000D01*
X138640000Y-51580000D02*
X138640000Y-54630000D01*
X135690000Y-51580000D02*
X138640000Y-51580000D01*
X135690000Y-50830000D02*
X135690000Y-51580000D01*
X133440000Y-58430000D02*
X133440000Y-56630000D01*
X134190000Y-58430000D02*
X133440000Y-58430000D01*
X134190000Y-56630000D02*
X134190000Y-58430000D01*
X133440000Y-56630000D02*
X134190000Y-56630000D01*
X133440000Y-52630000D02*
X133440000Y-50830000D01*
X134190000Y-52630000D02*
X133440000Y-52630000D01*
X134190000Y-50830000D02*
X134190000Y-52630000D01*
X133440000Y-50830000D02*
X134190000Y-50830000D01*
X133440000Y-55130000D02*
X133440000Y-54130000D01*
X134190000Y-55130000D02*
X133440000Y-55130000D01*
X134190000Y-54130000D02*
X134190000Y-55130000D01*
X133440000Y-54130000D02*
X134190000Y-54130000D01*
X133430000Y-58440000D02*
X133430000Y-50820000D01*
X139400000Y-58440000D02*
X133430000Y-58440000D01*
X139400000Y-50820000D02*
X139400000Y-58440000D01*
X133430000Y-50820000D02*
X139400000Y-50820000D01*
G04 #@! TO.C,J10*
X133430000Y-59964000D02*
X139400000Y-59964000D01*
X139400000Y-59964000D02*
X139400000Y-67584000D01*
X139400000Y-67584000D02*
X133430000Y-67584000D01*
X133430000Y-67584000D02*
X133430000Y-59964000D01*
X133440000Y-63274000D02*
X134190000Y-63274000D01*
X134190000Y-63274000D02*
X134190000Y-64274000D01*
X134190000Y-64274000D02*
X133440000Y-64274000D01*
X133440000Y-64274000D02*
X133440000Y-63274000D01*
X133440000Y-59974000D02*
X134190000Y-59974000D01*
X134190000Y-59974000D02*
X134190000Y-61774000D01*
X134190000Y-61774000D02*
X133440000Y-61774000D01*
X133440000Y-61774000D02*
X133440000Y-59974000D01*
X133440000Y-65774000D02*
X134190000Y-65774000D01*
X134190000Y-65774000D02*
X134190000Y-67574000D01*
X134190000Y-67574000D02*
X133440000Y-67574000D01*
X133440000Y-67574000D02*
X133440000Y-65774000D01*
X135690000Y-59974000D02*
X135690000Y-60724000D01*
X135690000Y-60724000D02*
X138640000Y-60724000D01*
X138640000Y-60724000D02*
X138640000Y-63774000D01*
X135690000Y-67574000D02*
X135690000Y-66824000D01*
X135690000Y-66824000D02*
X138640000Y-66824000D01*
X138640000Y-66824000D02*
X138640000Y-63774000D01*
X133140000Y-60924000D02*
X133140000Y-59674000D01*
X133140000Y-59674000D02*
X134390000Y-59674000D01*
G04 #@! TO.C,J4*
X108006000Y-81578000D02*
X108006000Y-82828000D01*
X106756000Y-81578000D02*
X108006000Y-81578000D01*
X100856000Y-87078000D02*
X103906000Y-87078000D01*
X100856000Y-84128000D02*
X100856000Y-87078000D01*
X100106000Y-84128000D02*
X100856000Y-84128000D01*
X106956000Y-87078000D02*
X103906000Y-87078000D01*
X106956000Y-84128000D02*
X106956000Y-87078000D01*
X107706000Y-84128000D02*
X106956000Y-84128000D01*
X100106000Y-81878000D02*
X101906000Y-81878000D01*
X100106000Y-82628000D02*
X100106000Y-81878000D01*
X101906000Y-82628000D02*
X100106000Y-82628000D01*
X101906000Y-81878000D02*
X101906000Y-82628000D01*
X105906000Y-81878000D02*
X107706000Y-81878000D01*
X105906000Y-82628000D02*
X105906000Y-81878000D01*
X107706000Y-82628000D02*
X105906000Y-82628000D01*
X107706000Y-81878000D02*
X107706000Y-82628000D01*
X103406000Y-81878000D02*
X104406000Y-81878000D01*
X103406000Y-82628000D02*
X103406000Y-81878000D01*
X104406000Y-82628000D02*
X103406000Y-82628000D01*
X104406000Y-81878000D02*
X104406000Y-82628000D01*
X100096000Y-81868000D02*
X107716000Y-81868000D01*
X100096000Y-87838000D02*
X100096000Y-81868000D01*
X107716000Y-87838000D02*
X100096000Y-87838000D01*
X107716000Y-81868000D02*
X107716000Y-87838000D01*
G04 #@! TO.C,J9*
X133430000Y-30246000D02*
X139400000Y-30246000D01*
X139400000Y-30246000D02*
X139400000Y-37866000D01*
X139400000Y-37866000D02*
X133430000Y-37866000D01*
X133430000Y-37866000D02*
X133430000Y-30246000D01*
X133440000Y-33556000D02*
X134190000Y-33556000D01*
X134190000Y-33556000D02*
X134190000Y-34556000D01*
X134190000Y-34556000D02*
X133440000Y-34556000D01*
X133440000Y-34556000D02*
X133440000Y-33556000D01*
X133440000Y-30256000D02*
X134190000Y-30256000D01*
X134190000Y-30256000D02*
X134190000Y-32056000D01*
X134190000Y-32056000D02*
X133440000Y-32056000D01*
X133440000Y-32056000D02*
X133440000Y-30256000D01*
X133440000Y-36056000D02*
X134190000Y-36056000D01*
X134190000Y-36056000D02*
X134190000Y-37856000D01*
X134190000Y-37856000D02*
X133440000Y-37856000D01*
X133440000Y-37856000D02*
X133440000Y-36056000D01*
X135690000Y-30256000D02*
X135690000Y-31006000D01*
X135690000Y-31006000D02*
X138640000Y-31006000D01*
X138640000Y-31006000D02*
X138640000Y-34056000D01*
X135690000Y-37856000D02*
X135690000Y-37106000D01*
X135690000Y-37106000D02*
X138640000Y-37106000D01*
X138640000Y-37106000D02*
X138640000Y-34056000D01*
X133140000Y-31206000D02*
X133140000Y-29956000D01*
X133140000Y-29956000D02*
X134390000Y-29956000D01*
D13*
G04 #@! TO.C,U1*
X123860000Y-48651000D02*
X123810000Y-48651000D01*
X123860000Y-44501000D02*
X123715000Y-44501000D01*
X118710000Y-44501000D02*
X118855000Y-44501000D01*
X118710000Y-48651000D02*
X118855000Y-48651000D01*
X123860000Y-48651000D02*
X123860000Y-44501000D01*
X118710000Y-48651000D02*
X118710000Y-44501000D01*
X123810000Y-48651000D02*
X123810000Y-50051000D01*
D12*
G04 #@! TO.C,R6*
X79450000Y-72645748D02*
X79450000Y-73168252D01*
X78030000Y-72645748D02*
X78030000Y-73168252D01*
G04 #@! TO.C,R12*
X129996000Y-60976252D02*
X129996000Y-60453748D01*
X128576000Y-60976252D02*
X128576000Y-60453748D01*
G04 #@! TO.C,R11*
X128576000Y-57166252D02*
X128576000Y-56643748D01*
X129996000Y-57166252D02*
X129996000Y-56643748D01*
G04 #@! TO.C,R10*
X129488000Y-51070252D02*
X129488000Y-50547748D01*
X128068000Y-51070252D02*
X128068000Y-50547748D01*
G04 #@! TO.C,R9*
X123206252Y-52526000D02*
X122683748Y-52526000D01*
X123206252Y-51106000D02*
X122683748Y-51106000D01*
G04 #@! TO.C,R7*
X65330000Y-72645748D02*
X65330000Y-73168252D01*
X66750000Y-72645748D02*
X66750000Y-73168252D01*
G04 #@! TO.C,R5*
X92150000Y-72645748D02*
X92150000Y-73168252D01*
X90730000Y-72645748D02*
X90730000Y-73168252D01*
G04 #@! TO.C,R4*
X103430000Y-72645748D02*
X103430000Y-73168252D01*
X104850000Y-72645748D02*
X104850000Y-73168252D01*
G04 #@! TO.C,R3*
X117550000Y-72645748D02*
X117550000Y-73168252D01*
X116130000Y-72645748D02*
X116130000Y-73168252D01*
G04 #@! TO.C,R2*
X128830000Y-72645748D02*
X128830000Y-73168252D01*
X130250000Y-72645748D02*
X130250000Y-73168252D01*
G04 #@! TO.C,R1*
X142950000Y-72645748D02*
X142950000Y-73168252D01*
X141530000Y-72645748D02*
X141530000Y-73168252D01*
G04 #@! TO.C,R8*
X52630000Y-72645748D02*
X52630000Y-73168252D01*
X54050000Y-72645748D02*
X54050000Y-73168252D01*
G04 #@! TO.C,R13*
D13*
X129866380Y-33656142D02*
X129390190Y-33322809D01*
X129866380Y-33084714D02*
X128866380Y-33084714D01*
X128866380Y-33465666D01*
X128914000Y-33560904D01*
X128961619Y-33608523D01*
X129056857Y-33656142D01*
X129199714Y-33656142D01*
X129294952Y-33608523D01*
X129342571Y-33560904D01*
X129390190Y-33465666D01*
X129390190Y-33084714D01*
X129866380Y-34608523D02*
X129866380Y-34037095D01*
X129866380Y-34322809D02*
X128866380Y-34322809D01*
X129009238Y-34227571D01*
X129104476Y-34132333D01*
X129152095Y-34037095D01*
X128866380Y-34941857D02*
X128866380Y-35560904D01*
X129247333Y-35227571D01*
X129247333Y-35370428D01*
X129294952Y-35465666D01*
X129342571Y-35513285D01*
X129437809Y-35560904D01*
X129675904Y-35560904D01*
X129771142Y-35513285D01*
X129818761Y-35465666D01*
X129866380Y-35370428D01*
X129866380Y-35084714D01*
X129818761Y-34989476D01*
X129771142Y-34941857D01*
G04 #@! TO.C,C16*
X101480857Y-32352142D02*
X101528476Y-32399761D01*
X101671333Y-32447380D01*
X101766571Y-32447380D01*
X101909428Y-32399761D01*
X102004666Y-32304523D01*
X102052285Y-32209285D01*
X102099904Y-32018809D01*
X102099904Y-31875952D01*
X102052285Y-31685476D01*
X102004666Y-31590238D01*
X101909428Y-31495000D01*
X101766571Y-31447380D01*
X101671333Y-31447380D01*
X101528476Y-31495000D01*
X101480857Y-31542619D01*
X100528476Y-32447380D02*
X101099904Y-32447380D01*
X100814190Y-32447380D02*
X100814190Y-31447380D01*
X100909428Y-31590238D01*
X101004666Y-31685476D01*
X101099904Y-31733095D01*
X99671333Y-31447380D02*
X99861809Y-31447380D01*
X99957047Y-31495000D01*
X100004666Y-31542619D01*
X100099904Y-31685476D01*
X100147523Y-31875952D01*
X100147523Y-32256904D01*
X100099904Y-32352142D01*
X100052285Y-32399761D01*
X99957047Y-32447380D01*
X99766571Y-32447380D01*
X99671333Y-32399761D01*
X99623714Y-32352142D01*
X99576095Y-32256904D01*
X99576095Y-32018809D01*
X99623714Y-31923571D01*
X99671333Y-31875952D01*
X99766571Y-31828333D01*
X99957047Y-31828333D01*
X100052285Y-31875952D01*
X100099904Y-31923571D01*
X100147523Y-32018809D01*
G04 #@! TO.C,C15*
X122308857Y-42276142D02*
X122356476Y-42323761D01*
X122499333Y-42371380D01*
X122594571Y-42371380D01*
X122737428Y-42323761D01*
X122832666Y-42228523D01*
X122880285Y-42133285D01*
X122927904Y-41942809D01*
X122927904Y-41799952D01*
X122880285Y-41609476D01*
X122832666Y-41514238D01*
X122737428Y-41419000D01*
X122594571Y-41371380D01*
X122499333Y-41371380D01*
X122356476Y-41419000D01*
X122308857Y-41466619D01*
X121356476Y-42371380D02*
X121927904Y-42371380D01*
X121642190Y-42371380D02*
X121642190Y-41371380D01*
X121737428Y-41514238D01*
X121832666Y-41609476D01*
X121927904Y-41657095D01*
X120451714Y-41371380D02*
X120927904Y-41371380D01*
X120975523Y-41847571D01*
X120927904Y-41799952D01*
X120832666Y-41752333D01*
X120594571Y-41752333D01*
X120499333Y-41799952D01*
X120451714Y-41847571D01*
X120404095Y-41942809D01*
X120404095Y-42180904D01*
X120451714Y-42276142D01*
X120499333Y-42323761D01*
X120594571Y-42371380D01*
X120832666Y-42371380D01*
X120927904Y-42323761D01*
X120975523Y-42276142D01*
G04 #@! TO.C,C14*
X104274857Y-32361142D02*
X104322476Y-32408761D01*
X104465333Y-32456380D01*
X104560571Y-32456380D01*
X104703428Y-32408761D01*
X104798666Y-32313523D01*
X104846285Y-32218285D01*
X104893904Y-32027809D01*
X104893904Y-31884952D01*
X104846285Y-31694476D01*
X104798666Y-31599238D01*
X104703428Y-31504000D01*
X104560571Y-31456380D01*
X104465333Y-31456380D01*
X104322476Y-31504000D01*
X104274857Y-31551619D01*
X103322476Y-32456380D02*
X103893904Y-32456380D01*
X103608190Y-32456380D02*
X103608190Y-31456380D01*
X103703428Y-31599238D01*
X103798666Y-31694476D01*
X103893904Y-31742095D01*
X102465333Y-31789714D02*
X102465333Y-32456380D01*
X102703428Y-31408761D02*
X102941523Y-32123047D01*
X102322476Y-32123047D01*
G04 #@! TO.C,C13*
X119514857Y-42285142D02*
X119562476Y-42332761D01*
X119705333Y-42380380D01*
X119800571Y-42380380D01*
X119943428Y-42332761D01*
X120038666Y-42237523D01*
X120086285Y-42142285D01*
X120133904Y-41951809D01*
X120133904Y-41808952D01*
X120086285Y-41618476D01*
X120038666Y-41523238D01*
X119943428Y-41428000D01*
X119800571Y-41380380D01*
X119705333Y-41380380D01*
X119562476Y-41428000D01*
X119514857Y-41475619D01*
X118562476Y-42380380D02*
X119133904Y-42380380D01*
X118848190Y-42380380D02*
X118848190Y-41380380D01*
X118943428Y-41523238D01*
X119038666Y-41618476D01*
X119133904Y-41666095D01*
X118229142Y-41380380D02*
X117610095Y-41380380D01*
X117943428Y-41761333D01*
X117800571Y-41761333D01*
X117705333Y-41808952D01*
X117657714Y-41856571D01*
X117610095Y-41951809D01*
X117610095Y-42189904D01*
X117657714Y-42285142D01*
X117705333Y-42332761D01*
X117800571Y-42380380D01*
X118086285Y-42380380D01*
X118181523Y-42332761D01*
X118229142Y-42285142D01*
G04 #@! TO.C,J12*
X109521523Y-28916380D02*
X109521523Y-29630666D01*
X109569142Y-29773523D01*
X109664380Y-29868761D01*
X109807238Y-29916380D01*
X109902476Y-29916380D01*
X108521523Y-29916380D02*
X109092952Y-29916380D01*
X108807238Y-29916380D02*
X108807238Y-28916380D01*
X108902476Y-29059238D01*
X108997714Y-29154476D01*
X109092952Y-29202095D01*
X108140571Y-29011619D02*
X108092952Y-28964000D01*
X107997714Y-28916380D01*
X107759619Y-28916380D01*
X107664380Y-28964000D01*
X107616761Y-29011619D01*
X107569142Y-29106857D01*
X107569142Y-29202095D01*
X107616761Y-29344952D01*
X108188190Y-29916380D01*
X107569142Y-29916380D01*
G04 #@! TO.C,L1*
X115736666Y-40330380D02*
X116212857Y-40330380D01*
X116212857Y-39330380D01*
X114879523Y-40330380D02*
X115450952Y-40330380D01*
X115165238Y-40330380D02*
X115165238Y-39330380D01*
X115260476Y-39473238D01*
X115355714Y-39568476D01*
X115450952Y-39616095D01*
G04 #@! TO.C,L2*
X106837666Y-37536380D02*
X107313857Y-37536380D01*
X107313857Y-36536380D01*
X106551952Y-36631619D02*
X106504333Y-36584000D01*
X106409095Y-36536380D01*
X106171000Y-36536380D01*
X106075761Y-36584000D01*
X106028142Y-36631619D01*
X105980523Y-36726857D01*
X105980523Y-36822095D01*
X106028142Y-36964952D01*
X106599571Y-37536380D01*
X105980523Y-37536380D01*
G04 #@! TO.C,L3*
X115473666Y-31948380D02*
X115949857Y-31948380D01*
X115949857Y-30948380D01*
X115235571Y-30948380D02*
X114616523Y-30948380D01*
X114949857Y-31329333D01*
X114807000Y-31329333D01*
X114711761Y-31376952D01*
X114664142Y-31424571D01*
X114616523Y-31519809D01*
X114616523Y-31757904D01*
X114664142Y-31853142D01*
X114711761Y-31900761D01*
X114807000Y-31948380D01*
X115092714Y-31948380D01*
X115187952Y-31900761D01*
X115235571Y-31853142D01*
G04 #@! TO.C,RV9*
X132421238Y-49220380D02*
X132754571Y-48744190D01*
X132992666Y-49220380D02*
X132992666Y-48220380D01*
X132611714Y-48220380D01*
X132516476Y-48268000D01*
X132468857Y-48315619D01*
X132421238Y-48410857D01*
X132421238Y-48553714D01*
X132468857Y-48648952D01*
X132516476Y-48696571D01*
X132611714Y-48744190D01*
X132992666Y-48744190D01*
X132135523Y-48220380D02*
X131802190Y-49220380D01*
X131468857Y-48220380D01*
X131087904Y-49220380D02*
X130897428Y-49220380D01*
X130802190Y-49172761D01*
X130754571Y-49125142D01*
X130659333Y-48982285D01*
X130611714Y-48791809D01*
X130611714Y-48410857D01*
X130659333Y-48315619D01*
X130706952Y-48268000D01*
X130802190Y-48220380D01*
X130992666Y-48220380D01*
X131087904Y-48268000D01*
X131135523Y-48315619D01*
X131183142Y-48410857D01*
X131183142Y-48648952D01*
X131135523Y-48744190D01*
X131087904Y-48791809D01*
X130992666Y-48839428D01*
X130802190Y-48839428D01*
X130706952Y-48791809D01*
X130659333Y-48744190D01*
X130611714Y-48648952D01*
G04 #@! TO.C,C12*
X131706857Y-43791142D02*
X131754476Y-43838761D01*
X131897333Y-43886380D01*
X131992571Y-43886380D01*
X132135428Y-43838761D01*
X132230666Y-43743523D01*
X132278285Y-43648285D01*
X132325904Y-43457809D01*
X132325904Y-43314952D01*
X132278285Y-43124476D01*
X132230666Y-43029238D01*
X132135428Y-42934000D01*
X131992571Y-42886380D01*
X131897333Y-42886380D01*
X131754476Y-42934000D01*
X131706857Y-42981619D01*
X130754476Y-43886380D02*
X131325904Y-43886380D01*
X131040190Y-43886380D02*
X131040190Y-42886380D01*
X131135428Y-43029238D01*
X131230666Y-43124476D01*
X131325904Y-43172095D01*
X130373523Y-42981619D02*
X130325904Y-42934000D01*
X130230666Y-42886380D01*
X129992571Y-42886380D01*
X129897333Y-42934000D01*
X129849714Y-42981619D01*
X129802095Y-43076857D01*
X129802095Y-43172095D01*
X129849714Y-43314952D01*
X130421142Y-43886380D01*
X129802095Y-43886380D01*
G04 #@! TO.C,C11*
X126880857Y-48363142D02*
X126928476Y-48410761D01*
X127071333Y-48458380D01*
X127166571Y-48458380D01*
X127309428Y-48410761D01*
X127404666Y-48315523D01*
X127452285Y-48220285D01*
X127499904Y-48029809D01*
X127499904Y-47886952D01*
X127452285Y-47696476D01*
X127404666Y-47601238D01*
X127309428Y-47506000D01*
X127166571Y-47458380D01*
X127071333Y-47458380D01*
X126928476Y-47506000D01*
X126880857Y-47553619D01*
X125928476Y-48458380D02*
X126499904Y-48458380D01*
X126214190Y-48458380D02*
X126214190Y-47458380D01*
X126309428Y-47601238D01*
X126404666Y-47696476D01*
X126499904Y-47744095D01*
X124976095Y-48458380D02*
X125547523Y-48458380D01*
X125261809Y-48458380D02*
X125261809Y-47458380D01*
X125357047Y-47601238D01*
X125452285Y-47696476D01*
X125547523Y-47744095D01*
G04 #@! TO.C,C10*
X115196857Y-49887142D02*
X115244476Y-49934761D01*
X115387333Y-49982380D01*
X115482571Y-49982380D01*
X115625428Y-49934761D01*
X115720666Y-49839523D01*
X115768285Y-49744285D01*
X115815904Y-49553809D01*
X115815904Y-49410952D01*
X115768285Y-49220476D01*
X115720666Y-49125238D01*
X115625428Y-49030000D01*
X115482571Y-48982380D01*
X115387333Y-48982380D01*
X115244476Y-49030000D01*
X115196857Y-49077619D01*
X114244476Y-49982380D02*
X114815904Y-49982380D01*
X114530190Y-49982380D02*
X114530190Y-48982380D01*
X114625428Y-49125238D01*
X114720666Y-49220476D01*
X114815904Y-49268095D01*
X113625428Y-48982380D02*
X113530190Y-48982380D01*
X113434952Y-49030000D01*
X113387333Y-49077619D01*
X113339714Y-49172857D01*
X113292095Y-49363333D01*
X113292095Y-49601428D01*
X113339714Y-49791904D01*
X113387333Y-49887142D01*
X113434952Y-49934761D01*
X113530190Y-49982380D01*
X113625428Y-49982380D01*
X113720666Y-49934761D01*
X113768285Y-49887142D01*
X113815904Y-49791904D01*
X113863523Y-49601428D01*
X113863523Y-49363333D01*
X113815904Y-49172857D01*
X113768285Y-49077619D01*
X113720666Y-49030000D01*
X113625428Y-48982380D01*
G04 #@! TO.C,C9*
X127166666Y-42267142D02*
X127214285Y-42314761D01*
X127357142Y-42362380D01*
X127452380Y-42362380D01*
X127595238Y-42314761D01*
X127690476Y-42219523D01*
X127738095Y-42124285D01*
X127785714Y-41933809D01*
X127785714Y-41790952D01*
X127738095Y-41600476D01*
X127690476Y-41505238D01*
X127595238Y-41410000D01*
X127452380Y-41362380D01*
X127357142Y-41362380D01*
X127214285Y-41410000D01*
X127166666Y-41457619D01*
X126690476Y-42362380D02*
X126500000Y-42362380D01*
X126404761Y-42314761D01*
X126357142Y-42267142D01*
X126261904Y-42124285D01*
X126214285Y-41933809D01*
X126214285Y-41552857D01*
X126261904Y-41457619D01*
X126309523Y-41410000D01*
X126404761Y-41362380D01*
X126595238Y-41362380D01*
X126690476Y-41410000D01*
X126738095Y-41457619D01*
X126785714Y-41552857D01*
X126785714Y-41790952D01*
X126738095Y-41886190D01*
X126690476Y-41933809D01*
X126595238Y-41981428D01*
X126404761Y-41981428D01*
X126309523Y-41933809D01*
X126261904Y-41886190D01*
X126214285Y-41790952D01*
G04 #@! TO.C,C8*
X48172666Y-84177142D02*
X48220285Y-84224761D01*
X48363142Y-84272380D01*
X48458380Y-84272380D01*
X48601238Y-84224761D01*
X48696476Y-84129523D01*
X48744095Y-84034285D01*
X48791714Y-83843809D01*
X48791714Y-83700952D01*
X48744095Y-83510476D01*
X48696476Y-83415238D01*
X48601238Y-83320000D01*
X48458380Y-83272380D01*
X48363142Y-83272380D01*
X48220285Y-83320000D01*
X48172666Y-83367619D01*
X47601238Y-83700952D02*
X47696476Y-83653333D01*
X47744095Y-83605714D01*
X47791714Y-83510476D01*
X47791714Y-83462857D01*
X47744095Y-83367619D01*
X47696476Y-83320000D01*
X47601238Y-83272380D01*
X47410761Y-83272380D01*
X47315523Y-83320000D01*
X47267904Y-83367619D01*
X47220285Y-83462857D01*
X47220285Y-83510476D01*
X47267904Y-83605714D01*
X47315523Y-83653333D01*
X47410761Y-83700952D01*
X47601238Y-83700952D01*
X47696476Y-83748571D01*
X47744095Y-83796190D01*
X47791714Y-83891428D01*
X47791714Y-84081904D01*
X47744095Y-84177142D01*
X47696476Y-84224761D01*
X47601238Y-84272380D01*
X47410761Y-84272380D01*
X47315523Y-84224761D01*
X47267904Y-84177142D01*
X47220285Y-84081904D01*
X47220285Y-83891428D01*
X47267904Y-83796190D01*
X47315523Y-83748571D01*
X47410761Y-83700952D01*
G04 #@! TO.C,C7*
X60872666Y-84177142D02*
X60920285Y-84224761D01*
X61063142Y-84272380D01*
X61158380Y-84272380D01*
X61301238Y-84224761D01*
X61396476Y-84129523D01*
X61444095Y-84034285D01*
X61491714Y-83843809D01*
X61491714Y-83700952D01*
X61444095Y-83510476D01*
X61396476Y-83415238D01*
X61301238Y-83320000D01*
X61158380Y-83272380D01*
X61063142Y-83272380D01*
X60920285Y-83320000D01*
X60872666Y-83367619D01*
X60539333Y-83272380D02*
X59872666Y-83272380D01*
X60301238Y-84272380D01*
G04 #@! TO.C,C6*
X73318666Y-84431142D02*
X73366285Y-84478761D01*
X73509142Y-84526380D01*
X73604380Y-84526380D01*
X73747238Y-84478761D01*
X73842476Y-84383523D01*
X73890095Y-84288285D01*
X73937714Y-84097809D01*
X73937714Y-83954952D01*
X73890095Y-83764476D01*
X73842476Y-83669238D01*
X73747238Y-83574000D01*
X73604380Y-83526380D01*
X73509142Y-83526380D01*
X73366285Y-83574000D01*
X73318666Y-83621619D01*
X72461523Y-83526380D02*
X72652000Y-83526380D01*
X72747238Y-83574000D01*
X72794857Y-83621619D01*
X72890095Y-83764476D01*
X72937714Y-83954952D01*
X72937714Y-84335904D01*
X72890095Y-84431142D01*
X72842476Y-84478761D01*
X72747238Y-84526380D01*
X72556761Y-84526380D01*
X72461523Y-84478761D01*
X72413904Y-84431142D01*
X72366285Y-84335904D01*
X72366285Y-84097809D01*
X72413904Y-84002571D01*
X72461523Y-83954952D01*
X72556761Y-83907333D01*
X72747238Y-83907333D01*
X72842476Y-83954952D01*
X72890095Y-84002571D01*
X72937714Y-84097809D01*
G04 #@! TO.C,C5*
X85764666Y-84431142D02*
X85812285Y-84478761D01*
X85955142Y-84526380D01*
X86050380Y-84526380D01*
X86193238Y-84478761D01*
X86288476Y-84383523D01*
X86336095Y-84288285D01*
X86383714Y-84097809D01*
X86383714Y-83954952D01*
X86336095Y-83764476D01*
X86288476Y-83669238D01*
X86193238Y-83574000D01*
X86050380Y-83526380D01*
X85955142Y-83526380D01*
X85812285Y-83574000D01*
X85764666Y-83621619D01*
X84859904Y-83526380D02*
X85336095Y-83526380D01*
X85383714Y-84002571D01*
X85336095Y-83954952D01*
X85240857Y-83907333D01*
X85002761Y-83907333D01*
X84907523Y-83954952D01*
X84859904Y-84002571D01*
X84812285Y-84097809D01*
X84812285Y-84335904D01*
X84859904Y-84431142D01*
X84907523Y-84478761D01*
X85002761Y-84526380D01*
X85240857Y-84526380D01*
X85336095Y-84478761D01*
X85383714Y-84431142D01*
G04 #@! TO.C,C4*
X98210666Y-84431142D02*
X98258285Y-84478761D01*
X98401142Y-84526380D01*
X98496380Y-84526380D01*
X98639238Y-84478761D01*
X98734476Y-84383523D01*
X98782095Y-84288285D01*
X98829714Y-84097809D01*
X98829714Y-83954952D01*
X98782095Y-83764476D01*
X98734476Y-83669238D01*
X98639238Y-83574000D01*
X98496380Y-83526380D01*
X98401142Y-83526380D01*
X98258285Y-83574000D01*
X98210666Y-83621619D01*
X97353523Y-83859714D02*
X97353523Y-84526380D01*
X97591619Y-83478761D02*
X97829714Y-84193047D01*
X97210666Y-84193047D01*
G04 #@! TO.C,C3*
X111164666Y-84431142D02*
X111212285Y-84478761D01*
X111355142Y-84526380D01*
X111450380Y-84526380D01*
X111593238Y-84478761D01*
X111688476Y-84383523D01*
X111736095Y-84288285D01*
X111783714Y-84097809D01*
X111783714Y-83954952D01*
X111736095Y-83764476D01*
X111688476Y-83669238D01*
X111593238Y-83574000D01*
X111450380Y-83526380D01*
X111355142Y-83526380D01*
X111212285Y-83574000D01*
X111164666Y-83621619D01*
X110831333Y-83526380D02*
X110212285Y-83526380D01*
X110545619Y-83907333D01*
X110402761Y-83907333D01*
X110307523Y-83954952D01*
X110259904Y-84002571D01*
X110212285Y-84097809D01*
X110212285Y-84335904D01*
X110259904Y-84431142D01*
X110307523Y-84478761D01*
X110402761Y-84526380D01*
X110688476Y-84526380D01*
X110783714Y-84478761D01*
X110831333Y-84431142D01*
G04 #@! TO.C,C2*
X124118666Y-84177142D02*
X124166285Y-84224761D01*
X124309142Y-84272380D01*
X124404380Y-84272380D01*
X124547238Y-84224761D01*
X124642476Y-84129523D01*
X124690095Y-84034285D01*
X124737714Y-83843809D01*
X124737714Y-83700952D01*
X124690095Y-83510476D01*
X124642476Y-83415238D01*
X124547238Y-83320000D01*
X124404380Y-83272380D01*
X124309142Y-83272380D01*
X124166285Y-83320000D01*
X124118666Y-83367619D01*
X123737714Y-83367619D02*
X123690095Y-83320000D01*
X123594857Y-83272380D01*
X123356761Y-83272380D01*
X123261523Y-83320000D01*
X123213904Y-83367619D01*
X123166285Y-83462857D01*
X123166285Y-83558095D01*
X123213904Y-83700952D01*
X123785333Y-84272380D01*
X123166285Y-84272380D01*
G04 #@! TO.C,C1*
X136564666Y-84177142D02*
X136612285Y-84224761D01*
X136755142Y-84272380D01*
X136850380Y-84272380D01*
X136993238Y-84224761D01*
X137088476Y-84129523D01*
X137136095Y-84034285D01*
X137183714Y-83843809D01*
X137183714Y-83700952D01*
X137136095Y-83510476D01*
X137088476Y-83415238D01*
X136993238Y-83320000D01*
X136850380Y-83272380D01*
X136755142Y-83272380D01*
X136612285Y-83320000D01*
X136564666Y-83367619D01*
X135612285Y-84272380D02*
X136183714Y-84272380D01*
X135898000Y-84272380D02*
X135898000Y-83272380D01*
X135993238Y-83415238D01*
X136088476Y-83510476D01*
X136183714Y-83558095D01*
G04 #@! TO.C,J3*
X111585333Y-87082380D02*
X111585333Y-87796666D01*
X111632952Y-87939523D01*
X111728190Y-88034761D01*
X111871047Y-88082380D01*
X111966285Y-88082380D01*
X111204380Y-87082380D02*
X110585333Y-87082380D01*
X110918666Y-87463333D01*
X110775809Y-87463333D01*
X110680571Y-87510952D01*
X110632952Y-87558571D01*
X110585333Y-87653809D01*
X110585333Y-87891904D01*
X110632952Y-87987142D01*
X110680571Y-88034761D01*
X110775809Y-88082380D01*
X111061523Y-88082380D01*
X111156761Y-88034761D01*
X111204380Y-87987142D01*
G04 #@! TO.C,J8*
X48593333Y-86828380D02*
X48593333Y-87542666D01*
X48640952Y-87685523D01*
X48736190Y-87780761D01*
X48879047Y-87828380D01*
X48974285Y-87828380D01*
X47974285Y-87256952D02*
X48069523Y-87209333D01*
X48117142Y-87161714D01*
X48164761Y-87066476D01*
X48164761Y-87018857D01*
X48117142Y-86923619D01*
X48069523Y-86876000D01*
X47974285Y-86828380D01*
X47783809Y-86828380D01*
X47688571Y-86876000D01*
X47640952Y-86923619D01*
X47593333Y-87018857D01*
X47593333Y-87066476D01*
X47640952Y-87161714D01*
X47688571Y-87209333D01*
X47783809Y-87256952D01*
X47974285Y-87256952D01*
X48069523Y-87304571D01*
X48117142Y-87352190D01*
X48164761Y-87447428D01*
X48164761Y-87637904D01*
X48117142Y-87733142D01*
X48069523Y-87780761D01*
X47974285Y-87828380D01*
X47783809Y-87828380D01*
X47688571Y-87780761D01*
X47640952Y-87733142D01*
X47593333Y-87637904D01*
X47593333Y-87447428D01*
X47640952Y-87352190D01*
X47688571Y-87304571D01*
X47783809Y-87256952D01*
G04 #@! TO.C,J7*
X61039333Y-87082380D02*
X61039333Y-87796666D01*
X61086952Y-87939523D01*
X61182190Y-88034761D01*
X61325047Y-88082380D01*
X61420285Y-88082380D01*
X60658380Y-87082380D02*
X59991714Y-87082380D01*
X60420285Y-88082380D01*
G04 #@! TO.C,J6*
X73993333Y-86828380D02*
X73993333Y-87542666D01*
X74040952Y-87685523D01*
X74136190Y-87780761D01*
X74279047Y-87828380D01*
X74374285Y-87828380D01*
X73088571Y-86828380D02*
X73279047Y-86828380D01*
X73374285Y-86876000D01*
X73421904Y-86923619D01*
X73517142Y-87066476D01*
X73564761Y-87256952D01*
X73564761Y-87637904D01*
X73517142Y-87733142D01*
X73469523Y-87780761D01*
X73374285Y-87828380D01*
X73183809Y-87828380D01*
X73088571Y-87780761D01*
X73040952Y-87733142D01*
X72993333Y-87637904D01*
X72993333Y-87399809D01*
X73040952Y-87304571D01*
X73088571Y-87256952D01*
X73183809Y-87209333D01*
X73374285Y-87209333D01*
X73469523Y-87256952D01*
X73517142Y-87304571D01*
X73564761Y-87399809D01*
G04 #@! TO.C,J5*
X86693333Y-87082380D02*
X86693333Y-87796666D01*
X86740952Y-87939523D01*
X86836190Y-88034761D01*
X86979047Y-88082380D01*
X87074285Y-88082380D01*
X85740952Y-87082380D02*
X86217142Y-87082380D01*
X86264761Y-87558571D01*
X86217142Y-87510952D01*
X86121904Y-87463333D01*
X85883809Y-87463333D01*
X85788571Y-87510952D01*
X85740952Y-87558571D01*
X85693333Y-87653809D01*
X85693333Y-87891904D01*
X85740952Y-87987142D01*
X85788571Y-88034761D01*
X85883809Y-88082380D01*
X86121904Y-88082380D01*
X86217142Y-88034761D01*
X86264761Y-87987142D01*
G04 #@! TO.C,J2*
X124539333Y-87336380D02*
X124539333Y-88050666D01*
X124586952Y-88193523D01*
X124682190Y-88288761D01*
X124825047Y-88336380D01*
X124920285Y-88336380D01*
X124110761Y-87431619D02*
X124063142Y-87384000D01*
X123967904Y-87336380D01*
X123729809Y-87336380D01*
X123634571Y-87384000D01*
X123586952Y-87431619D01*
X123539333Y-87526857D01*
X123539333Y-87622095D01*
X123586952Y-87764952D01*
X124158380Y-88336380D01*
X123539333Y-88336380D01*
G04 #@! TO.C,J1*
X137493333Y-87082380D02*
X137493333Y-87796666D01*
X137540952Y-87939523D01*
X137636190Y-88034761D01*
X137779047Y-88082380D01*
X137874285Y-88082380D01*
X136493333Y-88082380D02*
X137064761Y-88082380D01*
X136779047Y-88082380D02*
X136779047Y-87082380D01*
X136874285Y-87225238D01*
X136969523Y-87320476D01*
X137064761Y-87368095D01*
G04 #@! TO.C,J11*
X132889523Y-57364380D02*
X132889523Y-58078666D01*
X132937142Y-58221523D01*
X133032380Y-58316761D01*
X133175238Y-58364380D01*
X133270476Y-58364380D01*
X131889523Y-58364380D02*
X132460952Y-58364380D01*
X132175238Y-58364380D02*
X132175238Y-57364380D01*
X132270476Y-57507238D01*
X132365714Y-57602476D01*
X132460952Y-57650095D01*
X130937142Y-58364380D02*
X131508571Y-58364380D01*
X131222857Y-58364380D02*
X131222857Y-57364380D01*
X131318095Y-57507238D01*
X131413333Y-57602476D01*
X131508571Y-57650095D01*
G04 #@! TO.C,J10*
X132635523Y-66508380D02*
X132635523Y-67222666D01*
X132683142Y-67365523D01*
X132778380Y-67460761D01*
X132921238Y-67508380D01*
X133016476Y-67508380D01*
X131635523Y-67508380D02*
X132206952Y-67508380D01*
X131921238Y-67508380D02*
X131921238Y-66508380D01*
X132016476Y-66651238D01*
X132111714Y-66746476D01*
X132206952Y-66794095D01*
X131016476Y-66508380D02*
X130921238Y-66508380D01*
X130826000Y-66556000D01*
X130778380Y-66603619D01*
X130730761Y-66698857D01*
X130683142Y-66889333D01*
X130683142Y-67127428D01*
X130730761Y-67317904D01*
X130778380Y-67413142D01*
X130826000Y-67460761D01*
X130921238Y-67508380D01*
X131016476Y-67508380D01*
X131111714Y-67460761D01*
X131159333Y-67413142D01*
X131206952Y-67317904D01*
X131254571Y-67127428D01*
X131254571Y-66889333D01*
X131206952Y-66698857D01*
X131159333Y-66603619D01*
X131111714Y-66556000D01*
X131016476Y-66508380D01*
G04 #@! TO.C,J4*
X98885333Y-87082380D02*
X98885333Y-87796666D01*
X98932952Y-87939523D01*
X99028190Y-88034761D01*
X99171047Y-88082380D01*
X99266285Y-88082380D01*
X97980571Y-87415714D02*
X97980571Y-88082380D01*
X98218666Y-87034761D02*
X98456761Y-87749047D01*
X97837714Y-87749047D01*
G04 #@! TO.C,J9*
X132413333Y-37044380D02*
X132413333Y-37758666D01*
X132460952Y-37901523D01*
X132556190Y-37996761D01*
X132699047Y-38044380D01*
X132794285Y-38044380D01*
X131889523Y-38044380D02*
X131699047Y-38044380D01*
X131603809Y-37996761D01*
X131556190Y-37949142D01*
X131460952Y-37806285D01*
X131413333Y-37615809D01*
X131413333Y-37234857D01*
X131460952Y-37139619D01*
X131508571Y-37092000D01*
X131603809Y-37044380D01*
X131794285Y-37044380D01*
X131889523Y-37092000D01*
X131937142Y-37139619D01*
X131984761Y-37234857D01*
X131984761Y-37472952D01*
X131937142Y-37568190D01*
X131889523Y-37615809D01*
X131794285Y-37663428D01*
X131603809Y-37663428D01*
X131508571Y-37615809D01*
X131460952Y-37568190D01*
X131413333Y-37472952D01*
G04 #@! TO.C,U1*
X118363904Y-44664380D02*
X118363904Y-45473904D01*
X118316285Y-45569142D01*
X118268666Y-45616761D01*
X118173428Y-45664380D01*
X117982952Y-45664380D01*
X117887714Y-45616761D01*
X117840095Y-45569142D01*
X117792476Y-45473904D01*
X117792476Y-44664380D01*
X116792476Y-45664380D02*
X117363904Y-45664380D01*
X117078190Y-45664380D02*
X117078190Y-44664380D01*
X117173428Y-44807238D01*
X117268666Y-44902476D01*
X117363904Y-44950095D01*
G04 #@! TO.C,R6*
X76874666Y-72334380D02*
X77208000Y-71858190D01*
X77446095Y-72334380D02*
X77446095Y-71334380D01*
X77065142Y-71334380D01*
X76969904Y-71382000D01*
X76922285Y-71429619D01*
X76874666Y-71524857D01*
X76874666Y-71667714D01*
X76922285Y-71762952D01*
X76969904Y-71810571D01*
X77065142Y-71858190D01*
X77446095Y-71858190D01*
X76017523Y-71334380D02*
X76208000Y-71334380D01*
X76303238Y-71382000D01*
X76350857Y-71429619D01*
X76446095Y-71572476D01*
X76493714Y-71762952D01*
X76493714Y-72143904D01*
X76446095Y-72239142D01*
X76398476Y-72286761D01*
X76303238Y-72334380D01*
X76112761Y-72334380D01*
X76017523Y-72286761D01*
X75969904Y-72239142D01*
X75922285Y-72143904D01*
X75922285Y-71905809D01*
X75969904Y-71810571D01*
X76017523Y-71762952D01*
X76112761Y-71715333D01*
X76303238Y-71715333D01*
X76398476Y-71762952D01*
X76446095Y-71810571D01*
X76493714Y-71905809D01*
G04 #@! TO.C,R12*
X127388857Y-60142380D02*
X127722190Y-59666190D01*
X127960285Y-60142380D02*
X127960285Y-59142380D01*
X127579333Y-59142380D01*
X127484095Y-59190000D01*
X127436476Y-59237619D01*
X127388857Y-59332857D01*
X127388857Y-59475714D01*
X127436476Y-59570952D01*
X127484095Y-59618571D01*
X127579333Y-59666190D01*
X127960285Y-59666190D01*
X126436476Y-60142380D02*
X127007904Y-60142380D01*
X126722190Y-60142380D02*
X126722190Y-59142380D01*
X126817428Y-59285238D01*
X126912666Y-59380476D01*
X127007904Y-59428095D01*
X126055523Y-59237619D02*
X126007904Y-59190000D01*
X125912666Y-59142380D01*
X125674571Y-59142380D01*
X125579333Y-59190000D01*
X125531714Y-59237619D01*
X125484095Y-59332857D01*
X125484095Y-59428095D01*
X125531714Y-59570952D01*
X126103142Y-60142380D01*
X125484095Y-60142380D01*
G04 #@! TO.C,R11*
X127388857Y-56078380D02*
X127722190Y-55602190D01*
X127960285Y-56078380D02*
X127960285Y-55078380D01*
X127579333Y-55078380D01*
X127484095Y-55126000D01*
X127436476Y-55173619D01*
X127388857Y-55268857D01*
X127388857Y-55411714D01*
X127436476Y-55506952D01*
X127484095Y-55554571D01*
X127579333Y-55602190D01*
X127960285Y-55602190D01*
X126436476Y-56078380D02*
X127007904Y-56078380D01*
X126722190Y-56078380D02*
X126722190Y-55078380D01*
X126817428Y-55221238D01*
X126912666Y-55316476D01*
X127007904Y-55364095D01*
X125484095Y-56078380D02*
X126055523Y-56078380D01*
X125769809Y-56078380D02*
X125769809Y-55078380D01*
X125865047Y-55221238D01*
X125960285Y-55316476D01*
X126055523Y-55364095D01*
G04 #@! TO.C,R10*
X129674857Y-48458380D02*
X130008190Y-47982190D01*
X130246285Y-48458380D02*
X130246285Y-47458380D01*
X129865333Y-47458380D01*
X129770095Y-47506000D01*
X129722476Y-47553619D01*
X129674857Y-47648857D01*
X129674857Y-47791714D01*
X129722476Y-47886952D01*
X129770095Y-47934571D01*
X129865333Y-47982190D01*
X130246285Y-47982190D01*
X128722476Y-48458380D02*
X129293904Y-48458380D01*
X129008190Y-48458380D02*
X129008190Y-47458380D01*
X129103428Y-47601238D01*
X129198666Y-47696476D01*
X129293904Y-47744095D01*
X128103428Y-47458380D02*
X128008190Y-47458380D01*
X127912952Y-47506000D01*
X127865333Y-47553619D01*
X127817714Y-47648857D01*
X127770095Y-47839333D01*
X127770095Y-48077428D01*
X127817714Y-48267904D01*
X127865333Y-48363142D01*
X127912952Y-48410761D01*
X128008190Y-48458380D01*
X128103428Y-48458380D01*
X128198666Y-48410761D01*
X128246285Y-48363142D01*
X128293904Y-48267904D01*
X128341523Y-48077428D01*
X128341523Y-47839333D01*
X128293904Y-47648857D01*
X128246285Y-47553619D01*
X128198666Y-47506000D01*
X128103428Y-47458380D01*
G04 #@! TO.C,R9*
X120308666Y-52268380D02*
X120642000Y-51792190D01*
X120880095Y-52268380D02*
X120880095Y-51268380D01*
X120499142Y-51268380D01*
X120403904Y-51316000D01*
X120356285Y-51363619D01*
X120308666Y-51458857D01*
X120308666Y-51601714D01*
X120356285Y-51696952D01*
X120403904Y-51744571D01*
X120499142Y-51792190D01*
X120880095Y-51792190D01*
X119832476Y-52268380D02*
X119642000Y-52268380D01*
X119546761Y-52220761D01*
X119499142Y-52173142D01*
X119403904Y-52030285D01*
X119356285Y-51839809D01*
X119356285Y-51458857D01*
X119403904Y-51363619D01*
X119451523Y-51316000D01*
X119546761Y-51268380D01*
X119737238Y-51268380D01*
X119832476Y-51316000D01*
X119880095Y-51363619D01*
X119927714Y-51458857D01*
X119927714Y-51696952D01*
X119880095Y-51792190D01*
X119832476Y-51839809D01*
X119737238Y-51887428D01*
X119546761Y-51887428D01*
X119451523Y-51839809D01*
X119403904Y-51792190D01*
X119356285Y-51696952D01*
G04 #@! TO.C,R7*
X64174666Y-72334380D02*
X64508000Y-71858190D01*
X64746095Y-72334380D02*
X64746095Y-71334380D01*
X64365142Y-71334380D01*
X64269904Y-71382000D01*
X64222285Y-71429619D01*
X64174666Y-71524857D01*
X64174666Y-71667714D01*
X64222285Y-71762952D01*
X64269904Y-71810571D01*
X64365142Y-71858190D01*
X64746095Y-71858190D01*
X63841333Y-71334380D02*
X63174666Y-71334380D01*
X63603238Y-72334380D01*
G04 #@! TO.C,R5*
X89574666Y-72334380D02*
X89908000Y-71858190D01*
X90146095Y-72334380D02*
X90146095Y-71334380D01*
X89765142Y-71334380D01*
X89669904Y-71382000D01*
X89622285Y-71429619D01*
X89574666Y-71524857D01*
X89574666Y-71667714D01*
X89622285Y-71762952D01*
X89669904Y-71810571D01*
X89765142Y-71858190D01*
X90146095Y-71858190D01*
X88669904Y-71334380D02*
X89146095Y-71334380D01*
X89193714Y-71810571D01*
X89146095Y-71762952D01*
X89050857Y-71715333D01*
X88812761Y-71715333D01*
X88717523Y-71762952D01*
X88669904Y-71810571D01*
X88622285Y-71905809D01*
X88622285Y-72143904D01*
X88669904Y-72239142D01*
X88717523Y-72286761D01*
X88812761Y-72334380D01*
X89050857Y-72334380D01*
X89146095Y-72286761D01*
X89193714Y-72239142D01*
G04 #@! TO.C,R4*
X102020666Y-72334380D02*
X102354000Y-71858190D01*
X102592095Y-72334380D02*
X102592095Y-71334380D01*
X102211142Y-71334380D01*
X102115904Y-71382000D01*
X102068285Y-71429619D01*
X102020666Y-71524857D01*
X102020666Y-71667714D01*
X102068285Y-71762952D01*
X102115904Y-71810571D01*
X102211142Y-71858190D01*
X102592095Y-71858190D01*
X101163523Y-71667714D02*
X101163523Y-72334380D01*
X101401619Y-71286761D02*
X101639714Y-72001047D01*
X101020666Y-72001047D01*
G04 #@! TO.C,R3*
X114974666Y-72334380D02*
X115308000Y-71858190D01*
X115546095Y-72334380D02*
X115546095Y-71334380D01*
X115165142Y-71334380D01*
X115069904Y-71382000D01*
X115022285Y-71429619D01*
X114974666Y-71524857D01*
X114974666Y-71667714D01*
X115022285Y-71762952D01*
X115069904Y-71810571D01*
X115165142Y-71858190D01*
X115546095Y-71858190D01*
X114641333Y-71334380D02*
X114022285Y-71334380D01*
X114355619Y-71715333D01*
X114212761Y-71715333D01*
X114117523Y-71762952D01*
X114069904Y-71810571D01*
X114022285Y-71905809D01*
X114022285Y-72143904D01*
X114069904Y-72239142D01*
X114117523Y-72286761D01*
X114212761Y-72334380D01*
X114498476Y-72334380D01*
X114593714Y-72286761D01*
X114641333Y-72239142D01*
G04 #@! TO.C,R2*
X127420666Y-72334380D02*
X127754000Y-71858190D01*
X127992095Y-72334380D02*
X127992095Y-71334380D01*
X127611142Y-71334380D01*
X127515904Y-71382000D01*
X127468285Y-71429619D01*
X127420666Y-71524857D01*
X127420666Y-71667714D01*
X127468285Y-71762952D01*
X127515904Y-71810571D01*
X127611142Y-71858190D01*
X127992095Y-71858190D01*
X127039714Y-71429619D02*
X126992095Y-71382000D01*
X126896857Y-71334380D01*
X126658761Y-71334380D01*
X126563523Y-71382000D01*
X126515904Y-71429619D01*
X126468285Y-71524857D01*
X126468285Y-71620095D01*
X126515904Y-71762952D01*
X127087333Y-72334380D01*
X126468285Y-72334380D01*
G04 #@! TO.C,R1*
X140374666Y-72334380D02*
X140708000Y-71858190D01*
X140946095Y-72334380D02*
X140946095Y-71334380D01*
X140565142Y-71334380D01*
X140469904Y-71382000D01*
X140422285Y-71429619D01*
X140374666Y-71524857D01*
X140374666Y-71667714D01*
X140422285Y-71762952D01*
X140469904Y-71810571D01*
X140565142Y-71858190D01*
X140946095Y-71858190D01*
X139422285Y-72334380D02*
X139993714Y-72334380D01*
X139708000Y-72334380D02*
X139708000Y-71334380D01*
X139803238Y-71477238D01*
X139898476Y-71572476D01*
X139993714Y-71620095D01*
G04 #@! TO.C,R8*
X51220666Y-72334380D02*
X51554000Y-71858190D01*
X51792095Y-72334380D02*
X51792095Y-71334380D01*
X51411142Y-71334380D01*
X51315904Y-71382000D01*
X51268285Y-71429619D01*
X51220666Y-71524857D01*
X51220666Y-71667714D01*
X51268285Y-71762952D01*
X51315904Y-71810571D01*
X51411142Y-71858190D01*
X51792095Y-71858190D01*
X50649238Y-71762952D02*
X50744476Y-71715333D01*
X50792095Y-71667714D01*
X50839714Y-71572476D01*
X50839714Y-71524857D01*
X50792095Y-71429619D01*
X50744476Y-71382000D01*
X50649238Y-71334380D01*
X50458761Y-71334380D01*
X50363523Y-71382000D01*
X50315904Y-71429619D01*
X50268285Y-71524857D01*
X50268285Y-71572476D01*
X50315904Y-71667714D01*
X50363523Y-71715333D01*
X50458761Y-71762952D01*
X50649238Y-71762952D01*
X50744476Y-71810571D01*
X50792095Y-71858190D01*
X50839714Y-71953428D01*
X50839714Y-72143904D01*
X50792095Y-72239142D01*
X50744476Y-72286761D01*
X50649238Y-72334380D01*
X50458761Y-72334380D01*
X50363523Y-72286761D01*
X50315904Y-72239142D01*
X50268285Y-72143904D01*
X50268285Y-71953428D01*
X50315904Y-71858190D01*
X50363523Y-71810571D01*
X50458761Y-71762952D01*
G04 #@! TD*
M02*
