M48
;DRILL file {KiCad (5.0.0)} date 07/30/18 10:59:53
;FORMAT={-:-/ absolute / inch / decimal}
FMAT,2
INCH,TZ
T1C0.0374
T2C0.0394
T3C0.0472
T4C0.0669
%
G90
G05
M72
T1
X4.34Y-1.3
X4.34Y-1.3984
X4.34Y-1.4969
X5.35Y-1.64
X5.35Y-1.7384
X5.35Y-1.8369
T2
X4.0416Y-3.32
X4.14Y-3.32
X2.5516Y-3.32
X2.65Y-3.32
X3.5516Y-3.32
X3.65Y-3.32
X5.5616Y-3.32
X5.66Y-3.32
X5.35Y-2.4616
X5.35Y-2.56
X2.0516Y-3.32
X2.15Y-3.32
X5.35Y-1.2916
X5.35Y-1.39
X3.0516Y-3.32
X3.15Y-3.32
X5.0516Y-3.33
X5.15Y-3.33
X5.35Y-2.1016
X5.35Y-2.2
X4.5416Y-3.32
X4.64Y-3.32
T3
X3.0311Y-0.8484
X3.0311Y-3.1516
X3.1689Y-3.1516
X5.0311Y-0.8484
X5.0311Y-3.1516
X5.1689Y-3.1516
X2.5311Y-0.8484
X2.5311Y-3.1516
X2.6689Y-3.1516
X3.5311Y-0.8484
X3.5311Y-3.1516
X3.6689Y-3.1516
X5.5311Y-0.8484
X5.5311Y-3.1516
X5.6689Y-3.1516
X4.5311Y-0.8484
X4.5311Y-3.1516
X4.6689Y-3.1516
X4.03Y-0.8469
X4.03Y-3.15
X4.1678Y-3.15
X2.0311Y-0.8484
X2.0311Y-3.1516
X2.1689Y-3.1516
T4
X3.4346Y-1.0591
X3.4346Y-2.9409
X3.7654Y-1.0118
X3.7654Y-2.9882
X5.4346Y-1.0591
X5.4346Y-2.9409
X5.7654Y-1.0118
X5.7654Y-2.9882
X4.4346Y-1.0591
X4.4346Y-2.9409
X4.7654Y-1.0118
X4.7654Y-2.9882
X3.9335Y-1.0575
X3.9335Y-2.9394
X4.2643Y-1.0102
X4.2643Y-2.9866
X1.9346Y-1.0591
X1.9346Y-2.9409
X2.2654Y-1.0118
X2.2654Y-2.9882
X2.9346Y-1.0591
X2.9346Y-2.9409
X3.2654Y-1.0118
X3.2654Y-2.9882
X4.9346Y-1.0591
X4.9346Y-2.9409
X5.2654Y-1.0118
X5.2654Y-2.9882
X2.4346Y-1.0591
X2.4346Y-2.9409
X2.7654Y-1.0118
X2.7654Y-2.9882
T0
M30
