G04 #@! TF.GenerationSoftware,KiCad,Pcbnew,(5.0.0)*
G04 #@! TF.CreationDate,2018-07-30T10:59:50+01:00*
G04 #@! TF.ProjectId,Mixer,4D697865722E6B696361645F70636200,rev?*
G04 #@! TF.SameCoordinates,Original*
G04 #@! TF.FileFunction,Soldermask,Top*
G04 #@! TF.FilePolarity,Negative*
%FSLAX46Y46*%
G04 Gerber Fmt 4.6, Leading zero omitted, Abs format (unit mm)*
G04 Created by KiCad (PCBNEW (5.0.0)) date 07/30/18 10:59:50*
%MOMM*%
%LPD*%
G01*
G04 APERTURE LIST*
%ADD10R,2.350000X2.100000*%
%ADD11O,2.350000X2.100000*%
%ADD12O,2.100000X2.400000*%
%ADD13R,2.100000X2.400000*%
%ADD14O,2.400000X2.100000*%
%ADD15R,2.400000X2.100000*%
%ADD16C,3.100000*%
%ADD17C,2.600000*%
G04 APERTURE END LIST*
D10*
G04 #@! TO.C,J12*
X110236000Y-33020000D03*
D11*
X110236000Y-35520000D03*
X110236000Y-38020000D03*
G04 #@! TD*
D10*
G04 #@! TO.C,RV9*
X135890000Y-41656000D03*
D11*
X135890000Y-44156000D03*
X135890000Y-46656000D03*
G04 #@! TD*
D12*
G04 #@! TO.C,J3*
X115356000Y-84328000D03*
D13*
X117856000Y-84328000D03*
G04 #@! TD*
D12*
G04 #@! TO.C,J8*
X52110000Y-84328000D03*
D13*
X54610000Y-84328000D03*
G04 #@! TD*
G04 #@! TO.C,J7*
X67310000Y-84328000D03*
D12*
X64810000Y-84328000D03*
G04 #@! TD*
G04 #@! TO.C,J6*
X77510000Y-84328000D03*
D13*
X80010000Y-84328000D03*
G04 #@! TD*
G04 #@! TO.C,J5*
X92710000Y-84328000D03*
D12*
X90210000Y-84328000D03*
G04 #@! TD*
G04 #@! TO.C,J2*
X128310000Y-84582000D03*
D13*
X130810000Y-84582000D03*
G04 #@! TD*
G04 #@! TO.C,J1*
X143764000Y-84328000D03*
D12*
X141264000Y-84328000D03*
G04 #@! TD*
D14*
G04 #@! TO.C,J11*
X135890000Y-55880000D03*
D15*
X135890000Y-53380000D03*
G04 #@! TD*
G04 #@! TO.C,J10*
X135890000Y-62524000D03*
D14*
X135890000Y-65024000D03*
G04 #@! TD*
D12*
G04 #@! TO.C,J4*
X102656000Y-84328000D03*
D13*
X105156000Y-84328000D03*
G04 #@! TD*
D15*
G04 #@! TO.C,J9*
X135890000Y-32806000D03*
D14*
X135890000Y-35306000D03*
G04 #@! TD*
D16*
G04 #@! TO.C,RV7*
X70240000Y-25700000D03*
X70240000Y-75900000D03*
X61840000Y-26900000D03*
X61840000Y-74700000D03*
D17*
X64290000Y-21550000D03*
X67790000Y-80050000D03*
X64290000Y-80050000D03*
G04 #@! TD*
G04 #@! TO.C,RV8*
X51590000Y-80050000D03*
X55090000Y-80050000D03*
X51590000Y-21550000D03*
D16*
X49140000Y-74700000D03*
X49140000Y-26900000D03*
X57540000Y-75900000D03*
X57540000Y-25700000D03*
G04 #@! TD*
D17*
G04 #@! TO.C,RV1*
X140490000Y-80050000D03*
X143990000Y-80050000D03*
X140490000Y-21550000D03*
D16*
X138040000Y-74700000D03*
X138040000Y-26900000D03*
X146440000Y-75900000D03*
X146440000Y-25700000D03*
G04 #@! TD*
D17*
G04 #@! TO.C,RV2*
X127790000Y-80050000D03*
X131290000Y-80050000D03*
X127790000Y-21550000D03*
D16*
X125340000Y-74700000D03*
X125340000Y-26900000D03*
X133740000Y-75900000D03*
X133740000Y-25700000D03*
G04 #@! TD*
G04 #@! TO.C,RV3*
X121040000Y-25700000D03*
X121040000Y-75900000D03*
X112640000Y-26900000D03*
X112640000Y-74700000D03*
D17*
X115090000Y-21550000D03*
X118590000Y-80050000D03*
X115090000Y-80050000D03*
G04 #@! TD*
G04 #@! TO.C,RV4*
X102362000Y-80010000D03*
X105862000Y-80010000D03*
X102362000Y-21510000D03*
D16*
X99912000Y-74660000D03*
X99912000Y-26860000D03*
X108312000Y-75860000D03*
X108312000Y-25660000D03*
G04 #@! TD*
G04 #@! TO.C,RV5*
X95640000Y-25700000D03*
X95640000Y-75900000D03*
X87240000Y-26900000D03*
X87240000Y-74700000D03*
D17*
X89690000Y-21550000D03*
X93190000Y-80050000D03*
X89690000Y-80050000D03*
G04 #@! TD*
G04 #@! TO.C,RV6*
X76990000Y-80050000D03*
X80490000Y-80050000D03*
X76990000Y-21550000D03*
D16*
X74540000Y-74700000D03*
X74540000Y-26900000D03*
X82940000Y-75900000D03*
X82940000Y-25700000D03*
G04 #@! TD*
M02*
