G04 #@! TF.GenerationSoftware,KiCad,Pcbnew,(5.0.0)*
G04 #@! TF.CreationDate,2018-07-30T10:59:50+01:00*
G04 #@! TF.ProjectId,Mixer,4D697865722E6B696361645F70636200,rev?*
G04 #@! TF.SameCoordinates,Original*
G04 #@! TF.FileFunction,Paste,Bot*
G04 #@! TF.FilePolarity,Positive*
%FSLAX46Y46*%
G04 Gerber Fmt 4.6, Leading zero omitted, Abs format (unit mm)*
G04 Created by KiCad (PCBNEW (5.0.0)) date 07/30/18 10:59:50*
%MOMM*%
%LPD*%
G01*
G04 APERTURE LIST*
%ADD10C,0.100000*%
%ADD11C,1.150000*%
%ADD12R,0.600000X1.550000*%
G04 APERTURE END LIST*
D10*
G04 #@! TO.C,R13*
G36*
X131538505Y-32700204D02*
X131562773Y-32703804D01*
X131586572Y-32709765D01*
X131609671Y-32718030D01*
X131631850Y-32728520D01*
X131652893Y-32741132D01*
X131672599Y-32755747D01*
X131690777Y-32772223D01*
X131707253Y-32790401D01*
X131721868Y-32810107D01*
X131734480Y-32831150D01*
X131744970Y-32853329D01*
X131753235Y-32876428D01*
X131759196Y-32900227D01*
X131762796Y-32924495D01*
X131764000Y-32948999D01*
X131764000Y-33599001D01*
X131762796Y-33623505D01*
X131759196Y-33647773D01*
X131753235Y-33671572D01*
X131744970Y-33694671D01*
X131734480Y-33716850D01*
X131721868Y-33737893D01*
X131707253Y-33757599D01*
X131690777Y-33775777D01*
X131672599Y-33792253D01*
X131652893Y-33806868D01*
X131631850Y-33819480D01*
X131609671Y-33829970D01*
X131586572Y-33838235D01*
X131562773Y-33844196D01*
X131538505Y-33847796D01*
X131514001Y-33849000D01*
X130613999Y-33849000D01*
X130589495Y-33847796D01*
X130565227Y-33844196D01*
X130541428Y-33838235D01*
X130518329Y-33829970D01*
X130496150Y-33819480D01*
X130475107Y-33806868D01*
X130455401Y-33792253D01*
X130437223Y-33775777D01*
X130420747Y-33757599D01*
X130406132Y-33737893D01*
X130393520Y-33716850D01*
X130383030Y-33694671D01*
X130374765Y-33671572D01*
X130368804Y-33647773D01*
X130365204Y-33623505D01*
X130364000Y-33599001D01*
X130364000Y-32948999D01*
X130365204Y-32924495D01*
X130368804Y-32900227D01*
X130374765Y-32876428D01*
X130383030Y-32853329D01*
X130393520Y-32831150D01*
X130406132Y-32810107D01*
X130420747Y-32790401D01*
X130437223Y-32772223D01*
X130455401Y-32755747D01*
X130475107Y-32741132D01*
X130496150Y-32728520D01*
X130518329Y-32718030D01*
X130541428Y-32709765D01*
X130565227Y-32703804D01*
X130589495Y-32700204D01*
X130613999Y-32699000D01*
X131514001Y-32699000D01*
X131538505Y-32700204D01*
X131538505Y-32700204D01*
G37*
D11*
X131064000Y-33274000D03*
D10*
G36*
X131538505Y-34750204D02*
X131562773Y-34753804D01*
X131586572Y-34759765D01*
X131609671Y-34768030D01*
X131631850Y-34778520D01*
X131652893Y-34791132D01*
X131672599Y-34805747D01*
X131690777Y-34822223D01*
X131707253Y-34840401D01*
X131721868Y-34860107D01*
X131734480Y-34881150D01*
X131744970Y-34903329D01*
X131753235Y-34926428D01*
X131759196Y-34950227D01*
X131762796Y-34974495D01*
X131764000Y-34998999D01*
X131764000Y-35649001D01*
X131762796Y-35673505D01*
X131759196Y-35697773D01*
X131753235Y-35721572D01*
X131744970Y-35744671D01*
X131734480Y-35766850D01*
X131721868Y-35787893D01*
X131707253Y-35807599D01*
X131690777Y-35825777D01*
X131672599Y-35842253D01*
X131652893Y-35856868D01*
X131631850Y-35869480D01*
X131609671Y-35879970D01*
X131586572Y-35888235D01*
X131562773Y-35894196D01*
X131538505Y-35897796D01*
X131514001Y-35899000D01*
X130613999Y-35899000D01*
X130589495Y-35897796D01*
X130565227Y-35894196D01*
X130541428Y-35888235D01*
X130518329Y-35879970D01*
X130496150Y-35869480D01*
X130475107Y-35856868D01*
X130455401Y-35842253D01*
X130437223Y-35825777D01*
X130420747Y-35807599D01*
X130406132Y-35787893D01*
X130393520Y-35766850D01*
X130383030Y-35744671D01*
X130374765Y-35721572D01*
X130368804Y-35697773D01*
X130365204Y-35673505D01*
X130364000Y-35649001D01*
X130364000Y-34998999D01*
X130365204Y-34974495D01*
X130368804Y-34950227D01*
X130374765Y-34926428D01*
X130383030Y-34903329D01*
X130393520Y-34881150D01*
X130406132Y-34860107D01*
X130420747Y-34840401D01*
X130437223Y-34822223D01*
X130455401Y-34805747D01*
X130475107Y-34791132D01*
X130496150Y-34778520D01*
X130518329Y-34768030D01*
X130541428Y-34759765D01*
X130565227Y-34753804D01*
X130589495Y-34750204D01*
X130613999Y-34749000D01*
X131514001Y-34749000D01*
X131538505Y-34750204D01*
X131538505Y-34750204D01*
G37*
D11*
X131064000Y-35324000D03*
G04 #@! TD*
D10*
G04 #@! TO.C,C16*
G36*
X101312505Y-34986204D02*
X101336773Y-34989804D01*
X101360572Y-34995765D01*
X101383671Y-35004030D01*
X101405850Y-35014520D01*
X101426893Y-35027132D01*
X101446599Y-35041747D01*
X101464777Y-35058223D01*
X101481253Y-35076401D01*
X101495868Y-35096107D01*
X101508480Y-35117150D01*
X101518970Y-35139329D01*
X101527235Y-35162428D01*
X101533196Y-35186227D01*
X101536796Y-35210495D01*
X101538000Y-35234999D01*
X101538000Y-35885001D01*
X101536796Y-35909505D01*
X101533196Y-35933773D01*
X101527235Y-35957572D01*
X101518970Y-35980671D01*
X101508480Y-36002850D01*
X101495868Y-36023893D01*
X101481253Y-36043599D01*
X101464777Y-36061777D01*
X101446599Y-36078253D01*
X101426893Y-36092868D01*
X101405850Y-36105480D01*
X101383671Y-36115970D01*
X101360572Y-36124235D01*
X101336773Y-36130196D01*
X101312505Y-36133796D01*
X101288001Y-36135000D01*
X100387999Y-36135000D01*
X100363495Y-36133796D01*
X100339227Y-36130196D01*
X100315428Y-36124235D01*
X100292329Y-36115970D01*
X100270150Y-36105480D01*
X100249107Y-36092868D01*
X100229401Y-36078253D01*
X100211223Y-36061777D01*
X100194747Y-36043599D01*
X100180132Y-36023893D01*
X100167520Y-36002850D01*
X100157030Y-35980671D01*
X100148765Y-35957572D01*
X100142804Y-35933773D01*
X100139204Y-35909505D01*
X100138000Y-35885001D01*
X100138000Y-35234999D01*
X100139204Y-35210495D01*
X100142804Y-35186227D01*
X100148765Y-35162428D01*
X100157030Y-35139329D01*
X100167520Y-35117150D01*
X100180132Y-35096107D01*
X100194747Y-35076401D01*
X100211223Y-35058223D01*
X100229401Y-35041747D01*
X100249107Y-35027132D01*
X100270150Y-35014520D01*
X100292329Y-35004030D01*
X100315428Y-34995765D01*
X100339227Y-34989804D01*
X100363495Y-34986204D01*
X100387999Y-34985000D01*
X101288001Y-34985000D01*
X101312505Y-34986204D01*
X101312505Y-34986204D01*
G37*
D11*
X100838000Y-35560000D03*
D10*
G36*
X101312505Y-32936204D02*
X101336773Y-32939804D01*
X101360572Y-32945765D01*
X101383671Y-32954030D01*
X101405850Y-32964520D01*
X101426893Y-32977132D01*
X101446599Y-32991747D01*
X101464777Y-33008223D01*
X101481253Y-33026401D01*
X101495868Y-33046107D01*
X101508480Y-33067150D01*
X101518970Y-33089329D01*
X101527235Y-33112428D01*
X101533196Y-33136227D01*
X101536796Y-33160495D01*
X101538000Y-33184999D01*
X101538000Y-33835001D01*
X101536796Y-33859505D01*
X101533196Y-33883773D01*
X101527235Y-33907572D01*
X101518970Y-33930671D01*
X101508480Y-33952850D01*
X101495868Y-33973893D01*
X101481253Y-33993599D01*
X101464777Y-34011777D01*
X101446599Y-34028253D01*
X101426893Y-34042868D01*
X101405850Y-34055480D01*
X101383671Y-34065970D01*
X101360572Y-34074235D01*
X101336773Y-34080196D01*
X101312505Y-34083796D01*
X101288001Y-34085000D01*
X100387999Y-34085000D01*
X100363495Y-34083796D01*
X100339227Y-34080196D01*
X100315428Y-34074235D01*
X100292329Y-34065970D01*
X100270150Y-34055480D01*
X100249107Y-34042868D01*
X100229401Y-34028253D01*
X100211223Y-34011777D01*
X100194747Y-33993599D01*
X100180132Y-33973893D01*
X100167520Y-33952850D01*
X100157030Y-33930671D01*
X100148765Y-33907572D01*
X100142804Y-33883773D01*
X100139204Y-33859505D01*
X100138000Y-33835001D01*
X100138000Y-33184999D01*
X100139204Y-33160495D01*
X100142804Y-33136227D01*
X100148765Y-33112428D01*
X100157030Y-33089329D01*
X100167520Y-33067150D01*
X100180132Y-33046107D01*
X100194747Y-33026401D01*
X100211223Y-33008223D01*
X100229401Y-32991747D01*
X100249107Y-32977132D01*
X100270150Y-32964520D01*
X100292329Y-32954030D01*
X100315428Y-32945765D01*
X100339227Y-32939804D01*
X100363495Y-32936204D01*
X100387999Y-32935000D01*
X101288001Y-32935000D01*
X101312505Y-32936204D01*
X101312505Y-32936204D01*
G37*
D11*
X100838000Y-33510000D03*
G04 #@! TD*
D10*
G04 #@! TO.C,C15*
G36*
X121886505Y-39567204D02*
X121910773Y-39570804D01*
X121934572Y-39576765D01*
X121957671Y-39585030D01*
X121979850Y-39595520D01*
X122000893Y-39608132D01*
X122020599Y-39622747D01*
X122038777Y-39639223D01*
X122055253Y-39657401D01*
X122069868Y-39677107D01*
X122082480Y-39698150D01*
X122092970Y-39720329D01*
X122101235Y-39743428D01*
X122107196Y-39767227D01*
X122110796Y-39791495D01*
X122112000Y-39815999D01*
X122112000Y-40466001D01*
X122110796Y-40490505D01*
X122107196Y-40514773D01*
X122101235Y-40538572D01*
X122092970Y-40561671D01*
X122082480Y-40583850D01*
X122069868Y-40604893D01*
X122055253Y-40624599D01*
X122038777Y-40642777D01*
X122020599Y-40659253D01*
X122000893Y-40673868D01*
X121979850Y-40686480D01*
X121957671Y-40696970D01*
X121934572Y-40705235D01*
X121910773Y-40711196D01*
X121886505Y-40714796D01*
X121862001Y-40716000D01*
X120961999Y-40716000D01*
X120937495Y-40714796D01*
X120913227Y-40711196D01*
X120889428Y-40705235D01*
X120866329Y-40696970D01*
X120844150Y-40686480D01*
X120823107Y-40673868D01*
X120803401Y-40659253D01*
X120785223Y-40642777D01*
X120768747Y-40624599D01*
X120754132Y-40604893D01*
X120741520Y-40583850D01*
X120731030Y-40561671D01*
X120722765Y-40538572D01*
X120716804Y-40514773D01*
X120713204Y-40490505D01*
X120712000Y-40466001D01*
X120712000Y-39815999D01*
X120713204Y-39791495D01*
X120716804Y-39767227D01*
X120722765Y-39743428D01*
X120731030Y-39720329D01*
X120741520Y-39698150D01*
X120754132Y-39677107D01*
X120768747Y-39657401D01*
X120785223Y-39639223D01*
X120803401Y-39622747D01*
X120823107Y-39608132D01*
X120844150Y-39595520D01*
X120866329Y-39585030D01*
X120889428Y-39576765D01*
X120913227Y-39570804D01*
X120937495Y-39567204D01*
X120961999Y-39566000D01*
X121862001Y-39566000D01*
X121886505Y-39567204D01*
X121886505Y-39567204D01*
G37*
D11*
X121412000Y-40141000D03*
D10*
G36*
X121886505Y-37517204D02*
X121910773Y-37520804D01*
X121934572Y-37526765D01*
X121957671Y-37535030D01*
X121979850Y-37545520D01*
X122000893Y-37558132D01*
X122020599Y-37572747D01*
X122038777Y-37589223D01*
X122055253Y-37607401D01*
X122069868Y-37627107D01*
X122082480Y-37648150D01*
X122092970Y-37670329D01*
X122101235Y-37693428D01*
X122107196Y-37717227D01*
X122110796Y-37741495D01*
X122112000Y-37765999D01*
X122112000Y-38416001D01*
X122110796Y-38440505D01*
X122107196Y-38464773D01*
X122101235Y-38488572D01*
X122092970Y-38511671D01*
X122082480Y-38533850D01*
X122069868Y-38554893D01*
X122055253Y-38574599D01*
X122038777Y-38592777D01*
X122020599Y-38609253D01*
X122000893Y-38623868D01*
X121979850Y-38636480D01*
X121957671Y-38646970D01*
X121934572Y-38655235D01*
X121910773Y-38661196D01*
X121886505Y-38664796D01*
X121862001Y-38666000D01*
X120961999Y-38666000D01*
X120937495Y-38664796D01*
X120913227Y-38661196D01*
X120889428Y-38655235D01*
X120866329Y-38646970D01*
X120844150Y-38636480D01*
X120823107Y-38623868D01*
X120803401Y-38609253D01*
X120785223Y-38592777D01*
X120768747Y-38574599D01*
X120754132Y-38554893D01*
X120741520Y-38533850D01*
X120731030Y-38511671D01*
X120722765Y-38488572D01*
X120716804Y-38464773D01*
X120713204Y-38440505D01*
X120712000Y-38416001D01*
X120712000Y-37765999D01*
X120713204Y-37741495D01*
X120716804Y-37717227D01*
X120722765Y-37693428D01*
X120731030Y-37670329D01*
X120741520Y-37648150D01*
X120754132Y-37627107D01*
X120768747Y-37607401D01*
X120785223Y-37589223D01*
X120803401Y-37572747D01*
X120823107Y-37558132D01*
X120844150Y-37545520D01*
X120866329Y-37535030D01*
X120889428Y-37526765D01*
X120913227Y-37520804D01*
X120937495Y-37517204D01*
X120961999Y-37516000D01*
X121862001Y-37516000D01*
X121886505Y-37517204D01*
X121886505Y-37517204D01*
G37*
D11*
X121412000Y-38091000D03*
G04 #@! TD*
D10*
G04 #@! TO.C,C14*
G36*
X103344505Y-34986204D02*
X103368773Y-34989804D01*
X103392572Y-34995765D01*
X103415671Y-35004030D01*
X103437850Y-35014520D01*
X103458893Y-35027132D01*
X103478599Y-35041747D01*
X103496777Y-35058223D01*
X103513253Y-35076401D01*
X103527868Y-35096107D01*
X103540480Y-35117150D01*
X103550970Y-35139329D01*
X103559235Y-35162428D01*
X103565196Y-35186227D01*
X103568796Y-35210495D01*
X103570000Y-35234999D01*
X103570000Y-35885001D01*
X103568796Y-35909505D01*
X103565196Y-35933773D01*
X103559235Y-35957572D01*
X103550970Y-35980671D01*
X103540480Y-36002850D01*
X103527868Y-36023893D01*
X103513253Y-36043599D01*
X103496777Y-36061777D01*
X103478599Y-36078253D01*
X103458893Y-36092868D01*
X103437850Y-36105480D01*
X103415671Y-36115970D01*
X103392572Y-36124235D01*
X103368773Y-36130196D01*
X103344505Y-36133796D01*
X103320001Y-36135000D01*
X102419999Y-36135000D01*
X102395495Y-36133796D01*
X102371227Y-36130196D01*
X102347428Y-36124235D01*
X102324329Y-36115970D01*
X102302150Y-36105480D01*
X102281107Y-36092868D01*
X102261401Y-36078253D01*
X102243223Y-36061777D01*
X102226747Y-36043599D01*
X102212132Y-36023893D01*
X102199520Y-36002850D01*
X102189030Y-35980671D01*
X102180765Y-35957572D01*
X102174804Y-35933773D01*
X102171204Y-35909505D01*
X102170000Y-35885001D01*
X102170000Y-35234999D01*
X102171204Y-35210495D01*
X102174804Y-35186227D01*
X102180765Y-35162428D01*
X102189030Y-35139329D01*
X102199520Y-35117150D01*
X102212132Y-35096107D01*
X102226747Y-35076401D01*
X102243223Y-35058223D01*
X102261401Y-35041747D01*
X102281107Y-35027132D01*
X102302150Y-35014520D01*
X102324329Y-35004030D01*
X102347428Y-34995765D01*
X102371227Y-34989804D01*
X102395495Y-34986204D01*
X102419999Y-34985000D01*
X103320001Y-34985000D01*
X103344505Y-34986204D01*
X103344505Y-34986204D01*
G37*
D11*
X102870000Y-35560000D03*
D10*
G36*
X103344505Y-32936204D02*
X103368773Y-32939804D01*
X103392572Y-32945765D01*
X103415671Y-32954030D01*
X103437850Y-32964520D01*
X103458893Y-32977132D01*
X103478599Y-32991747D01*
X103496777Y-33008223D01*
X103513253Y-33026401D01*
X103527868Y-33046107D01*
X103540480Y-33067150D01*
X103550970Y-33089329D01*
X103559235Y-33112428D01*
X103565196Y-33136227D01*
X103568796Y-33160495D01*
X103570000Y-33184999D01*
X103570000Y-33835001D01*
X103568796Y-33859505D01*
X103565196Y-33883773D01*
X103559235Y-33907572D01*
X103550970Y-33930671D01*
X103540480Y-33952850D01*
X103527868Y-33973893D01*
X103513253Y-33993599D01*
X103496777Y-34011777D01*
X103478599Y-34028253D01*
X103458893Y-34042868D01*
X103437850Y-34055480D01*
X103415671Y-34065970D01*
X103392572Y-34074235D01*
X103368773Y-34080196D01*
X103344505Y-34083796D01*
X103320001Y-34085000D01*
X102419999Y-34085000D01*
X102395495Y-34083796D01*
X102371227Y-34080196D01*
X102347428Y-34074235D01*
X102324329Y-34065970D01*
X102302150Y-34055480D01*
X102281107Y-34042868D01*
X102261401Y-34028253D01*
X102243223Y-34011777D01*
X102226747Y-33993599D01*
X102212132Y-33973893D01*
X102199520Y-33952850D01*
X102189030Y-33930671D01*
X102180765Y-33907572D01*
X102174804Y-33883773D01*
X102171204Y-33859505D01*
X102170000Y-33835001D01*
X102170000Y-33184999D01*
X102171204Y-33160495D01*
X102174804Y-33136227D01*
X102180765Y-33112428D01*
X102189030Y-33089329D01*
X102199520Y-33067150D01*
X102212132Y-33046107D01*
X102226747Y-33026401D01*
X102243223Y-33008223D01*
X102261401Y-32991747D01*
X102281107Y-32977132D01*
X102302150Y-32964520D01*
X102324329Y-32954030D01*
X102347428Y-32945765D01*
X102371227Y-32939804D01*
X102395495Y-32936204D01*
X102419999Y-32935000D01*
X103320001Y-32935000D01*
X103344505Y-32936204D01*
X103344505Y-32936204D01*
G37*
D11*
X102870000Y-33510000D03*
G04 #@! TD*
D10*
G04 #@! TO.C,C13*
G36*
X119854505Y-39576204D02*
X119878773Y-39579804D01*
X119902572Y-39585765D01*
X119925671Y-39594030D01*
X119947850Y-39604520D01*
X119968893Y-39617132D01*
X119988599Y-39631747D01*
X120006777Y-39648223D01*
X120023253Y-39666401D01*
X120037868Y-39686107D01*
X120050480Y-39707150D01*
X120060970Y-39729329D01*
X120069235Y-39752428D01*
X120075196Y-39776227D01*
X120078796Y-39800495D01*
X120080000Y-39824999D01*
X120080000Y-40475001D01*
X120078796Y-40499505D01*
X120075196Y-40523773D01*
X120069235Y-40547572D01*
X120060970Y-40570671D01*
X120050480Y-40592850D01*
X120037868Y-40613893D01*
X120023253Y-40633599D01*
X120006777Y-40651777D01*
X119988599Y-40668253D01*
X119968893Y-40682868D01*
X119947850Y-40695480D01*
X119925671Y-40705970D01*
X119902572Y-40714235D01*
X119878773Y-40720196D01*
X119854505Y-40723796D01*
X119830001Y-40725000D01*
X118929999Y-40725000D01*
X118905495Y-40723796D01*
X118881227Y-40720196D01*
X118857428Y-40714235D01*
X118834329Y-40705970D01*
X118812150Y-40695480D01*
X118791107Y-40682868D01*
X118771401Y-40668253D01*
X118753223Y-40651777D01*
X118736747Y-40633599D01*
X118722132Y-40613893D01*
X118709520Y-40592850D01*
X118699030Y-40570671D01*
X118690765Y-40547572D01*
X118684804Y-40523773D01*
X118681204Y-40499505D01*
X118680000Y-40475001D01*
X118680000Y-39824999D01*
X118681204Y-39800495D01*
X118684804Y-39776227D01*
X118690765Y-39752428D01*
X118699030Y-39729329D01*
X118709520Y-39707150D01*
X118722132Y-39686107D01*
X118736747Y-39666401D01*
X118753223Y-39648223D01*
X118771401Y-39631747D01*
X118791107Y-39617132D01*
X118812150Y-39604520D01*
X118834329Y-39594030D01*
X118857428Y-39585765D01*
X118881227Y-39579804D01*
X118905495Y-39576204D01*
X118929999Y-39575000D01*
X119830001Y-39575000D01*
X119854505Y-39576204D01*
X119854505Y-39576204D01*
G37*
D11*
X119380000Y-40150000D03*
D10*
G36*
X119854505Y-37526204D02*
X119878773Y-37529804D01*
X119902572Y-37535765D01*
X119925671Y-37544030D01*
X119947850Y-37554520D01*
X119968893Y-37567132D01*
X119988599Y-37581747D01*
X120006777Y-37598223D01*
X120023253Y-37616401D01*
X120037868Y-37636107D01*
X120050480Y-37657150D01*
X120060970Y-37679329D01*
X120069235Y-37702428D01*
X120075196Y-37726227D01*
X120078796Y-37750495D01*
X120080000Y-37774999D01*
X120080000Y-38425001D01*
X120078796Y-38449505D01*
X120075196Y-38473773D01*
X120069235Y-38497572D01*
X120060970Y-38520671D01*
X120050480Y-38542850D01*
X120037868Y-38563893D01*
X120023253Y-38583599D01*
X120006777Y-38601777D01*
X119988599Y-38618253D01*
X119968893Y-38632868D01*
X119947850Y-38645480D01*
X119925671Y-38655970D01*
X119902572Y-38664235D01*
X119878773Y-38670196D01*
X119854505Y-38673796D01*
X119830001Y-38675000D01*
X118929999Y-38675000D01*
X118905495Y-38673796D01*
X118881227Y-38670196D01*
X118857428Y-38664235D01*
X118834329Y-38655970D01*
X118812150Y-38645480D01*
X118791107Y-38632868D01*
X118771401Y-38618253D01*
X118753223Y-38601777D01*
X118736747Y-38583599D01*
X118722132Y-38563893D01*
X118709520Y-38542850D01*
X118699030Y-38520671D01*
X118690765Y-38497572D01*
X118684804Y-38473773D01*
X118681204Y-38449505D01*
X118680000Y-38425001D01*
X118680000Y-37774999D01*
X118681204Y-37750495D01*
X118684804Y-37726227D01*
X118690765Y-37702428D01*
X118699030Y-37679329D01*
X118709520Y-37657150D01*
X118722132Y-37636107D01*
X118736747Y-37616401D01*
X118753223Y-37598223D01*
X118771401Y-37581747D01*
X118791107Y-37567132D01*
X118812150Y-37554520D01*
X118834329Y-37544030D01*
X118857428Y-37535765D01*
X118881227Y-37529804D01*
X118905495Y-37526204D01*
X118929999Y-37525000D01*
X119830001Y-37525000D01*
X119854505Y-37526204D01*
X119854505Y-37526204D01*
G37*
D11*
X119380000Y-38100000D03*
G04 #@! TD*
D10*
G04 #@! TO.C,L1*
G36*
X115919505Y-37401204D02*
X115943773Y-37404804D01*
X115967572Y-37410765D01*
X115990671Y-37419030D01*
X116012850Y-37429520D01*
X116033893Y-37442132D01*
X116053599Y-37456747D01*
X116071777Y-37473223D01*
X116088253Y-37491401D01*
X116102868Y-37511107D01*
X116115480Y-37532150D01*
X116125970Y-37554329D01*
X116134235Y-37577428D01*
X116140196Y-37601227D01*
X116143796Y-37625495D01*
X116145000Y-37649999D01*
X116145000Y-38550001D01*
X116143796Y-38574505D01*
X116140196Y-38598773D01*
X116134235Y-38622572D01*
X116125970Y-38645671D01*
X116115480Y-38667850D01*
X116102868Y-38688893D01*
X116088253Y-38708599D01*
X116071777Y-38726777D01*
X116053599Y-38743253D01*
X116033893Y-38757868D01*
X116012850Y-38770480D01*
X115990671Y-38780970D01*
X115967572Y-38789235D01*
X115943773Y-38795196D01*
X115919505Y-38798796D01*
X115895001Y-38800000D01*
X115244999Y-38800000D01*
X115220495Y-38798796D01*
X115196227Y-38795196D01*
X115172428Y-38789235D01*
X115149329Y-38780970D01*
X115127150Y-38770480D01*
X115106107Y-38757868D01*
X115086401Y-38743253D01*
X115068223Y-38726777D01*
X115051747Y-38708599D01*
X115037132Y-38688893D01*
X115024520Y-38667850D01*
X115014030Y-38645671D01*
X115005765Y-38622572D01*
X114999804Y-38598773D01*
X114996204Y-38574505D01*
X114995000Y-38550001D01*
X114995000Y-37649999D01*
X114996204Y-37625495D01*
X114999804Y-37601227D01*
X115005765Y-37577428D01*
X115014030Y-37554329D01*
X115024520Y-37532150D01*
X115037132Y-37511107D01*
X115051747Y-37491401D01*
X115068223Y-37473223D01*
X115086401Y-37456747D01*
X115106107Y-37442132D01*
X115127150Y-37429520D01*
X115149329Y-37419030D01*
X115172428Y-37410765D01*
X115196227Y-37404804D01*
X115220495Y-37401204D01*
X115244999Y-37400000D01*
X115895001Y-37400000D01*
X115919505Y-37401204D01*
X115919505Y-37401204D01*
G37*
D11*
X115570000Y-38100000D03*
D10*
G36*
X117969505Y-37401204D02*
X117993773Y-37404804D01*
X118017572Y-37410765D01*
X118040671Y-37419030D01*
X118062850Y-37429520D01*
X118083893Y-37442132D01*
X118103599Y-37456747D01*
X118121777Y-37473223D01*
X118138253Y-37491401D01*
X118152868Y-37511107D01*
X118165480Y-37532150D01*
X118175970Y-37554329D01*
X118184235Y-37577428D01*
X118190196Y-37601227D01*
X118193796Y-37625495D01*
X118195000Y-37649999D01*
X118195000Y-38550001D01*
X118193796Y-38574505D01*
X118190196Y-38598773D01*
X118184235Y-38622572D01*
X118175970Y-38645671D01*
X118165480Y-38667850D01*
X118152868Y-38688893D01*
X118138253Y-38708599D01*
X118121777Y-38726777D01*
X118103599Y-38743253D01*
X118083893Y-38757868D01*
X118062850Y-38770480D01*
X118040671Y-38780970D01*
X118017572Y-38789235D01*
X117993773Y-38795196D01*
X117969505Y-38798796D01*
X117945001Y-38800000D01*
X117294999Y-38800000D01*
X117270495Y-38798796D01*
X117246227Y-38795196D01*
X117222428Y-38789235D01*
X117199329Y-38780970D01*
X117177150Y-38770480D01*
X117156107Y-38757868D01*
X117136401Y-38743253D01*
X117118223Y-38726777D01*
X117101747Y-38708599D01*
X117087132Y-38688893D01*
X117074520Y-38667850D01*
X117064030Y-38645671D01*
X117055765Y-38622572D01*
X117049804Y-38598773D01*
X117046204Y-38574505D01*
X117045000Y-38550001D01*
X117045000Y-37649999D01*
X117046204Y-37625495D01*
X117049804Y-37601227D01*
X117055765Y-37577428D01*
X117064030Y-37554329D01*
X117074520Y-37532150D01*
X117087132Y-37511107D01*
X117101747Y-37491401D01*
X117118223Y-37473223D01*
X117136401Y-37456747D01*
X117156107Y-37442132D01*
X117177150Y-37429520D01*
X117199329Y-37419030D01*
X117222428Y-37410765D01*
X117246227Y-37404804D01*
X117270495Y-37401204D01*
X117294999Y-37400000D01*
X117945001Y-37400000D01*
X117969505Y-37401204D01*
X117969505Y-37401204D01*
G37*
D11*
X117620000Y-38100000D03*
G04 #@! TD*
D10*
G04 #@! TO.C,L2*
G36*
X104979505Y-34861204D02*
X105003773Y-34864804D01*
X105027572Y-34870765D01*
X105050671Y-34879030D01*
X105072850Y-34889520D01*
X105093893Y-34902132D01*
X105113599Y-34916747D01*
X105131777Y-34933223D01*
X105148253Y-34951401D01*
X105162868Y-34971107D01*
X105175480Y-34992150D01*
X105185970Y-35014329D01*
X105194235Y-35037428D01*
X105200196Y-35061227D01*
X105203796Y-35085495D01*
X105205000Y-35109999D01*
X105205000Y-36010001D01*
X105203796Y-36034505D01*
X105200196Y-36058773D01*
X105194235Y-36082572D01*
X105185970Y-36105671D01*
X105175480Y-36127850D01*
X105162868Y-36148893D01*
X105148253Y-36168599D01*
X105131777Y-36186777D01*
X105113599Y-36203253D01*
X105093893Y-36217868D01*
X105072850Y-36230480D01*
X105050671Y-36240970D01*
X105027572Y-36249235D01*
X105003773Y-36255196D01*
X104979505Y-36258796D01*
X104955001Y-36260000D01*
X104304999Y-36260000D01*
X104280495Y-36258796D01*
X104256227Y-36255196D01*
X104232428Y-36249235D01*
X104209329Y-36240970D01*
X104187150Y-36230480D01*
X104166107Y-36217868D01*
X104146401Y-36203253D01*
X104128223Y-36186777D01*
X104111747Y-36168599D01*
X104097132Y-36148893D01*
X104084520Y-36127850D01*
X104074030Y-36105671D01*
X104065765Y-36082572D01*
X104059804Y-36058773D01*
X104056204Y-36034505D01*
X104055000Y-36010001D01*
X104055000Y-35109999D01*
X104056204Y-35085495D01*
X104059804Y-35061227D01*
X104065765Y-35037428D01*
X104074030Y-35014329D01*
X104084520Y-34992150D01*
X104097132Y-34971107D01*
X104111747Y-34951401D01*
X104128223Y-34933223D01*
X104146401Y-34916747D01*
X104166107Y-34902132D01*
X104187150Y-34889520D01*
X104209329Y-34879030D01*
X104232428Y-34870765D01*
X104256227Y-34864804D01*
X104280495Y-34861204D01*
X104304999Y-34860000D01*
X104955001Y-34860000D01*
X104979505Y-34861204D01*
X104979505Y-34861204D01*
G37*
D11*
X104630000Y-35560000D03*
D10*
G36*
X107029505Y-34861204D02*
X107053773Y-34864804D01*
X107077572Y-34870765D01*
X107100671Y-34879030D01*
X107122850Y-34889520D01*
X107143893Y-34902132D01*
X107163599Y-34916747D01*
X107181777Y-34933223D01*
X107198253Y-34951401D01*
X107212868Y-34971107D01*
X107225480Y-34992150D01*
X107235970Y-35014329D01*
X107244235Y-35037428D01*
X107250196Y-35061227D01*
X107253796Y-35085495D01*
X107255000Y-35109999D01*
X107255000Y-36010001D01*
X107253796Y-36034505D01*
X107250196Y-36058773D01*
X107244235Y-36082572D01*
X107235970Y-36105671D01*
X107225480Y-36127850D01*
X107212868Y-36148893D01*
X107198253Y-36168599D01*
X107181777Y-36186777D01*
X107163599Y-36203253D01*
X107143893Y-36217868D01*
X107122850Y-36230480D01*
X107100671Y-36240970D01*
X107077572Y-36249235D01*
X107053773Y-36255196D01*
X107029505Y-36258796D01*
X107005001Y-36260000D01*
X106354999Y-36260000D01*
X106330495Y-36258796D01*
X106306227Y-36255196D01*
X106282428Y-36249235D01*
X106259329Y-36240970D01*
X106237150Y-36230480D01*
X106216107Y-36217868D01*
X106196401Y-36203253D01*
X106178223Y-36186777D01*
X106161747Y-36168599D01*
X106147132Y-36148893D01*
X106134520Y-36127850D01*
X106124030Y-36105671D01*
X106115765Y-36082572D01*
X106109804Y-36058773D01*
X106106204Y-36034505D01*
X106105000Y-36010001D01*
X106105000Y-35109999D01*
X106106204Y-35085495D01*
X106109804Y-35061227D01*
X106115765Y-35037428D01*
X106124030Y-35014329D01*
X106134520Y-34992150D01*
X106147132Y-34971107D01*
X106161747Y-34951401D01*
X106178223Y-34933223D01*
X106196401Y-34916747D01*
X106216107Y-34902132D01*
X106237150Y-34889520D01*
X106259329Y-34879030D01*
X106282428Y-34870765D01*
X106306227Y-34864804D01*
X106330495Y-34861204D01*
X106354999Y-34860000D01*
X107005001Y-34860000D01*
X107029505Y-34861204D01*
X107029505Y-34861204D01*
G37*
D11*
X106680000Y-35560000D03*
G04 #@! TD*
D10*
G04 #@! TO.C,L3*
G36*
X115647505Y-32321204D02*
X115671773Y-32324804D01*
X115695572Y-32330765D01*
X115718671Y-32339030D01*
X115740850Y-32349520D01*
X115761893Y-32362132D01*
X115781599Y-32376747D01*
X115799777Y-32393223D01*
X115816253Y-32411401D01*
X115830868Y-32431107D01*
X115843480Y-32452150D01*
X115853970Y-32474329D01*
X115862235Y-32497428D01*
X115868196Y-32521227D01*
X115871796Y-32545495D01*
X115873000Y-32569999D01*
X115873000Y-33470001D01*
X115871796Y-33494505D01*
X115868196Y-33518773D01*
X115862235Y-33542572D01*
X115853970Y-33565671D01*
X115843480Y-33587850D01*
X115830868Y-33608893D01*
X115816253Y-33628599D01*
X115799777Y-33646777D01*
X115781599Y-33663253D01*
X115761893Y-33677868D01*
X115740850Y-33690480D01*
X115718671Y-33700970D01*
X115695572Y-33709235D01*
X115671773Y-33715196D01*
X115647505Y-33718796D01*
X115623001Y-33720000D01*
X114972999Y-33720000D01*
X114948495Y-33718796D01*
X114924227Y-33715196D01*
X114900428Y-33709235D01*
X114877329Y-33700970D01*
X114855150Y-33690480D01*
X114834107Y-33677868D01*
X114814401Y-33663253D01*
X114796223Y-33646777D01*
X114779747Y-33628599D01*
X114765132Y-33608893D01*
X114752520Y-33587850D01*
X114742030Y-33565671D01*
X114733765Y-33542572D01*
X114727804Y-33518773D01*
X114724204Y-33494505D01*
X114723000Y-33470001D01*
X114723000Y-32569999D01*
X114724204Y-32545495D01*
X114727804Y-32521227D01*
X114733765Y-32497428D01*
X114742030Y-32474329D01*
X114752520Y-32452150D01*
X114765132Y-32431107D01*
X114779747Y-32411401D01*
X114796223Y-32393223D01*
X114814401Y-32376747D01*
X114834107Y-32362132D01*
X114855150Y-32349520D01*
X114877329Y-32339030D01*
X114900428Y-32330765D01*
X114924227Y-32324804D01*
X114948495Y-32321204D01*
X114972999Y-32320000D01*
X115623001Y-32320000D01*
X115647505Y-32321204D01*
X115647505Y-32321204D01*
G37*
D11*
X115298000Y-33020000D03*
D10*
G36*
X117697505Y-32321204D02*
X117721773Y-32324804D01*
X117745572Y-32330765D01*
X117768671Y-32339030D01*
X117790850Y-32349520D01*
X117811893Y-32362132D01*
X117831599Y-32376747D01*
X117849777Y-32393223D01*
X117866253Y-32411401D01*
X117880868Y-32431107D01*
X117893480Y-32452150D01*
X117903970Y-32474329D01*
X117912235Y-32497428D01*
X117918196Y-32521227D01*
X117921796Y-32545495D01*
X117923000Y-32569999D01*
X117923000Y-33470001D01*
X117921796Y-33494505D01*
X117918196Y-33518773D01*
X117912235Y-33542572D01*
X117903970Y-33565671D01*
X117893480Y-33587850D01*
X117880868Y-33608893D01*
X117866253Y-33628599D01*
X117849777Y-33646777D01*
X117831599Y-33663253D01*
X117811893Y-33677868D01*
X117790850Y-33690480D01*
X117768671Y-33700970D01*
X117745572Y-33709235D01*
X117721773Y-33715196D01*
X117697505Y-33718796D01*
X117673001Y-33720000D01*
X117022999Y-33720000D01*
X116998495Y-33718796D01*
X116974227Y-33715196D01*
X116950428Y-33709235D01*
X116927329Y-33700970D01*
X116905150Y-33690480D01*
X116884107Y-33677868D01*
X116864401Y-33663253D01*
X116846223Y-33646777D01*
X116829747Y-33628599D01*
X116815132Y-33608893D01*
X116802520Y-33587850D01*
X116792030Y-33565671D01*
X116783765Y-33542572D01*
X116777804Y-33518773D01*
X116774204Y-33494505D01*
X116773000Y-33470001D01*
X116773000Y-32569999D01*
X116774204Y-32545495D01*
X116777804Y-32521227D01*
X116783765Y-32497428D01*
X116792030Y-32474329D01*
X116802520Y-32452150D01*
X116815132Y-32431107D01*
X116829747Y-32411401D01*
X116846223Y-32393223D01*
X116864401Y-32376747D01*
X116884107Y-32362132D01*
X116905150Y-32349520D01*
X116927329Y-32339030D01*
X116950428Y-32330765D01*
X116974227Y-32324804D01*
X116998495Y-32321204D01*
X117022999Y-32320000D01*
X117673001Y-32320000D01*
X117697505Y-32321204D01*
X117697505Y-32321204D01*
G37*
D11*
X117348000Y-33020000D03*
G04 #@! TD*
D10*
G04 #@! TO.C,C12*
G36*
X131538505Y-39032204D02*
X131562773Y-39035804D01*
X131586572Y-39041765D01*
X131609671Y-39050030D01*
X131631850Y-39060520D01*
X131652893Y-39073132D01*
X131672599Y-39087747D01*
X131690777Y-39104223D01*
X131707253Y-39122401D01*
X131721868Y-39142107D01*
X131734480Y-39163150D01*
X131744970Y-39185329D01*
X131753235Y-39208428D01*
X131759196Y-39232227D01*
X131762796Y-39256495D01*
X131764000Y-39280999D01*
X131764000Y-39931001D01*
X131762796Y-39955505D01*
X131759196Y-39979773D01*
X131753235Y-40003572D01*
X131744970Y-40026671D01*
X131734480Y-40048850D01*
X131721868Y-40069893D01*
X131707253Y-40089599D01*
X131690777Y-40107777D01*
X131672599Y-40124253D01*
X131652893Y-40138868D01*
X131631850Y-40151480D01*
X131609671Y-40161970D01*
X131586572Y-40170235D01*
X131562773Y-40176196D01*
X131538505Y-40179796D01*
X131514001Y-40181000D01*
X130613999Y-40181000D01*
X130589495Y-40179796D01*
X130565227Y-40176196D01*
X130541428Y-40170235D01*
X130518329Y-40161970D01*
X130496150Y-40151480D01*
X130475107Y-40138868D01*
X130455401Y-40124253D01*
X130437223Y-40107777D01*
X130420747Y-40089599D01*
X130406132Y-40069893D01*
X130393520Y-40048850D01*
X130383030Y-40026671D01*
X130374765Y-40003572D01*
X130368804Y-39979773D01*
X130365204Y-39955505D01*
X130364000Y-39931001D01*
X130364000Y-39280999D01*
X130365204Y-39256495D01*
X130368804Y-39232227D01*
X130374765Y-39208428D01*
X130383030Y-39185329D01*
X130393520Y-39163150D01*
X130406132Y-39142107D01*
X130420747Y-39122401D01*
X130437223Y-39104223D01*
X130455401Y-39087747D01*
X130475107Y-39073132D01*
X130496150Y-39060520D01*
X130518329Y-39050030D01*
X130541428Y-39041765D01*
X130565227Y-39035804D01*
X130589495Y-39032204D01*
X130613999Y-39031000D01*
X131514001Y-39031000D01*
X131538505Y-39032204D01*
X131538505Y-39032204D01*
G37*
D11*
X131064000Y-39606000D03*
D10*
G36*
X131538505Y-41082204D02*
X131562773Y-41085804D01*
X131586572Y-41091765D01*
X131609671Y-41100030D01*
X131631850Y-41110520D01*
X131652893Y-41123132D01*
X131672599Y-41137747D01*
X131690777Y-41154223D01*
X131707253Y-41172401D01*
X131721868Y-41192107D01*
X131734480Y-41213150D01*
X131744970Y-41235329D01*
X131753235Y-41258428D01*
X131759196Y-41282227D01*
X131762796Y-41306495D01*
X131764000Y-41330999D01*
X131764000Y-41981001D01*
X131762796Y-42005505D01*
X131759196Y-42029773D01*
X131753235Y-42053572D01*
X131744970Y-42076671D01*
X131734480Y-42098850D01*
X131721868Y-42119893D01*
X131707253Y-42139599D01*
X131690777Y-42157777D01*
X131672599Y-42174253D01*
X131652893Y-42188868D01*
X131631850Y-42201480D01*
X131609671Y-42211970D01*
X131586572Y-42220235D01*
X131562773Y-42226196D01*
X131538505Y-42229796D01*
X131514001Y-42231000D01*
X130613999Y-42231000D01*
X130589495Y-42229796D01*
X130565227Y-42226196D01*
X130541428Y-42220235D01*
X130518329Y-42211970D01*
X130496150Y-42201480D01*
X130475107Y-42188868D01*
X130455401Y-42174253D01*
X130437223Y-42157777D01*
X130420747Y-42139599D01*
X130406132Y-42119893D01*
X130393520Y-42098850D01*
X130383030Y-42076671D01*
X130374765Y-42053572D01*
X130368804Y-42029773D01*
X130365204Y-42005505D01*
X130364000Y-41981001D01*
X130364000Y-41330999D01*
X130365204Y-41306495D01*
X130368804Y-41282227D01*
X130374765Y-41258428D01*
X130383030Y-41235329D01*
X130393520Y-41213150D01*
X130406132Y-41192107D01*
X130420747Y-41172401D01*
X130437223Y-41154223D01*
X130455401Y-41137747D01*
X130475107Y-41123132D01*
X130496150Y-41110520D01*
X130518329Y-41100030D01*
X130541428Y-41091765D01*
X130565227Y-41085804D01*
X130589495Y-41082204D01*
X130613999Y-41081000D01*
X131514001Y-41081000D01*
X131538505Y-41082204D01*
X131538505Y-41082204D01*
G37*
D11*
X131064000Y-41656000D03*
G04 #@! TD*
D10*
G04 #@! TO.C,C11*
G36*
X126966505Y-49210204D02*
X126990773Y-49213804D01*
X127014572Y-49219765D01*
X127037671Y-49228030D01*
X127059850Y-49238520D01*
X127080893Y-49251132D01*
X127100599Y-49265747D01*
X127118777Y-49282223D01*
X127135253Y-49300401D01*
X127149868Y-49320107D01*
X127162480Y-49341150D01*
X127172970Y-49363329D01*
X127181235Y-49386428D01*
X127187196Y-49410227D01*
X127190796Y-49434495D01*
X127192000Y-49458999D01*
X127192000Y-50109001D01*
X127190796Y-50133505D01*
X127187196Y-50157773D01*
X127181235Y-50181572D01*
X127172970Y-50204671D01*
X127162480Y-50226850D01*
X127149868Y-50247893D01*
X127135253Y-50267599D01*
X127118777Y-50285777D01*
X127100599Y-50302253D01*
X127080893Y-50316868D01*
X127059850Y-50329480D01*
X127037671Y-50339970D01*
X127014572Y-50348235D01*
X126990773Y-50354196D01*
X126966505Y-50357796D01*
X126942001Y-50359000D01*
X126041999Y-50359000D01*
X126017495Y-50357796D01*
X125993227Y-50354196D01*
X125969428Y-50348235D01*
X125946329Y-50339970D01*
X125924150Y-50329480D01*
X125903107Y-50316868D01*
X125883401Y-50302253D01*
X125865223Y-50285777D01*
X125848747Y-50267599D01*
X125834132Y-50247893D01*
X125821520Y-50226850D01*
X125811030Y-50204671D01*
X125802765Y-50181572D01*
X125796804Y-50157773D01*
X125793204Y-50133505D01*
X125792000Y-50109001D01*
X125792000Y-49458999D01*
X125793204Y-49434495D01*
X125796804Y-49410227D01*
X125802765Y-49386428D01*
X125811030Y-49363329D01*
X125821520Y-49341150D01*
X125834132Y-49320107D01*
X125848747Y-49300401D01*
X125865223Y-49282223D01*
X125883401Y-49265747D01*
X125903107Y-49251132D01*
X125924150Y-49238520D01*
X125946329Y-49228030D01*
X125969428Y-49219765D01*
X125993227Y-49213804D01*
X126017495Y-49210204D01*
X126041999Y-49209000D01*
X126942001Y-49209000D01*
X126966505Y-49210204D01*
X126966505Y-49210204D01*
G37*
D11*
X126492000Y-49784000D03*
D10*
G36*
X126966505Y-51260204D02*
X126990773Y-51263804D01*
X127014572Y-51269765D01*
X127037671Y-51278030D01*
X127059850Y-51288520D01*
X127080893Y-51301132D01*
X127100599Y-51315747D01*
X127118777Y-51332223D01*
X127135253Y-51350401D01*
X127149868Y-51370107D01*
X127162480Y-51391150D01*
X127172970Y-51413329D01*
X127181235Y-51436428D01*
X127187196Y-51460227D01*
X127190796Y-51484495D01*
X127192000Y-51508999D01*
X127192000Y-52159001D01*
X127190796Y-52183505D01*
X127187196Y-52207773D01*
X127181235Y-52231572D01*
X127172970Y-52254671D01*
X127162480Y-52276850D01*
X127149868Y-52297893D01*
X127135253Y-52317599D01*
X127118777Y-52335777D01*
X127100599Y-52352253D01*
X127080893Y-52366868D01*
X127059850Y-52379480D01*
X127037671Y-52389970D01*
X127014572Y-52398235D01*
X126990773Y-52404196D01*
X126966505Y-52407796D01*
X126942001Y-52409000D01*
X126041999Y-52409000D01*
X126017495Y-52407796D01*
X125993227Y-52404196D01*
X125969428Y-52398235D01*
X125946329Y-52389970D01*
X125924150Y-52379480D01*
X125903107Y-52366868D01*
X125883401Y-52352253D01*
X125865223Y-52335777D01*
X125848747Y-52317599D01*
X125834132Y-52297893D01*
X125821520Y-52276850D01*
X125811030Y-52254671D01*
X125802765Y-52231572D01*
X125796804Y-52207773D01*
X125793204Y-52183505D01*
X125792000Y-52159001D01*
X125792000Y-51508999D01*
X125793204Y-51484495D01*
X125796804Y-51460227D01*
X125802765Y-51436428D01*
X125811030Y-51413329D01*
X125821520Y-51391150D01*
X125834132Y-51370107D01*
X125848747Y-51350401D01*
X125865223Y-51332223D01*
X125883401Y-51315747D01*
X125903107Y-51301132D01*
X125924150Y-51288520D01*
X125946329Y-51278030D01*
X125969428Y-51269765D01*
X125993227Y-51263804D01*
X126017495Y-51260204D01*
X126041999Y-51259000D01*
X126942001Y-51259000D01*
X126966505Y-51260204D01*
X126966505Y-51260204D01*
G37*
D11*
X126492000Y-51834000D03*
G04 #@! TD*
D10*
G04 #@! TO.C,C10*
G36*
X117822505Y-48938204D02*
X117846773Y-48941804D01*
X117870572Y-48947765D01*
X117893671Y-48956030D01*
X117915850Y-48966520D01*
X117936893Y-48979132D01*
X117956599Y-48993747D01*
X117974777Y-49010223D01*
X117991253Y-49028401D01*
X118005868Y-49048107D01*
X118018480Y-49069150D01*
X118028970Y-49091329D01*
X118037235Y-49114428D01*
X118043196Y-49138227D01*
X118046796Y-49162495D01*
X118048000Y-49186999D01*
X118048000Y-49837001D01*
X118046796Y-49861505D01*
X118043196Y-49885773D01*
X118037235Y-49909572D01*
X118028970Y-49932671D01*
X118018480Y-49954850D01*
X118005868Y-49975893D01*
X117991253Y-49995599D01*
X117974777Y-50013777D01*
X117956599Y-50030253D01*
X117936893Y-50044868D01*
X117915850Y-50057480D01*
X117893671Y-50067970D01*
X117870572Y-50076235D01*
X117846773Y-50082196D01*
X117822505Y-50085796D01*
X117798001Y-50087000D01*
X116897999Y-50087000D01*
X116873495Y-50085796D01*
X116849227Y-50082196D01*
X116825428Y-50076235D01*
X116802329Y-50067970D01*
X116780150Y-50057480D01*
X116759107Y-50044868D01*
X116739401Y-50030253D01*
X116721223Y-50013777D01*
X116704747Y-49995599D01*
X116690132Y-49975893D01*
X116677520Y-49954850D01*
X116667030Y-49932671D01*
X116658765Y-49909572D01*
X116652804Y-49885773D01*
X116649204Y-49861505D01*
X116648000Y-49837001D01*
X116648000Y-49186999D01*
X116649204Y-49162495D01*
X116652804Y-49138227D01*
X116658765Y-49114428D01*
X116667030Y-49091329D01*
X116677520Y-49069150D01*
X116690132Y-49048107D01*
X116704747Y-49028401D01*
X116721223Y-49010223D01*
X116739401Y-48993747D01*
X116759107Y-48979132D01*
X116780150Y-48966520D01*
X116802329Y-48956030D01*
X116825428Y-48947765D01*
X116849227Y-48941804D01*
X116873495Y-48938204D01*
X116897999Y-48937000D01*
X117798001Y-48937000D01*
X117822505Y-48938204D01*
X117822505Y-48938204D01*
G37*
D11*
X117348000Y-49512000D03*
D10*
G36*
X117822505Y-50988204D02*
X117846773Y-50991804D01*
X117870572Y-50997765D01*
X117893671Y-51006030D01*
X117915850Y-51016520D01*
X117936893Y-51029132D01*
X117956599Y-51043747D01*
X117974777Y-51060223D01*
X117991253Y-51078401D01*
X118005868Y-51098107D01*
X118018480Y-51119150D01*
X118028970Y-51141329D01*
X118037235Y-51164428D01*
X118043196Y-51188227D01*
X118046796Y-51212495D01*
X118048000Y-51236999D01*
X118048000Y-51887001D01*
X118046796Y-51911505D01*
X118043196Y-51935773D01*
X118037235Y-51959572D01*
X118028970Y-51982671D01*
X118018480Y-52004850D01*
X118005868Y-52025893D01*
X117991253Y-52045599D01*
X117974777Y-52063777D01*
X117956599Y-52080253D01*
X117936893Y-52094868D01*
X117915850Y-52107480D01*
X117893671Y-52117970D01*
X117870572Y-52126235D01*
X117846773Y-52132196D01*
X117822505Y-52135796D01*
X117798001Y-52137000D01*
X116897999Y-52137000D01*
X116873495Y-52135796D01*
X116849227Y-52132196D01*
X116825428Y-52126235D01*
X116802329Y-52117970D01*
X116780150Y-52107480D01*
X116759107Y-52094868D01*
X116739401Y-52080253D01*
X116721223Y-52063777D01*
X116704747Y-52045599D01*
X116690132Y-52025893D01*
X116677520Y-52004850D01*
X116667030Y-51982671D01*
X116658765Y-51959572D01*
X116652804Y-51935773D01*
X116649204Y-51911505D01*
X116648000Y-51887001D01*
X116648000Y-51236999D01*
X116649204Y-51212495D01*
X116652804Y-51188227D01*
X116658765Y-51164428D01*
X116667030Y-51141329D01*
X116677520Y-51119150D01*
X116690132Y-51098107D01*
X116704747Y-51078401D01*
X116721223Y-51060223D01*
X116739401Y-51043747D01*
X116759107Y-51029132D01*
X116780150Y-51016520D01*
X116802329Y-51006030D01*
X116825428Y-50997765D01*
X116849227Y-50991804D01*
X116873495Y-50988204D01*
X116897999Y-50987000D01*
X117798001Y-50987000D01*
X117822505Y-50988204D01*
X117822505Y-50988204D01*
G37*
D11*
X117348000Y-51562000D03*
G04 #@! TD*
D10*
G04 #@! TO.C,C9*
G36*
X125553505Y-42989204D02*
X125577773Y-42992804D01*
X125601572Y-42998765D01*
X125624671Y-43007030D01*
X125646850Y-43017520D01*
X125667893Y-43030132D01*
X125687599Y-43044747D01*
X125705777Y-43061223D01*
X125722253Y-43079401D01*
X125736868Y-43099107D01*
X125749480Y-43120150D01*
X125759970Y-43142329D01*
X125768235Y-43165428D01*
X125774196Y-43189227D01*
X125777796Y-43213495D01*
X125779000Y-43237999D01*
X125779000Y-44138001D01*
X125777796Y-44162505D01*
X125774196Y-44186773D01*
X125768235Y-44210572D01*
X125759970Y-44233671D01*
X125749480Y-44255850D01*
X125736868Y-44276893D01*
X125722253Y-44296599D01*
X125705777Y-44314777D01*
X125687599Y-44331253D01*
X125667893Y-44345868D01*
X125646850Y-44358480D01*
X125624671Y-44368970D01*
X125601572Y-44377235D01*
X125577773Y-44383196D01*
X125553505Y-44386796D01*
X125529001Y-44388000D01*
X124878999Y-44388000D01*
X124854495Y-44386796D01*
X124830227Y-44383196D01*
X124806428Y-44377235D01*
X124783329Y-44368970D01*
X124761150Y-44358480D01*
X124740107Y-44345868D01*
X124720401Y-44331253D01*
X124702223Y-44314777D01*
X124685747Y-44296599D01*
X124671132Y-44276893D01*
X124658520Y-44255850D01*
X124648030Y-44233671D01*
X124639765Y-44210572D01*
X124633804Y-44186773D01*
X124630204Y-44162505D01*
X124629000Y-44138001D01*
X124629000Y-43237999D01*
X124630204Y-43213495D01*
X124633804Y-43189227D01*
X124639765Y-43165428D01*
X124648030Y-43142329D01*
X124658520Y-43120150D01*
X124671132Y-43099107D01*
X124685747Y-43079401D01*
X124702223Y-43061223D01*
X124720401Y-43044747D01*
X124740107Y-43030132D01*
X124761150Y-43017520D01*
X124783329Y-43007030D01*
X124806428Y-42998765D01*
X124830227Y-42992804D01*
X124854495Y-42989204D01*
X124878999Y-42988000D01*
X125529001Y-42988000D01*
X125553505Y-42989204D01*
X125553505Y-42989204D01*
G37*
D11*
X125204000Y-43688000D03*
D10*
G36*
X127603505Y-42989204D02*
X127627773Y-42992804D01*
X127651572Y-42998765D01*
X127674671Y-43007030D01*
X127696850Y-43017520D01*
X127717893Y-43030132D01*
X127737599Y-43044747D01*
X127755777Y-43061223D01*
X127772253Y-43079401D01*
X127786868Y-43099107D01*
X127799480Y-43120150D01*
X127809970Y-43142329D01*
X127818235Y-43165428D01*
X127824196Y-43189227D01*
X127827796Y-43213495D01*
X127829000Y-43237999D01*
X127829000Y-44138001D01*
X127827796Y-44162505D01*
X127824196Y-44186773D01*
X127818235Y-44210572D01*
X127809970Y-44233671D01*
X127799480Y-44255850D01*
X127786868Y-44276893D01*
X127772253Y-44296599D01*
X127755777Y-44314777D01*
X127737599Y-44331253D01*
X127717893Y-44345868D01*
X127696850Y-44358480D01*
X127674671Y-44368970D01*
X127651572Y-44377235D01*
X127627773Y-44383196D01*
X127603505Y-44386796D01*
X127579001Y-44388000D01*
X126928999Y-44388000D01*
X126904495Y-44386796D01*
X126880227Y-44383196D01*
X126856428Y-44377235D01*
X126833329Y-44368970D01*
X126811150Y-44358480D01*
X126790107Y-44345868D01*
X126770401Y-44331253D01*
X126752223Y-44314777D01*
X126735747Y-44296599D01*
X126721132Y-44276893D01*
X126708520Y-44255850D01*
X126698030Y-44233671D01*
X126689765Y-44210572D01*
X126683804Y-44186773D01*
X126680204Y-44162505D01*
X126679000Y-44138001D01*
X126679000Y-43237999D01*
X126680204Y-43213495D01*
X126683804Y-43189227D01*
X126689765Y-43165428D01*
X126698030Y-43142329D01*
X126708520Y-43120150D01*
X126721132Y-43099107D01*
X126735747Y-43079401D01*
X126752223Y-43061223D01*
X126770401Y-43044747D01*
X126790107Y-43030132D01*
X126811150Y-43017520D01*
X126833329Y-43007030D01*
X126856428Y-42998765D01*
X126880227Y-42992804D01*
X126904495Y-42989204D01*
X126928999Y-42988000D01*
X127579001Y-42988000D01*
X127603505Y-42989204D01*
X127603505Y-42989204D01*
G37*
D11*
X127254000Y-43688000D03*
G04 #@! TD*
D10*
G04 #@! TO.C,C8*
G36*
X48480505Y-81468204D02*
X48504773Y-81471804D01*
X48528572Y-81477765D01*
X48551671Y-81486030D01*
X48573850Y-81496520D01*
X48594893Y-81509132D01*
X48614599Y-81523747D01*
X48632777Y-81540223D01*
X48649253Y-81558401D01*
X48663868Y-81578107D01*
X48676480Y-81599150D01*
X48686970Y-81621329D01*
X48695235Y-81644428D01*
X48701196Y-81668227D01*
X48704796Y-81692495D01*
X48706000Y-81716999D01*
X48706000Y-82367001D01*
X48704796Y-82391505D01*
X48701196Y-82415773D01*
X48695235Y-82439572D01*
X48686970Y-82462671D01*
X48676480Y-82484850D01*
X48663868Y-82505893D01*
X48649253Y-82525599D01*
X48632777Y-82543777D01*
X48614599Y-82560253D01*
X48594893Y-82574868D01*
X48573850Y-82587480D01*
X48551671Y-82597970D01*
X48528572Y-82606235D01*
X48504773Y-82612196D01*
X48480505Y-82615796D01*
X48456001Y-82617000D01*
X47555999Y-82617000D01*
X47531495Y-82615796D01*
X47507227Y-82612196D01*
X47483428Y-82606235D01*
X47460329Y-82597970D01*
X47438150Y-82587480D01*
X47417107Y-82574868D01*
X47397401Y-82560253D01*
X47379223Y-82543777D01*
X47362747Y-82525599D01*
X47348132Y-82505893D01*
X47335520Y-82484850D01*
X47325030Y-82462671D01*
X47316765Y-82439572D01*
X47310804Y-82415773D01*
X47307204Y-82391505D01*
X47306000Y-82367001D01*
X47306000Y-81716999D01*
X47307204Y-81692495D01*
X47310804Y-81668227D01*
X47316765Y-81644428D01*
X47325030Y-81621329D01*
X47335520Y-81599150D01*
X47348132Y-81578107D01*
X47362747Y-81558401D01*
X47379223Y-81540223D01*
X47397401Y-81523747D01*
X47417107Y-81509132D01*
X47438150Y-81496520D01*
X47460329Y-81486030D01*
X47483428Y-81477765D01*
X47507227Y-81471804D01*
X47531495Y-81468204D01*
X47555999Y-81467000D01*
X48456001Y-81467000D01*
X48480505Y-81468204D01*
X48480505Y-81468204D01*
G37*
D11*
X48006000Y-82042000D03*
D10*
G36*
X48480505Y-79418204D02*
X48504773Y-79421804D01*
X48528572Y-79427765D01*
X48551671Y-79436030D01*
X48573850Y-79446520D01*
X48594893Y-79459132D01*
X48614599Y-79473747D01*
X48632777Y-79490223D01*
X48649253Y-79508401D01*
X48663868Y-79528107D01*
X48676480Y-79549150D01*
X48686970Y-79571329D01*
X48695235Y-79594428D01*
X48701196Y-79618227D01*
X48704796Y-79642495D01*
X48706000Y-79666999D01*
X48706000Y-80317001D01*
X48704796Y-80341505D01*
X48701196Y-80365773D01*
X48695235Y-80389572D01*
X48686970Y-80412671D01*
X48676480Y-80434850D01*
X48663868Y-80455893D01*
X48649253Y-80475599D01*
X48632777Y-80493777D01*
X48614599Y-80510253D01*
X48594893Y-80524868D01*
X48573850Y-80537480D01*
X48551671Y-80547970D01*
X48528572Y-80556235D01*
X48504773Y-80562196D01*
X48480505Y-80565796D01*
X48456001Y-80567000D01*
X47555999Y-80567000D01*
X47531495Y-80565796D01*
X47507227Y-80562196D01*
X47483428Y-80556235D01*
X47460329Y-80547970D01*
X47438150Y-80537480D01*
X47417107Y-80524868D01*
X47397401Y-80510253D01*
X47379223Y-80493777D01*
X47362747Y-80475599D01*
X47348132Y-80455893D01*
X47335520Y-80434850D01*
X47325030Y-80412671D01*
X47316765Y-80389572D01*
X47310804Y-80365773D01*
X47307204Y-80341505D01*
X47306000Y-80317001D01*
X47306000Y-79666999D01*
X47307204Y-79642495D01*
X47310804Y-79618227D01*
X47316765Y-79594428D01*
X47325030Y-79571329D01*
X47335520Y-79549150D01*
X47348132Y-79528107D01*
X47362747Y-79508401D01*
X47379223Y-79490223D01*
X47397401Y-79473747D01*
X47417107Y-79459132D01*
X47438150Y-79446520D01*
X47460329Y-79436030D01*
X47483428Y-79427765D01*
X47507227Y-79421804D01*
X47531495Y-79418204D01*
X47555999Y-79417000D01*
X48456001Y-79417000D01*
X48480505Y-79418204D01*
X48480505Y-79418204D01*
G37*
D11*
X48006000Y-79992000D03*
G04 #@! TD*
D10*
G04 #@! TO.C,C7*
G36*
X61180505Y-79436204D02*
X61204773Y-79439804D01*
X61228572Y-79445765D01*
X61251671Y-79454030D01*
X61273850Y-79464520D01*
X61294893Y-79477132D01*
X61314599Y-79491747D01*
X61332777Y-79508223D01*
X61349253Y-79526401D01*
X61363868Y-79546107D01*
X61376480Y-79567150D01*
X61386970Y-79589329D01*
X61395235Y-79612428D01*
X61401196Y-79636227D01*
X61404796Y-79660495D01*
X61406000Y-79684999D01*
X61406000Y-80335001D01*
X61404796Y-80359505D01*
X61401196Y-80383773D01*
X61395235Y-80407572D01*
X61386970Y-80430671D01*
X61376480Y-80452850D01*
X61363868Y-80473893D01*
X61349253Y-80493599D01*
X61332777Y-80511777D01*
X61314599Y-80528253D01*
X61294893Y-80542868D01*
X61273850Y-80555480D01*
X61251671Y-80565970D01*
X61228572Y-80574235D01*
X61204773Y-80580196D01*
X61180505Y-80583796D01*
X61156001Y-80585000D01*
X60255999Y-80585000D01*
X60231495Y-80583796D01*
X60207227Y-80580196D01*
X60183428Y-80574235D01*
X60160329Y-80565970D01*
X60138150Y-80555480D01*
X60117107Y-80542868D01*
X60097401Y-80528253D01*
X60079223Y-80511777D01*
X60062747Y-80493599D01*
X60048132Y-80473893D01*
X60035520Y-80452850D01*
X60025030Y-80430671D01*
X60016765Y-80407572D01*
X60010804Y-80383773D01*
X60007204Y-80359505D01*
X60006000Y-80335001D01*
X60006000Y-79684999D01*
X60007204Y-79660495D01*
X60010804Y-79636227D01*
X60016765Y-79612428D01*
X60025030Y-79589329D01*
X60035520Y-79567150D01*
X60048132Y-79546107D01*
X60062747Y-79526401D01*
X60079223Y-79508223D01*
X60097401Y-79491747D01*
X60117107Y-79477132D01*
X60138150Y-79464520D01*
X60160329Y-79454030D01*
X60183428Y-79445765D01*
X60207227Y-79439804D01*
X60231495Y-79436204D01*
X60255999Y-79435000D01*
X61156001Y-79435000D01*
X61180505Y-79436204D01*
X61180505Y-79436204D01*
G37*
D11*
X60706000Y-80010000D03*
D10*
G36*
X61180505Y-81486204D02*
X61204773Y-81489804D01*
X61228572Y-81495765D01*
X61251671Y-81504030D01*
X61273850Y-81514520D01*
X61294893Y-81527132D01*
X61314599Y-81541747D01*
X61332777Y-81558223D01*
X61349253Y-81576401D01*
X61363868Y-81596107D01*
X61376480Y-81617150D01*
X61386970Y-81639329D01*
X61395235Y-81662428D01*
X61401196Y-81686227D01*
X61404796Y-81710495D01*
X61406000Y-81734999D01*
X61406000Y-82385001D01*
X61404796Y-82409505D01*
X61401196Y-82433773D01*
X61395235Y-82457572D01*
X61386970Y-82480671D01*
X61376480Y-82502850D01*
X61363868Y-82523893D01*
X61349253Y-82543599D01*
X61332777Y-82561777D01*
X61314599Y-82578253D01*
X61294893Y-82592868D01*
X61273850Y-82605480D01*
X61251671Y-82615970D01*
X61228572Y-82624235D01*
X61204773Y-82630196D01*
X61180505Y-82633796D01*
X61156001Y-82635000D01*
X60255999Y-82635000D01*
X60231495Y-82633796D01*
X60207227Y-82630196D01*
X60183428Y-82624235D01*
X60160329Y-82615970D01*
X60138150Y-82605480D01*
X60117107Y-82592868D01*
X60097401Y-82578253D01*
X60079223Y-82561777D01*
X60062747Y-82543599D01*
X60048132Y-82523893D01*
X60035520Y-82502850D01*
X60025030Y-82480671D01*
X60016765Y-82457572D01*
X60010804Y-82433773D01*
X60007204Y-82409505D01*
X60006000Y-82385001D01*
X60006000Y-81734999D01*
X60007204Y-81710495D01*
X60010804Y-81686227D01*
X60016765Y-81662428D01*
X60025030Y-81639329D01*
X60035520Y-81617150D01*
X60048132Y-81596107D01*
X60062747Y-81576401D01*
X60079223Y-81558223D01*
X60097401Y-81541747D01*
X60117107Y-81527132D01*
X60138150Y-81514520D01*
X60160329Y-81504030D01*
X60183428Y-81495765D01*
X60207227Y-81489804D01*
X60231495Y-81486204D01*
X60255999Y-81485000D01*
X61156001Y-81485000D01*
X61180505Y-81486204D01*
X61180505Y-81486204D01*
G37*
D11*
X60706000Y-82060000D03*
G04 #@! TD*
D10*
G04 #@! TO.C,C6*
G36*
X73626505Y-81468204D02*
X73650773Y-81471804D01*
X73674572Y-81477765D01*
X73697671Y-81486030D01*
X73719850Y-81496520D01*
X73740893Y-81509132D01*
X73760599Y-81523747D01*
X73778777Y-81540223D01*
X73795253Y-81558401D01*
X73809868Y-81578107D01*
X73822480Y-81599150D01*
X73832970Y-81621329D01*
X73841235Y-81644428D01*
X73847196Y-81668227D01*
X73850796Y-81692495D01*
X73852000Y-81716999D01*
X73852000Y-82367001D01*
X73850796Y-82391505D01*
X73847196Y-82415773D01*
X73841235Y-82439572D01*
X73832970Y-82462671D01*
X73822480Y-82484850D01*
X73809868Y-82505893D01*
X73795253Y-82525599D01*
X73778777Y-82543777D01*
X73760599Y-82560253D01*
X73740893Y-82574868D01*
X73719850Y-82587480D01*
X73697671Y-82597970D01*
X73674572Y-82606235D01*
X73650773Y-82612196D01*
X73626505Y-82615796D01*
X73602001Y-82617000D01*
X72701999Y-82617000D01*
X72677495Y-82615796D01*
X72653227Y-82612196D01*
X72629428Y-82606235D01*
X72606329Y-82597970D01*
X72584150Y-82587480D01*
X72563107Y-82574868D01*
X72543401Y-82560253D01*
X72525223Y-82543777D01*
X72508747Y-82525599D01*
X72494132Y-82505893D01*
X72481520Y-82484850D01*
X72471030Y-82462671D01*
X72462765Y-82439572D01*
X72456804Y-82415773D01*
X72453204Y-82391505D01*
X72452000Y-82367001D01*
X72452000Y-81716999D01*
X72453204Y-81692495D01*
X72456804Y-81668227D01*
X72462765Y-81644428D01*
X72471030Y-81621329D01*
X72481520Y-81599150D01*
X72494132Y-81578107D01*
X72508747Y-81558401D01*
X72525223Y-81540223D01*
X72543401Y-81523747D01*
X72563107Y-81509132D01*
X72584150Y-81496520D01*
X72606329Y-81486030D01*
X72629428Y-81477765D01*
X72653227Y-81471804D01*
X72677495Y-81468204D01*
X72701999Y-81467000D01*
X73602001Y-81467000D01*
X73626505Y-81468204D01*
X73626505Y-81468204D01*
G37*
D11*
X73152000Y-82042000D03*
D10*
G36*
X73626505Y-79418204D02*
X73650773Y-79421804D01*
X73674572Y-79427765D01*
X73697671Y-79436030D01*
X73719850Y-79446520D01*
X73740893Y-79459132D01*
X73760599Y-79473747D01*
X73778777Y-79490223D01*
X73795253Y-79508401D01*
X73809868Y-79528107D01*
X73822480Y-79549150D01*
X73832970Y-79571329D01*
X73841235Y-79594428D01*
X73847196Y-79618227D01*
X73850796Y-79642495D01*
X73852000Y-79666999D01*
X73852000Y-80317001D01*
X73850796Y-80341505D01*
X73847196Y-80365773D01*
X73841235Y-80389572D01*
X73832970Y-80412671D01*
X73822480Y-80434850D01*
X73809868Y-80455893D01*
X73795253Y-80475599D01*
X73778777Y-80493777D01*
X73760599Y-80510253D01*
X73740893Y-80524868D01*
X73719850Y-80537480D01*
X73697671Y-80547970D01*
X73674572Y-80556235D01*
X73650773Y-80562196D01*
X73626505Y-80565796D01*
X73602001Y-80567000D01*
X72701999Y-80567000D01*
X72677495Y-80565796D01*
X72653227Y-80562196D01*
X72629428Y-80556235D01*
X72606329Y-80547970D01*
X72584150Y-80537480D01*
X72563107Y-80524868D01*
X72543401Y-80510253D01*
X72525223Y-80493777D01*
X72508747Y-80475599D01*
X72494132Y-80455893D01*
X72481520Y-80434850D01*
X72471030Y-80412671D01*
X72462765Y-80389572D01*
X72456804Y-80365773D01*
X72453204Y-80341505D01*
X72452000Y-80317001D01*
X72452000Y-79666999D01*
X72453204Y-79642495D01*
X72456804Y-79618227D01*
X72462765Y-79594428D01*
X72471030Y-79571329D01*
X72481520Y-79549150D01*
X72494132Y-79528107D01*
X72508747Y-79508401D01*
X72525223Y-79490223D01*
X72543401Y-79473747D01*
X72563107Y-79459132D01*
X72584150Y-79446520D01*
X72606329Y-79436030D01*
X72629428Y-79427765D01*
X72653227Y-79421804D01*
X72677495Y-79418204D01*
X72701999Y-79417000D01*
X73602001Y-79417000D01*
X73626505Y-79418204D01*
X73626505Y-79418204D01*
G37*
D11*
X73152000Y-79992000D03*
G04 #@! TD*
D10*
G04 #@! TO.C,C5*
G36*
X86072505Y-79427204D02*
X86096773Y-79430804D01*
X86120572Y-79436765D01*
X86143671Y-79445030D01*
X86165850Y-79455520D01*
X86186893Y-79468132D01*
X86206599Y-79482747D01*
X86224777Y-79499223D01*
X86241253Y-79517401D01*
X86255868Y-79537107D01*
X86268480Y-79558150D01*
X86278970Y-79580329D01*
X86287235Y-79603428D01*
X86293196Y-79627227D01*
X86296796Y-79651495D01*
X86298000Y-79675999D01*
X86298000Y-80326001D01*
X86296796Y-80350505D01*
X86293196Y-80374773D01*
X86287235Y-80398572D01*
X86278970Y-80421671D01*
X86268480Y-80443850D01*
X86255868Y-80464893D01*
X86241253Y-80484599D01*
X86224777Y-80502777D01*
X86206599Y-80519253D01*
X86186893Y-80533868D01*
X86165850Y-80546480D01*
X86143671Y-80556970D01*
X86120572Y-80565235D01*
X86096773Y-80571196D01*
X86072505Y-80574796D01*
X86048001Y-80576000D01*
X85147999Y-80576000D01*
X85123495Y-80574796D01*
X85099227Y-80571196D01*
X85075428Y-80565235D01*
X85052329Y-80556970D01*
X85030150Y-80546480D01*
X85009107Y-80533868D01*
X84989401Y-80519253D01*
X84971223Y-80502777D01*
X84954747Y-80484599D01*
X84940132Y-80464893D01*
X84927520Y-80443850D01*
X84917030Y-80421671D01*
X84908765Y-80398572D01*
X84902804Y-80374773D01*
X84899204Y-80350505D01*
X84898000Y-80326001D01*
X84898000Y-79675999D01*
X84899204Y-79651495D01*
X84902804Y-79627227D01*
X84908765Y-79603428D01*
X84917030Y-79580329D01*
X84927520Y-79558150D01*
X84940132Y-79537107D01*
X84954747Y-79517401D01*
X84971223Y-79499223D01*
X84989401Y-79482747D01*
X85009107Y-79468132D01*
X85030150Y-79455520D01*
X85052329Y-79445030D01*
X85075428Y-79436765D01*
X85099227Y-79430804D01*
X85123495Y-79427204D01*
X85147999Y-79426000D01*
X86048001Y-79426000D01*
X86072505Y-79427204D01*
X86072505Y-79427204D01*
G37*
D11*
X85598000Y-80001000D03*
D10*
G36*
X86072505Y-81477204D02*
X86096773Y-81480804D01*
X86120572Y-81486765D01*
X86143671Y-81495030D01*
X86165850Y-81505520D01*
X86186893Y-81518132D01*
X86206599Y-81532747D01*
X86224777Y-81549223D01*
X86241253Y-81567401D01*
X86255868Y-81587107D01*
X86268480Y-81608150D01*
X86278970Y-81630329D01*
X86287235Y-81653428D01*
X86293196Y-81677227D01*
X86296796Y-81701495D01*
X86298000Y-81725999D01*
X86298000Y-82376001D01*
X86296796Y-82400505D01*
X86293196Y-82424773D01*
X86287235Y-82448572D01*
X86278970Y-82471671D01*
X86268480Y-82493850D01*
X86255868Y-82514893D01*
X86241253Y-82534599D01*
X86224777Y-82552777D01*
X86206599Y-82569253D01*
X86186893Y-82583868D01*
X86165850Y-82596480D01*
X86143671Y-82606970D01*
X86120572Y-82615235D01*
X86096773Y-82621196D01*
X86072505Y-82624796D01*
X86048001Y-82626000D01*
X85147999Y-82626000D01*
X85123495Y-82624796D01*
X85099227Y-82621196D01*
X85075428Y-82615235D01*
X85052329Y-82606970D01*
X85030150Y-82596480D01*
X85009107Y-82583868D01*
X84989401Y-82569253D01*
X84971223Y-82552777D01*
X84954747Y-82534599D01*
X84940132Y-82514893D01*
X84927520Y-82493850D01*
X84917030Y-82471671D01*
X84908765Y-82448572D01*
X84902804Y-82424773D01*
X84899204Y-82400505D01*
X84898000Y-82376001D01*
X84898000Y-81725999D01*
X84899204Y-81701495D01*
X84902804Y-81677227D01*
X84908765Y-81653428D01*
X84917030Y-81630329D01*
X84927520Y-81608150D01*
X84940132Y-81587107D01*
X84954747Y-81567401D01*
X84971223Y-81549223D01*
X84989401Y-81532747D01*
X85009107Y-81518132D01*
X85030150Y-81505520D01*
X85052329Y-81495030D01*
X85075428Y-81486765D01*
X85099227Y-81480804D01*
X85123495Y-81477204D01*
X85147999Y-81476000D01*
X86048001Y-81476000D01*
X86072505Y-81477204D01*
X86072505Y-81477204D01*
G37*
D11*
X85598000Y-82051000D03*
G04 #@! TD*
D10*
G04 #@! TO.C,C4*
G36*
X98518505Y-81477204D02*
X98542773Y-81480804D01*
X98566572Y-81486765D01*
X98589671Y-81495030D01*
X98611850Y-81505520D01*
X98632893Y-81518132D01*
X98652599Y-81532747D01*
X98670777Y-81549223D01*
X98687253Y-81567401D01*
X98701868Y-81587107D01*
X98714480Y-81608150D01*
X98724970Y-81630329D01*
X98733235Y-81653428D01*
X98739196Y-81677227D01*
X98742796Y-81701495D01*
X98744000Y-81725999D01*
X98744000Y-82376001D01*
X98742796Y-82400505D01*
X98739196Y-82424773D01*
X98733235Y-82448572D01*
X98724970Y-82471671D01*
X98714480Y-82493850D01*
X98701868Y-82514893D01*
X98687253Y-82534599D01*
X98670777Y-82552777D01*
X98652599Y-82569253D01*
X98632893Y-82583868D01*
X98611850Y-82596480D01*
X98589671Y-82606970D01*
X98566572Y-82615235D01*
X98542773Y-82621196D01*
X98518505Y-82624796D01*
X98494001Y-82626000D01*
X97593999Y-82626000D01*
X97569495Y-82624796D01*
X97545227Y-82621196D01*
X97521428Y-82615235D01*
X97498329Y-82606970D01*
X97476150Y-82596480D01*
X97455107Y-82583868D01*
X97435401Y-82569253D01*
X97417223Y-82552777D01*
X97400747Y-82534599D01*
X97386132Y-82514893D01*
X97373520Y-82493850D01*
X97363030Y-82471671D01*
X97354765Y-82448572D01*
X97348804Y-82424773D01*
X97345204Y-82400505D01*
X97344000Y-82376001D01*
X97344000Y-81725999D01*
X97345204Y-81701495D01*
X97348804Y-81677227D01*
X97354765Y-81653428D01*
X97363030Y-81630329D01*
X97373520Y-81608150D01*
X97386132Y-81587107D01*
X97400747Y-81567401D01*
X97417223Y-81549223D01*
X97435401Y-81532747D01*
X97455107Y-81518132D01*
X97476150Y-81505520D01*
X97498329Y-81495030D01*
X97521428Y-81486765D01*
X97545227Y-81480804D01*
X97569495Y-81477204D01*
X97593999Y-81476000D01*
X98494001Y-81476000D01*
X98518505Y-81477204D01*
X98518505Y-81477204D01*
G37*
D11*
X98044000Y-82051000D03*
D10*
G36*
X98518505Y-79427204D02*
X98542773Y-79430804D01*
X98566572Y-79436765D01*
X98589671Y-79445030D01*
X98611850Y-79455520D01*
X98632893Y-79468132D01*
X98652599Y-79482747D01*
X98670777Y-79499223D01*
X98687253Y-79517401D01*
X98701868Y-79537107D01*
X98714480Y-79558150D01*
X98724970Y-79580329D01*
X98733235Y-79603428D01*
X98739196Y-79627227D01*
X98742796Y-79651495D01*
X98744000Y-79675999D01*
X98744000Y-80326001D01*
X98742796Y-80350505D01*
X98739196Y-80374773D01*
X98733235Y-80398572D01*
X98724970Y-80421671D01*
X98714480Y-80443850D01*
X98701868Y-80464893D01*
X98687253Y-80484599D01*
X98670777Y-80502777D01*
X98652599Y-80519253D01*
X98632893Y-80533868D01*
X98611850Y-80546480D01*
X98589671Y-80556970D01*
X98566572Y-80565235D01*
X98542773Y-80571196D01*
X98518505Y-80574796D01*
X98494001Y-80576000D01*
X97593999Y-80576000D01*
X97569495Y-80574796D01*
X97545227Y-80571196D01*
X97521428Y-80565235D01*
X97498329Y-80556970D01*
X97476150Y-80546480D01*
X97455107Y-80533868D01*
X97435401Y-80519253D01*
X97417223Y-80502777D01*
X97400747Y-80484599D01*
X97386132Y-80464893D01*
X97373520Y-80443850D01*
X97363030Y-80421671D01*
X97354765Y-80398572D01*
X97348804Y-80374773D01*
X97345204Y-80350505D01*
X97344000Y-80326001D01*
X97344000Y-79675999D01*
X97345204Y-79651495D01*
X97348804Y-79627227D01*
X97354765Y-79603428D01*
X97363030Y-79580329D01*
X97373520Y-79558150D01*
X97386132Y-79537107D01*
X97400747Y-79517401D01*
X97417223Y-79499223D01*
X97435401Y-79482747D01*
X97455107Y-79468132D01*
X97476150Y-79455520D01*
X97498329Y-79445030D01*
X97521428Y-79436765D01*
X97545227Y-79430804D01*
X97569495Y-79427204D01*
X97593999Y-79426000D01*
X98494001Y-79426000D01*
X98518505Y-79427204D01*
X98518505Y-79427204D01*
G37*
D11*
X98044000Y-80001000D03*
G04 #@! TD*
D10*
G04 #@! TO.C,C3*
G36*
X111472505Y-79418204D02*
X111496773Y-79421804D01*
X111520572Y-79427765D01*
X111543671Y-79436030D01*
X111565850Y-79446520D01*
X111586893Y-79459132D01*
X111606599Y-79473747D01*
X111624777Y-79490223D01*
X111641253Y-79508401D01*
X111655868Y-79528107D01*
X111668480Y-79549150D01*
X111678970Y-79571329D01*
X111687235Y-79594428D01*
X111693196Y-79618227D01*
X111696796Y-79642495D01*
X111698000Y-79666999D01*
X111698000Y-80317001D01*
X111696796Y-80341505D01*
X111693196Y-80365773D01*
X111687235Y-80389572D01*
X111678970Y-80412671D01*
X111668480Y-80434850D01*
X111655868Y-80455893D01*
X111641253Y-80475599D01*
X111624777Y-80493777D01*
X111606599Y-80510253D01*
X111586893Y-80524868D01*
X111565850Y-80537480D01*
X111543671Y-80547970D01*
X111520572Y-80556235D01*
X111496773Y-80562196D01*
X111472505Y-80565796D01*
X111448001Y-80567000D01*
X110547999Y-80567000D01*
X110523495Y-80565796D01*
X110499227Y-80562196D01*
X110475428Y-80556235D01*
X110452329Y-80547970D01*
X110430150Y-80537480D01*
X110409107Y-80524868D01*
X110389401Y-80510253D01*
X110371223Y-80493777D01*
X110354747Y-80475599D01*
X110340132Y-80455893D01*
X110327520Y-80434850D01*
X110317030Y-80412671D01*
X110308765Y-80389572D01*
X110302804Y-80365773D01*
X110299204Y-80341505D01*
X110298000Y-80317001D01*
X110298000Y-79666999D01*
X110299204Y-79642495D01*
X110302804Y-79618227D01*
X110308765Y-79594428D01*
X110317030Y-79571329D01*
X110327520Y-79549150D01*
X110340132Y-79528107D01*
X110354747Y-79508401D01*
X110371223Y-79490223D01*
X110389401Y-79473747D01*
X110409107Y-79459132D01*
X110430150Y-79446520D01*
X110452329Y-79436030D01*
X110475428Y-79427765D01*
X110499227Y-79421804D01*
X110523495Y-79418204D01*
X110547999Y-79417000D01*
X111448001Y-79417000D01*
X111472505Y-79418204D01*
X111472505Y-79418204D01*
G37*
D11*
X110998000Y-79992000D03*
D10*
G36*
X111472505Y-81468204D02*
X111496773Y-81471804D01*
X111520572Y-81477765D01*
X111543671Y-81486030D01*
X111565850Y-81496520D01*
X111586893Y-81509132D01*
X111606599Y-81523747D01*
X111624777Y-81540223D01*
X111641253Y-81558401D01*
X111655868Y-81578107D01*
X111668480Y-81599150D01*
X111678970Y-81621329D01*
X111687235Y-81644428D01*
X111693196Y-81668227D01*
X111696796Y-81692495D01*
X111698000Y-81716999D01*
X111698000Y-82367001D01*
X111696796Y-82391505D01*
X111693196Y-82415773D01*
X111687235Y-82439572D01*
X111678970Y-82462671D01*
X111668480Y-82484850D01*
X111655868Y-82505893D01*
X111641253Y-82525599D01*
X111624777Y-82543777D01*
X111606599Y-82560253D01*
X111586893Y-82574868D01*
X111565850Y-82587480D01*
X111543671Y-82597970D01*
X111520572Y-82606235D01*
X111496773Y-82612196D01*
X111472505Y-82615796D01*
X111448001Y-82617000D01*
X110547999Y-82617000D01*
X110523495Y-82615796D01*
X110499227Y-82612196D01*
X110475428Y-82606235D01*
X110452329Y-82597970D01*
X110430150Y-82587480D01*
X110409107Y-82574868D01*
X110389401Y-82560253D01*
X110371223Y-82543777D01*
X110354747Y-82525599D01*
X110340132Y-82505893D01*
X110327520Y-82484850D01*
X110317030Y-82462671D01*
X110308765Y-82439572D01*
X110302804Y-82415773D01*
X110299204Y-82391505D01*
X110298000Y-82367001D01*
X110298000Y-81716999D01*
X110299204Y-81692495D01*
X110302804Y-81668227D01*
X110308765Y-81644428D01*
X110317030Y-81621329D01*
X110327520Y-81599150D01*
X110340132Y-81578107D01*
X110354747Y-81558401D01*
X110371223Y-81540223D01*
X110389401Y-81523747D01*
X110409107Y-81509132D01*
X110430150Y-81496520D01*
X110452329Y-81486030D01*
X110475428Y-81477765D01*
X110499227Y-81471804D01*
X110523495Y-81468204D01*
X110547999Y-81467000D01*
X111448001Y-81467000D01*
X111472505Y-81468204D01*
X111472505Y-81468204D01*
G37*
D11*
X110998000Y-82042000D03*
G04 #@! TD*
D10*
G04 #@! TO.C,C2*
G36*
X124172505Y-81486204D02*
X124196773Y-81489804D01*
X124220572Y-81495765D01*
X124243671Y-81504030D01*
X124265850Y-81514520D01*
X124286893Y-81527132D01*
X124306599Y-81541747D01*
X124324777Y-81558223D01*
X124341253Y-81576401D01*
X124355868Y-81596107D01*
X124368480Y-81617150D01*
X124378970Y-81639329D01*
X124387235Y-81662428D01*
X124393196Y-81686227D01*
X124396796Y-81710495D01*
X124398000Y-81734999D01*
X124398000Y-82385001D01*
X124396796Y-82409505D01*
X124393196Y-82433773D01*
X124387235Y-82457572D01*
X124378970Y-82480671D01*
X124368480Y-82502850D01*
X124355868Y-82523893D01*
X124341253Y-82543599D01*
X124324777Y-82561777D01*
X124306599Y-82578253D01*
X124286893Y-82592868D01*
X124265850Y-82605480D01*
X124243671Y-82615970D01*
X124220572Y-82624235D01*
X124196773Y-82630196D01*
X124172505Y-82633796D01*
X124148001Y-82635000D01*
X123247999Y-82635000D01*
X123223495Y-82633796D01*
X123199227Y-82630196D01*
X123175428Y-82624235D01*
X123152329Y-82615970D01*
X123130150Y-82605480D01*
X123109107Y-82592868D01*
X123089401Y-82578253D01*
X123071223Y-82561777D01*
X123054747Y-82543599D01*
X123040132Y-82523893D01*
X123027520Y-82502850D01*
X123017030Y-82480671D01*
X123008765Y-82457572D01*
X123002804Y-82433773D01*
X122999204Y-82409505D01*
X122998000Y-82385001D01*
X122998000Y-81734999D01*
X122999204Y-81710495D01*
X123002804Y-81686227D01*
X123008765Y-81662428D01*
X123017030Y-81639329D01*
X123027520Y-81617150D01*
X123040132Y-81596107D01*
X123054747Y-81576401D01*
X123071223Y-81558223D01*
X123089401Y-81541747D01*
X123109107Y-81527132D01*
X123130150Y-81514520D01*
X123152329Y-81504030D01*
X123175428Y-81495765D01*
X123199227Y-81489804D01*
X123223495Y-81486204D01*
X123247999Y-81485000D01*
X124148001Y-81485000D01*
X124172505Y-81486204D01*
X124172505Y-81486204D01*
G37*
D11*
X123698000Y-82060000D03*
D10*
G36*
X124172505Y-79436204D02*
X124196773Y-79439804D01*
X124220572Y-79445765D01*
X124243671Y-79454030D01*
X124265850Y-79464520D01*
X124286893Y-79477132D01*
X124306599Y-79491747D01*
X124324777Y-79508223D01*
X124341253Y-79526401D01*
X124355868Y-79546107D01*
X124368480Y-79567150D01*
X124378970Y-79589329D01*
X124387235Y-79612428D01*
X124393196Y-79636227D01*
X124396796Y-79660495D01*
X124398000Y-79684999D01*
X124398000Y-80335001D01*
X124396796Y-80359505D01*
X124393196Y-80383773D01*
X124387235Y-80407572D01*
X124378970Y-80430671D01*
X124368480Y-80452850D01*
X124355868Y-80473893D01*
X124341253Y-80493599D01*
X124324777Y-80511777D01*
X124306599Y-80528253D01*
X124286893Y-80542868D01*
X124265850Y-80555480D01*
X124243671Y-80565970D01*
X124220572Y-80574235D01*
X124196773Y-80580196D01*
X124172505Y-80583796D01*
X124148001Y-80585000D01*
X123247999Y-80585000D01*
X123223495Y-80583796D01*
X123199227Y-80580196D01*
X123175428Y-80574235D01*
X123152329Y-80565970D01*
X123130150Y-80555480D01*
X123109107Y-80542868D01*
X123089401Y-80528253D01*
X123071223Y-80511777D01*
X123054747Y-80493599D01*
X123040132Y-80473893D01*
X123027520Y-80452850D01*
X123017030Y-80430671D01*
X123008765Y-80407572D01*
X123002804Y-80383773D01*
X122999204Y-80359505D01*
X122998000Y-80335001D01*
X122998000Y-79684999D01*
X122999204Y-79660495D01*
X123002804Y-79636227D01*
X123008765Y-79612428D01*
X123017030Y-79589329D01*
X123027520Y-79567150D01*
X123040132Y-79546107D01*
X123054747Y-79526401D01*
X123071223Y-79508223D01*
X123089401Y-79491747D01*
X123109107Y-79477132D01*
X123130150Y-79464520D01*
X123152329Y-79454030D01*
X123175428Y-79445765D01*
X123199227Y-79439804D01*
X123223495Y-79436204D01*
X123247999Y-79435000D01*
X124148001Y-79435000D01*
X124172505Y-79436204D01*
X124172505Y-79436204D01*
G37*
D11*
X123698000Y-80010000D03*
G04 #@! TD*
D10*
G04 #@! TO.C,C1*
G36*
X136872505Y-79418204D02*
X136896773Y-79421804D01*
X136920572Y-79427765D01*
X136943671Y-79436030D01*
X136965850Y-79446520D01*
X136986893Y-79459132D01*
X137006599Y-79473747D01*
X137024777Y-79490223D01*
X137041253Y-79508401D01*
X137055868Y-79528107D01*
X137068480Y-79549150D01*
X137078970Y-79571329D01*
X137087235Y-79594428D01*
X137093196Y-79618227D01*
X137096796Y-79642495D01*
X137098000Y-79666999D01*
X137098000Y-80317001D01*
X137096796Y-80341505D01*
X137093196Y-80365773D01*
X137087235Y-80389572D01*
X137078970Y-80412671D01*
X137068480Y-80434850D01*
X137055868Y-80455893D01*
X137041253Y-80475599D01*
X137024777Y-80493777D01*
X137006599Y-80510253D01*
X136986893Y-80524868D01*
X136965850Y-80537480D01*
X136943671Y-80547970D01*
X136920572Y-80556235D01*
X136896773Y-80562196D01*
X136872505Y-80565796D01*
X136848001Y-80567000D01*
X135947999Y-80567000D01*
X135923495Y-80565796D01*
X135899227Y-80562196D01*
X135875428Y-80556235D01*
X135852329Y-80547970D01*
X135830150Y-80537480D01*
X135809107Y-80524868D01*
X135789401Y-80510253D01*
X135771223Y-80493777D01*
X135754747Y-80475599D01*
X135740132Y-80455893D01*
X135727520Y-80434850D01*
X135717030Y-80412671D01*
X135708765Y-80389572D01*
X135702804Y-80365773D01*
X135699204Y-80341505D01*
X135698000Y-80317001D01*
X135698000Y-79666999D01*
X135699204Y-79642495D01*
X135702804Y-79618227D01*
X135708765Y-79594428D01*
X135717030Y-79571329D01*
X135727520Y-79549150D01*
X135740132Y-79528107D01*
X135754747Y-79508401D01*
X135771223Y-79490223D01*
X135789401Y-79473747D01*
X135809107Y-79459132D01*
X135830150Y-79446520D01*
X135852329Y-79436030D01*
X135875428Y-79427765D01*
X135899227Y-79421804D01*
X135923495Y-79418204D01*
X135947999Y-79417000D01*
X136848001Y-79417000D01*
X136872505Y-79418204D01*
X136872505Y-79418204D01*
G37*
D11*
X136398000Y-79992000D03*
D10*
G36*
X136872505Y-81468204D02*
X136896773Y-81471804D01*
X136920572Y-81477765D01*
X136943671Y-81486030D01*
X136965850Y-81496520D01*
X136986893Y-81509132D01*
X137006599Y-81523747D01*
X137024777Y-81540223D01*
X137041253Y-81558401D01*
X137055868Y-81578107D01*
X137068480Y-81599150D01*
X137078970Y-81621329D01*
X137087235Y-81644428D01*
X137093196Y-81668227D01*
X137096796Y-81692495D01*
X137098000Y-81716999D01*
X137098000Y-82367001D01*
X137096796Y-82391505D01*
X137093196Y-82415773D01*
X137087235Y-82439572D01*
X137078970Y-82462671D01*
X137068480Y-82484850D01*
X137055868Y-82505893D01*
X137041253Y-82525599D01*
X137024777Y-82543777D01*
X137006599Y-82560253D01*
X136986893Y-82574868D01*
X136965850Y-82587480D01*
X136943671Y-82597970D01*
X136920572Y-82606235D01*
X136896773Y-82612196D01*
X136872505Y-82615796D01*
X136848001Y-82617000D01*
X135947999Y-82617000D01*
X135923495Y-82615796D01*
X135899227Y-82612196D01*
X135875428Y-82606235D01*
X135852329Y-82597970D01*
X135830150Y-82587480D01*
X135809107Y-82574868D01*
X135789401Y-82560253D01*
X135771223Y-82543777D01*
X135754747Y-82525599D01*
X135740132Y-82505893D01*
X135727520Y-82484850D01*
X135717030Y-82462671D01*
X135708765Y-82439572D01*
X135702804Y-82415773D01*
X135699204Y-82391505D01*
X135698000Y-82367001D01*
X135698000Y-81716999D01*
X135699204Y-81692495D01*
X135702804Y-81668227D01*
X135708765Y-81644428D01*
X135717030Y-81621329D01*
X135727520Y-81599150D01*
X135740132Y-81578107D01*
X135754747Y-81558401D01*
X135771223Y-81540223D01*
X135789401Y-81523747D01*
X135809107Y-81509132D01*
X135830150Y-81496520D01*
X135852329Y-81486030D01*
X135875428Y-81477765D01*
X135899227Y-81471804D01*
X135923495Y-81468204D01*
X135947999Y-81467000D01*
X136848001Y-81467000D01*
X136872505Y-81468204D01*
X136872505Y-81468204D01*
G37*
D11*
X136398000Y-82042000D03*
G04 #@! TD*
D12*
G04 #@! TO.C,U1*
X123190000Y-49276000D03*
X121920000Y-49276000D03*
X120650000Y-49276000D03*
X119380000Y-49276000D03*
X119380000Y-43876000D03*
X120650000Y-43876000D03*
X121920000Y-43876000D03*
X123190000Y-43876000D03*
G04 #@! TD*
D10*
G04 #@! TO.C,R6*
G36*
X79214505Y-73358204D02*
X79238773Y-73361804D01*
X79262572Y-73367765D01*
X79285671Y-73376030D01*
X79307850Y-73386520D01*
X79328893Y-73399132D01*
X79348599Y-73413747D01*
X79366777Y-73430223D01*
X79383253Y-73448401D01*
X79397868Y-73468107D01*
X79410480Y-73489150D01*
X79420970Y-73511329D01*
X79429235Y-73534428D01*
X79435196Y-73558227D01*
X79438796Y-73582495D01*
X79440000Y-73606999D01*
X79440000Y-74257001D01*
X79438796Y-74281505D01*
X79435196Y-74305773D01*
X79429235Y-74329572D01*
X79420970Y-74352671D01*
X79410480Y-74374850D01*
X79397868Y-74395893D01*
X79383253Y-74415599D01*
X79366777Y-74433777D01*
X79348599Y-74450253D01*
X79328893Y-74464868D01*
X79307850Y-74477480D01*
X79285671Y-74487970D01*
X79262572Y-74496235D01*
X79238773Y-74502196D01*
X79214505Y-74505796D01*
X79190001Y-74507000D01*
X78289999Y-74507000D01*
X78265495Y-74505796D01*
X78241227Y-74502196D01*
X78217428Y-74496235D01*
X78194329Y-74487970D01*
X78172150Y-74477480D01*
X78151107Y-74464868D01*
X78131401Y-74450253D01*
X78113223Y-74433777D01*
X78096747Y-74415599D01*
X78082132Y-74395893D01*
X78069520Y-74374850D01*
X78059030Y-74352671D01*
X78050765Y-74329572D01*
X78044804Y-74305773D01*
X78041204Y-74281505D01*
X78040000Y-74257001D01*
X78040000Y-73606999D01*
X78041204Y-73582495D01*
X78044804Y-73558227D01*
X78050765Y-73534428D01*
X78059030Y-73511329D01*
X78069520Y-73489150D01*
X78082132Y-73468107D01*
X78096747Y-73448401D01*
X78113223Y-73430223D01*
X78131401Y-73413747D01*
X78151107Y-73399132D01*
X78172150Y-73386520D01*
X78194329Y-73376030D01*
X78217428Y-73367765D01*
X78241227Y-73361804D01*
X78265495Y-73358204D01*
X78289999Y-73357000D01*
X79190001Y-73357000D01*
X79214505Y-73358204D01*
X79214505Y-73358204D01*
G37*
D11*
X78740000Y-73932000D03*
D10*
G36*
X79214505Y-71308204D02*
X79238773Y-71311804D01*
X79262572Y-71317765D01*
X79285671Y-71326030D01*
X79307850Y-71336520D01*
X79328893Y-71349132D01*
X79348599Y-71363747D01*
X79366777Y-71380223D01*
X79383253Y-71398401D01*
X79397868Y-71418107D01*
X79410480Y-71439150D01*
X79420970Y-71461329D01*
X79429235Y-71484428D01*
X79435196Y-71508227D01*
X79438796Y-71532495D01*
X79440000Y-71556999D01*
X79440000Y-72207001D01*
X79438796Y-72231505D01*
X79435196Y-72255773D01*
X79429235Y-72279572D01*
X79420970Y-72302671D01*
X79410480Y-72324850D01*
X79397868Y-72345893D01*
X79383253Y-72365599D01*
X79366777Y-72383777D01*
X79348599Y-72400253D01*
X79328893Y-72414868D01*
X79307850Y-72427480D01*
X79285671Y-72437970D01*
X79262572Y-72446235D01*
X79238773Y-72452196D01*
X79214505Y-72455796D01*
X79190001Y-72457000D01*
X78289999Y-72457000D01*
X78265495Y-72455796D01*
X78241227Y-72452196D01*
X78217428Y-72446235D01*
X78194329Y-72437970D01*
X78172150Y-72427480D01*
X78151107Y-72414868D01*
X78131401Y-72400253D01*
X78113223Y-72383777D01*
X78096747Y-72365599D01*
X78082132Y-72345893D01*
X78069520Y-72324850D01*
X78059030Y-72302671D01*
X78050765Y-72279572D01*
X78044804Y-72255773D01*
X78041204Y-72231505D01*
X78040000Y-72207001D01*
X78040000Y-71556999D01*
X78041204Y-71532495D01*
X78044804Y-71508227D01*
X78050765Y-71484428D01*
X78059030Y-71461329D01*
X78069520Y-71439150D01*
X78082132Y-71418107D01*
X78096747Y-71398401D01*
X78113223Y-71380223D01*
X78131401Y-71363747D01*
X78151107Y-71349132D01*
X78172150Y-71336520D01*
X78194329Y-71326030D01*
X78217428Y-71317765D01*
X78241227Y-71311804D01*
X78265495Y-71308204D01*
X78289999Y-71307000D01*
X79190001Y-71307000D01*
X79214505Y-71308204D01*
X79214505Y-71308204D01*
G37*
D11*
X78740000Y-71882000D03*
G04 #@! TD*
D10*
G04 #@! TO.C,R12*
G36*
X129760505Y-61166204D02*
X129784773Y-61169804D01*
X129808572Y-61175765D01*
X129831671Y-61184030D01*
X129853850Y-61194520D01*
X129874893Y-61207132D01*
X129894599Y-61221747D01*
X129912777Y-61238223D01*
X129929253Y-61256401D01*
X129943868Y-61276107D01*
X129956480Y-61297150D01*
X129966970Y-61319329D01*
X129975235Y-61342428D01*
X129981196Y-61366227D01*
X129984796Y-61390495D01*
X129986000Y-61414999D01*
X129986000Y-62065001D01*
X129984796Y-62089505D01*
X129981196Y-62113773D01*
X129975235Y-62137572D01*
X129966970Y-62160671D01*
X129956480Y-62182850D01*
X129943868Y-62203893D01*
X129929253Y-62223599D01*
X129912777Y-62241777D01*
X129894599Y-62258253D01*
X129874893Y-62272868D01*
X129853850Y-62285480D01*
X129831671Y-62295970D01*
X129808572Y-62304235D01*
X129784773Y-62310196D01*
X129760505Y-62313796D01*
X129736001Y-62315000D01*
X128835999Y-62315000D01*
X128811495Y-62313796D01*
X128787227Y-62310196D01*
X128763428Y-62304235D01*
X128740329Y-62295970D01*
X128718150Y-62285480D01*
X128697107Y-62272868D01*
X128677401Y-62258253D01*
X128659223Y-62241777D01*
X128642747Y-62223599D01*
X128628132Y-62203893D01*
X128615520Y-62182850D01*
X128605030Y-62160671D01*
X128596765Y-62137572D01*
X128590804Y-62113773D01*
X128587204Y-62089505D01*
X128586000Y-62065001D01*
X128586000Y-61414999D01*
X128587204Y-61390495D01*
X128590804Y-61366227D01*
X128596765Y-61342428D01*
X128605030Y-61319329D01*
X128615520Y-61297150D01*
X128628132Y-61276107D01*
X128642747Y-61256401D01*
X128659223Y-61238223D01*
X128677401Y-61221747D01*
X128697107Y-61207132D01*
X128718150Y-61194520D01*
X128740329Y-61184030D01*
X128763428Y-61175765D01*
X128787227Y-61169804D01*
X128811495Y-61166204D01*
X128835999Y-61165000D01*
X129736001Y-61165000D01*
X129760505Y-61166204D01*
X129760505Y-61166204D01*
G37*
D11*
X129286000Y-61740000D03*
D10*
G36*
X129760505Y-59116204D02*
X129784773Y-59119804D01*
X129808572Y-59125765D01*
X129831671Y-59134030D01*
X129853850Y-59144520D01*
X129874893Y-59157132D01*
X129894599Y-59171747D01*
X129912777Y-59188223D01*
X129929253Y-59206401D01*
X129943868Y-59226107D01*
X129956480Y-59247150D01*
X129966970Y-59269329D01*
X129975235Y-59292428D01*
X129981196Y-59316227D01*
X129984796Y-59340495D01*
X129986000Y-59364999D01*
X129986000Y-60015001D01*
X129984796Y-60039505D01*
X129981196Y-60063773D01*
X129975235Y-60087572D01*
X129966970Y-60110671D01*
X129956480Y-60132850D01*
X129943868Y-60153893D01*
X129929253Y-60173599D01*
X129912777Y-60191777D01*
X129894599Y-60208253D01*
X129874893Y-60222868D01*
X129853850Y-60235480D01*
X129831671Y-60245970D01*
X129808572Y-60254235D01*
X129784773Y-60260196D01*
X129760505Y-60263796D01*
X129736001Y-60265000D01*
X128835999Y-60265000D01*
X128811495Y-60263796D01*
X128787227Y-60260196D01*
X128763428Y-60254235D01*
X128740329Y-60245970D01*
X128718150Y-60235480D01*
X128697107Y-60222868D01*
X128677401Y-60208253D01*
X128659223Y-60191777D01*
X128642747Y-60173599D01*
X128628132Y-60153893D01*
X128615520Y-60132850D01*
X128605030Y-60110671D01*
X128596765Y-60087572D01*
X128590804Y-60063773D01*
X128587204Y-60039505D01*
X128586000Y-60015001D01*
X128586000Y-59364999D01*
X128587204Y-59340495D01*
X128590804Y-59316227D01*
X128596765Y-59292428D01*
X128605030Y-59269329D01*
X128615520Y-59247150D01*
X128628132Y-59226107D01*
X128642747Y-59206401D01*
X128659223Y-59188223D01*
X128677401Y-59171747D01*
X128697107Y-59157132D01*
X128718150Y-59144520D01*
X128740329Y-59134030D01*
X128763428Y-59125765D01*
X128787227Y-59119804D01*
X128811495Y-59116204D01*
X128835999Y-59115000D01*
X129736001Y-59115000D01*
X129760505Y-59116204D01*
X129760505Y-59116204D01*
G37*
D11*
X129286000Y-59690000D03*
G04 #@! TD*
D10*
G04 #@! TO.C,R11*
G36*
X129760505Y-55306204D02*
X129784773Y-55309804D01*
X129808572Y-55315765D01*
X129831671Y-55324030D01*
X129853850Y-55334520D01*
X129874893Y-55347132D01*
X129894599Y-55361747D01*
X129912777Y-55378223D01*
X129929253Y-55396401D01*
X129943868Y-55416107D01*
X129956480Y-55437150D01*
X129966970Y-55459329D01*
X129975235Y-55482428D01*
X129981196Y-55506227D01*
X129984796Y-55530495D01*
X129986000Y-55554999D01*
X129986000Y-56205001D01*
X129984796Y-56229505D01*
X129981196Y-56253773D01*
X129975235Y-56277572D01*
X129966970Y-56300671D01*
X129956480Y-56322850D01*
X129943868Y-56343893D01*
X129929253Y-56363599D01*
X129912777Y-56381777D01*
X129894599Y-56398253D01*
X129874893Y-56412868D01*
X129853850Y-56425480D01*
X129831671Y-56435970D01*
X129808572Y-56444235D01*
X129784773Y-56450196D01*
X129760505Y-56453796D01*
X129736001Y-56455000D01*
X128835999Y-56455000D01*
X128811495Y-56453796D01*
X128787227Y-56450196D01*
X128763428Y-56444235D01*
X128740329Y-56435970D01*
X128718150Y-56425480D01*
X128697107Y-56412868D01*
X128677401Y-56398253D01*
X128659223Y-56381777D01*
X128642747Y-56363599D01*
X128628132Y-56343893D01*
X128615520Y-56322850D01*
X128605030Y-56300671D01*
X128596765Y-56277572D01*
X128590804Y-56253773D01*
X128587204Y-56229505D01*
X128586000Y-56205001D01*
X128586000Y-55554999D01*
X128587204Y-55530495D01*
X128590804Y-55506227D01*
X128596765Y-55482428D01*
X128605030Y-55459329D01*
X128615520Y-55437150D01*
X128628132Y-55416107D01*
X128642747Y-55396401D01*
X128659223Y-55378223D01*
X128677401Y-55361747D01*
X128697107Y-55347132D01*
X128718150Y-55334520D01*
X128740329Y-55324030D01*
X128763428Y-55315765D01*
X128787227Y-55309804D01*
X128811495Y-55306204D01*
X128835999Y-55305000D01*
X129736001Y-55305000D01*
X129760505Y-55306204D01*
X129760505Y-55306204D01*
G37*
D11*
X129286000Y-55880000D03*
D10*
G36*
X129760505Y-57356204D02*
X129784773Y-57359804D01*
X129808572Y-57365765D01*
X129831671Y-57374030D01*
X129853850Y-57384520D01*
X129874893Y-57397132D01*
X129894599Y-57411747D01*
X129912777Y-57428223D01*
X129929253Y-57446401D01*
X129943868Y-57466107D01*
X129956480Y-57487150D01*
X129966970Y-57509329D01*
X129975235Y-57532428D01*
X129981196Y-57556227D01*
X129984796Y-57580495D01*
X129986000Y-57604999D01*
X129986000Y-58255001D01*
X129984796Y-58279505D01*
X129981196Y-58303773D01*
X129975235Y-58327572D01*
X129966970Y-58350671D01*
X129956480Y-58372850D01*
X129943868Y-58393893D01*
X129929253Y-58413599D01*
X129912777Y-58431777D01*
X129894599Y-58448253D01*
X129874893Y-58462868D01*
X129853850Y-58475480D01*
X129831671Y-58485970D01*
X129808572Y-58494235D01*
X129784773Y-58500196D01*
X129760505Y-58503796D01*
X129736001Y-58505000D01*
X128835999Y-58505000D01*
X128811495Y-58503796D01*
X128787227Y-58500196D01*
X128763428Y-58494235D01*
X128740329Y-58485970D01*
X128718150Y-58475480D01*
X128697107Y-58462868D01*
X128677401Y-58448253D01*
X128659223Y-58431777D01*
X128642747Y-58413599D01*
X128628132Y-58393893D01*
X128615520Y-58372850D01*
X128605030Y-58350671D01*
X128596765Y-58327572D01*
X128590804Y-58303773D01*
X128587204Y-58279505D01*
X128586000Y-58255001D01*
X128586000Y-57604999D01*
X128587204Y-57580495D01*
X128590804Y-57556227D01*
X128596765Y-57532428D01*
X128605030Y-57509329D01*
X128615520Y-57487150D01*
X128628132Y-57466107D01*
X128642747Y-57446401D01*
X128659223Y-57428223D01*
X128677401Y-57411747D01*
X128697107Y-57397132D01*
X128718150Y-57384520D01*
X128740329Y-57374030D01*
X128763428Y-57365765D01*
X128787227Y-57359804D01*
X128811495Y-57356204D01*
X128835999Y-57355000D01*
X129736001Y-57355000D01*
X129760505Y-57356204D01*
X129760505Y-57356204D01*
G37*
D11*
X129286000Y-57930000D03*
G04 #@! TD*
D10*
G04 #@! TO.C,R10*
G36*
X129252505Y-51260204D02*
X129276773Y-51263804D01*
X129300572Y-51269765D01*
X129323671Y-51278030D01*
X129345850Y-51288520D01*
X129366893Y-51301132D01*
X129386599Y-51315747D01*
X129404777Y-51332223D01*
X129421253Y-51350401D01*
X129435868Y-51370107D01*
X129448480Y-51391150D01*
X129458970Y-51413329D01*
X129467235Y-51436428D01*
X129473196Y-51460227D01*
X129476796Y-51484495D01*
X129478000Y-51508999D01*
X129478000Y-52159001D01*
X129476796Y-52183505D01*
X129473196Y-52207773D01*
X129467235Y-52231572D01*
X129458970Y-52254671D01*
X129448480Y-52276850D01*
X129435868Y-52297893D01*
X129421253Y-52317599D01*
X129404777Y-52335777D01*
X129386599Y-52352253D01*
X129366893Y-52366868D01*
X129345850Y-52379480D01*
X129323671Y-52389970D01*
X129300572Y-52398235D01*
X129276773Y-52404196D01*
X129252505Y-52407796D01*
X129228001Y-52409000D01*
X128327999Y-52409000D01*
X128303495Y-52407796D01*
X128279227Y-52404196D01*
X128255428Y-52398235D01*
X128232329Y-52389970D01*
X128210150Y-52379480D01*
X128189107Y-52366868D01*
X128169401Y-52352253D01*
X128151223Y-52335777D01*
X128134747Y-52317599D01*
X128120132Y-52297893D01*
X128107520Y-52276850D01*
X128097030Y-52254671D01*
X128088765Y-52231572D01*
X128082804Y-52207773D01*
X128079204Y-52183505D01*
X128078000Y-52159001D01*
X128078000Y-51508999D01*
X128079204Y-51484495D01*
X128082804Y-51460227D01*
X128088765Y-51436428D01*
X128097030Y-51413329D01*
X128107520Y-51391150D01*
X128120132Y-51370107D01*
X128134747Y-51350401D01*
X128151223Y-51332223D01*
X128169401Y-51315747D01*
X128189107Y-51301132D01*
X128210150Y-51288520D01*
X128232329Y-51278030D01*
X128255428Y-51269765D01*
X128279227Y-51263804D01*
X128303495Y-51260204D01*
X128327999Y-51259000D01*
X129228001Y-51259000D01*
X129252505Y-51260204D01*
X129252505Y-51260204D01*
G37*
D11*
X128778000Y-51834000D03*
D10*
G36*
X129252505Y-49210204D02*
X129276773Y-49213804D01*
X129300572Y-49219765D01*
X129323671Y-49228030D01*
X129345850Y-49238520D01*
X129366893Y-49251132D01*
X129386599Y-49265747D01*
X129404777Y-49282223D01*
X129421253Y-49300401D01*
X129435868Y-49320107D01*
X129448480Y-49341150D01*
X129458970Y-49363329D01*
X129467235Y-49386428D01*
X129473196Y-49410227D01*
X129476796Y-49434495D01*
X129478000Y-49458999D01*
X129478000Y-50109001D01*
X129476796Y-50133505D01*
X129473196Y-50157773D01*
X129467235Y-50181572D01*
X129458970Y-50204671D01*
X129448480Y-50226850D01*
X129435868Y-50247893D01*
X129421253Y-50267599D01*
X129404777Y-50285777D01*
X129386599Y-50302253D01*
X129366893Y-50316868D01*
X129345850Y-50329480D01*
X129323671Y-50339970D01*
X129300572Y-50348235D01*
X129276773Y-50354196D01*
X129252505Y-50357796D01*
X129228001Y-50359000D01*
X128327999Y-50359000D01*
X128303495Y-50357796D01*
X128279227Y-50354196D01*
X128255428Y-50348235D01*
X128232329Y-50339970D01*
X128210150Y-50329480D01*
X128189107Y-50316868D01*
X128169401Y-50302253D01*
X128151223Y-50285777D01*
X128134747Y-50267599D01*
X128120132Y-50247893D01*
X128107520Y-50226850D01*
X128097030Y-50204671D01*
X128088765Y-50181572D01*
X128082804Y-50157773D01*
X128079204Y-50133505D01*
X128078000Y-50109001D01*
X128078000Y-49458999D01*
X128079204Y-49434495D01*
X128082804Y-49410227D01*
X128088765Y-49386428D01*
X128097030Y-49363329D01*
X128107520Y-49341150D01*
X128120132Y-49320107D01*
X128134747Y-49300401D01*
X128151223Y-49282223D01*
X128169401Y-49265747D01*
X128189107Y-49251132D01*
X128210150Y-49238520D01*
X128232329Y-49228030D01*
X128255428Y-49219765D01*
X128279227Y-49213804D01*
X128303495Y-49210204D01*
X128327999Y-49209000D01*
X129228001Y-49209000D01*
X129252505Y-49210204D01*
X129252505Y-49210204D01*
G37*
D11*
X128778000Y-49784000D03*
G04 #@! TD*
D10*
G04 #@! TO.C,R9*
G36*
X122269505Y-51117204D02*
X122293773Y-51120804D01*
X122317572Y-51126765D01*
X122340671Y-51135030D01*
X122362850Y-51145520D01*
X122383893Y-51158132D01*
X122403599Y-51172747D01*
X122421777Y-51189223D01*
X122438253Y-51207401D01*
X122452868Y-51227107D01*
X122465480Y-51248150D01*
X122475970Y-51270329D01*
X122484235Y-51293428D01*
X122490196Y-51317227D01*
X122493796Y-51341495D01*
X122495000Y-51365999D01*
X122495000Y-52266001D01*
X122493796Y-52290505D01*
X122490196Y-52314773D01*
X122484235Y-52338572D01*
X122475970Y-52361671D01*
X122465480Y-52383850D01*
X122452868Y-52404893D01*
X122438253Y-52424599D01*
X122421777Y-52442777D01*
X122403599Y-52459253D01*
X122383893Y-52473868D01*
X122362850Y-52486480D01*
X122340671Y-52496970D01*
X122317572Y-52505235D01*
X122293773Y-52511196D01*
X122269505Y-52514796D01*
X122245001Y-52516000D01*
X121594999Y-52516000D01*
X121570495Y-52514796D01*
X121546227Y-52511196D01*
X121522428Y-52505235D01*
X121499329Y-52496970D01*
X121477150Y-52486480D01*
X121456107Y-52473868D01*
X121436401Y-52459253D01*
X121418223Y-52442777D01*
X121401747Y-52424599D01*
X121387132Y-52404893D01*
X121374520Y-52383850D01*
X121364030Y-52361671D01*
X121355765Y-52338572D01*
X121349804Y-52314773D01*
X121346204Y-52290505D01*
X121345000Y-52266001D01*
X121345000Y-51365999D01*
X121346204Y-51341495D01*
X121349804Y-51317227D01*
X121355765Y-51293428D01*
X121364030Y-51270329D01*
X121374520Y-51248150D01*
X121387132Y-51227107D01*
X121401747Y-51207401D01*
X121418223Y-51189223D01*
X121436401Y-51172747D01*
X121456107Y-51158132D01*
X121477150Y-51145520D01*
X121499329Y-51135030D01*
X121522428Y-51126765D01*
X121546227Y-51120804D01*
X121570495Y-51117204D01*
X121594999Y-51116000D01*
X122245001Y-51116000D01*
X122269505Y-51117204D01*
X122269505Y-51117204D01*
G37*
D11*
X121920000Y-51816000D03*
D10*
G36*
X124319505Y-51117204D02*
X124343773Y-51120804D01*
X124367572Y-51126765D01*
X124390671Y-51135030D01*
X124412850Y-51145520D01*
X124433893Y-51158132D01*
X124453599Y-51172747D01*
X124471777Y-51189223D01*
X124488253Y-51207401D01*
X124502868Y-51227107D01*
X124515480Y-51248150D01*
X124525970Y-51270329D01*
X124534235Y-51293428D01*
X124540196Y-51317227D01*
X124543796Y-51341495D01*
X124545000Y-51365999D01*
X124545000Y-52266001D01*
X124543796Y-52290505D01*
X124540196Y-52314773D01*
X124534235Y-52338572D01*
X124525970Y-52361671D01*
X124515480Y-52383850D01*
X124502868Y-52404893D01*
X124488253Y-52424599D01*
X124471777Y-52442777D01*
X124453599Y-52459253D01*
X124433893Y-52473868D01*
X124412850Y-52486480D01*
X124390671Y-52496970D01*
X124367572Y-52505235D01*
X124343773Y-52511196D01*
X124319505Y-52514796D01*
X124295001Y-52516000D01*
X123644999Y-52516000D01*
X123620495Y-52514796D01*
X123596227Y-52511196D01*
X123572428Y-52505235D01*
X123549329Y-52496970D01*
X123527150Y-52486480D01*
X123506107Y-52473868D01*
X123486401Y-52459253D01*
X123468223Y-52442777D01*
X123451747Y-52424599D01*
X123437132Y-52404893D01*
X123424520Y-52383850D01*
X123414030Y-52361671D01*
X123405765Y-52338572D01*
X123399804Y-52314773D01*
X123396204Y-52290505D01*
X123395000Y-52266001D01*
X123395000Y-51365999D01*
X123396204Y-51341495D01*
X123399804Y-51317227D01*
X123405765Y-51293428D01*
X123414030Y-51270329D01*
X123424520Y-51248150D01*
X123437132Y-51227107D01*
X123451747Y-51207401D01*
X123468223Y-51189223D01*
X123486401Y-51172747D01*
X123506107Y-51158132D01*
X123527150Y-51145520D01*
X123549329Y-51135030D01*
X123572428Y-51126765D01*
X123596227Y-51120804D01*
X123620495Y-51117204D01*
X123644999Y-51116000D01*
X124295001Y-51116000D01*
X124319505Y-51117204D01*
X124319505Y-51117204D01*
G37*
D11*
X123970000Y-51816000D03*
G04 #@! TD*
D10*
G04 #@! TO.C,R7*
G36*
X66514505Y-71308204D02*
X66538773Y-71311804D01*
X66562572Y-71317765D01*
X66585671Y-71326030D01*
X66607850Y-71336520D01*
X66628893Y-71349132D01*
X66648599Y-71363747D01*
X66666777Y-71380223D01*
X66683253Y-71398401D01*
X66697868Y-71418107D01*
X66710480Y-71439150D01*
X66720970Y-71461329D01*
X66729235Y-71484428D01*
X66735196Y-71508227D01*
X66738796Y-71532495D01*
X66740000Y-71556999D01*
X66740000Y-72207001D01*
X66738796Y-72231505D01*
X66735196Y-72255773D01*
X66729235Y-72279572D01*
X66720970Y-72302671D01*
X66710480Y-72324850D01*
X66697868Y-72345893D01*
X66683253Y-72365599D01*
X66666777Y-72383777D01*
X66648599Y-72400253D01*
X66628893Y-72414868D01*
X66607850Y-72427480D01*
X66585671Y-72437970D01*
X66562572Y-72446235D01*
X66538773Y-72452196D01*
X66514505Y-72455796D01*
X66490001Y-72457000D01*
X65589999Y-72457000D01*
X65565495Y-72455796D01*
X65541227Y-72452196D01*
X65517428Y-72446235D01*
X65494329Y-72437970D01*
X65472150Y-72427480D01*
X65451107Y-72414868D01*
X65431401Y-72400253D01*
X65413223Y-72383777D01*
X65396747Y-72365599D01*
X65382132Y-72345893D01*
X65369520Y-72324850D01*
X65359030Y-72302671D01*
X65350765Y-72279572D01*
X65344804Y-72255773D01*
X65341204Y-72231505D01*
X65340000Y-72207001D01*
X65340000Y-71556999D01*
X65341204Y-71532495D01*
X65344804Y-71508227D01*
X65350765Y-71484428D01*
X65359030Y-71461329D01*
X65369520Y-71439150D01*
X65382132Y-71418107D01*
X65396747Y-71398401D01*
X65413223Y-71380223D01*
X65431401Y-71363747D01*
X65451107Y-71349132D01*
X65472150Y-71336520D01*
X65494329Y-71326030D01*
X65517428Y-71317765D01*
X65541227Y-71311804D01*
X65565495Y-71308204D01*
X65589999Y-71307000D01*
X66490001Y-71307000D01*
X66514505Y-71308204D01*
X66514505Y-71308204D01*
G37*
D11*
X66040000Y-71882000D03*
D10*
G36*
X66514505Y-73358204D02*
X66538773Y-73361804D01*
X66562572Y-73367765D01*
X66585671Y-73376030D01*
X66607850Y-73386520D01*
X66628893Y-73399132D01*
X66648599Y-73413747D01*
X66666777Y-73430223D01*
X66683253Y-73448401D01*
X66697868Y-73468107D01*
X66710480Y-73489150D01*
X66720970Y-73511329D01*
X66729235Y-73534428D01*
X66735196Y-73558227D01*
X66738796Y-73582495D01*
X66740000Y-73606999D01*
X66740000Y-74257001D01*
X66738796Y-74281505D01*
X66735196Y-74305773D01*
X66729235Y-74329572D01*
X66720970Y-74352671D01*
X66710480Y-74374850D01*
X66697868Y-74395893D01*
X66683253Y-74415599D01*
X66666777Y-74433777D01*
X66648599Y-74450253D01*
X66628893Y-74464868D01*
X66607850Y-74477480D01*
X66585671Y-74487970D01*
X66562572Y-74496235D01*
X66538773Y-74502196D01*
X66514505Y-74505796D01*
X66490001Y-74507000D01*
X65589999Y-74507000D01*
X65565495Y-74505796D01*
X65541227Y-74502196D01*
X65517428Y-74496235D01*
X65494329Y-74487970D01*
X65472150Y-74477480D01*
X65451107Y-74464868D01*
X65431401Y-74450253D01*
X65413223Y-74433777D01*
X65396747Y-74415599D01*
X65382132Y-74395893D01*
X65369520Y-74374850D01*
X65359030Y-74352671D01*
X65350765Y-74329572D01*
X65344804Y-74305773D01*
X65341204Y-74281505D01*
X65340000Y-74257001D01*
X65340000Y-73606999D01*
X65341204Y-73582495D01*
X65344804Y-73558227D01*
X65350765Y-73534428D01*
X65359030Y-73511329D01*
X65369520Y-73489150D01*
X65382132Y-73468107D01*
X65396747Y-73448401D01*
X65413223Y-73430223D01*
X65431401Y-73413747D01*
X65451107Y-73399132D01*
X65472150Y-73386520D01*
X65494329Y-73376030D01*
X65517428Y-73367765D01*
X65541227Y-73361804D01*
X65565495Y-73358204D01*
X65589999Y-73357000D01*
X66490001Y-73357000D01*
X66514505Y-73358204D01*
X66514505Y-73358204D01*
G37*
D11*
X66040000Y-73932000D03*
G04 #@! TD*
D10*
G04 #@! TO.C,R5*
G36*
X91914505Y-73358204D02*
X91938773Y-73361804D01*
X91962572Y-73367765D01*
X91985671Y-73376030D01*
X92007850Y-73386520D01*
X92028893Y-73399132D01*
X92048599Y-73413747D01*
X92066777Y-73430223D01*
X92083253Y-73448401D01*
X92097868Y-73468107D01*
X92110480Y-73489150D01*
X92120970Y-73511329D01*
X92129235Y-73534428D01*
X92135196Y-73558227D01*
X92138796Y-73582495D01*
X92140000Y-73606999D01*
X92140000Y-74257001D01*
X92138796Y-74281505D01*
X92135196Y-74305773D01*
X92129235Y-74329572D01*
X92120970Y-74352671D01*
X92110480Y-74374850D01*
X92097868Y-74395893D01*
X92083253Y-74415599D01*
X92066777Y-74433777D01*
X92048599Y-74450253D01*
X92028893Y-74464868D01*
X92007850Y-74477480D01*
X91985671Y-74487970D01*
X91962572Y-74496235D01*
X91938773Y-74502196D01*
X91914505Y-74505796D01*
X91890001Y-74507000D01*
X90989999Y-74507000D01*
X90965495Y-74505796D01*
X90941227Y-74502196D01*
X90917428Y-74496235D01*
X90894329Y-74487970D01*
X90872150Y-74477480D01*
X90851107Y-74464868D01*
X90831401Y-74450253D01*
X90813223Y-74433777D01*
X90796747Y-74415599D01*
X90782132Y-74395893D01*
X90769520Y-74374850D01*
X90759030Y-74352671D01*
X90750765Y-74329572D01*
X90744804Y-74305773D01*
X90741204Y-74281505D01*
X90740000Y-74257001D01*
X90740000Y-73606999D01*
X90741204Y-73582495D01*
X90744804Y-73558227D01*
X90750765Y-73534428D01*
X90759030Y-73511329D01*
X90769520Y-73489150D01*
X90782132Y-73468107D01*
X90796747Y-73448401D01*
X90813223Y-73430223D01*
X90831401Y-73413747D01*
X90851107Y-73399132D01*
X90872150Y-73386520D01*
X90894329Y-73376030D01*
X90917428Y-73367765D01*
X90941227Y-73361804D01*
X90965495Y-73358204D01*
X90989999Y-73357000D01*
X91890001Y-73357000D01*
X91914505Y-73358204D01*
X91914505Y-73358204D01*
G37*
D11*
X91440000Y-73932000D03*
D10*
G36*
X91914505Y-71308204D02*
X91938773Y-71311804D01*
X91962572Y-71317765D01*
X91985671Y-71326030D01*
X92007850Y-71336520D01*
X92028893Y-71349132D01*
X92048599Y-71363747D01*
X92066777Y-71380223D01*
X92083253Y-71398401D01*
X92097868Y-71418107D01*
X92110480Y-71439150D01*
X92120970Y-71461329D01*
X92129235Y-71484428D01*
X92135196Y-71508227D01*
X92138796Y-71532495D01*
X92140000Y-71556999D01*
X92140000Y-72207001D01*
X92138796Y-72231505D01*
X92135196Y-72255773D01*
X92129235Y-72279572D01*
X92120970Y-72302671D01*
X92110480Y-72324850D01*
X92097868Y-72345893D01*
X92083253Y-72365599D01*
X92066777Y-72383777D01*
X92048599Y-72400253D01*
X92028893Y-72414868D01*
X92007850Y-72427480D01*
X91985671Y-72437970D01*
X91962572Y-72446235D01*
X91938773Y-72452196D01*
X91914505Y-72455796D01*
X91890001Y-72457000D01*
X90989999Y-72457000D01*
X90965495Y-72455796D01*
X90941227Y-72452196D01*
X90917428Y-72446235D01*
X90894329Y-72437970D01*
X90872150Y-72427480D01*
X90851107Y-72414868D01*
X90831401Y-72400253D01*
X90813223Y-72383777D01*
X90796747Y-72365599D01*
X90782132Y-72345893D01*
X90769520Y-72324850D01*
X90759030Y-72302671D01*
X90750765Y-72279572D01*
X90744804Y-72255773D01*
X90741204Y-72231505D01*
X90740000Y-72207001D01*
X90740000Y-71556999D01*
X90741204Y-71532495D01*
X90744804Y-71508227D01*
X90750765Y-71484428D01*
X90759030Y-71461329D01*
X90769520Y-71439150D01*
X90782132Y-71418107D01*
X90796747Y-71398401D01*
X90813223Y-71380223D01*
X90831401Y-71363747D01*
X90851107Y-71349132D01*
X90872150Y-71336520D01*
X90894329Y-71326030D01*
X90917428Y-71317765D01*
X90941227Y-71311804D01*
X90965495Y-71308204D01*
X90989999Y-71307000D01*
X91890001Y-71307000D01*
X91914505Y-71308204D01*
X91914505Y-71308204D01*
G37*
D11*
X91440000Y-71882000D03*
G04 #@! TD*
D10*
G04 #@! TO.C,R4*
G36*
X104614505Y-71308204D02*
X104638773Y-71311804D01*
X104662572Y-71317765D01*
X104685671Y-71326030D01*
X104707850Y-71336520D01*
X104728893Y-71349132D01*
X104748599Y-71363747D01*
X104766777Y-71380223D01*
X104783253Y-71398401D01*
X104797868Y-71418107D01*
X104810480Y-71439150D01*
X104820970Y-71461329D01*
X104829235Y-71484428D01*
X104835196Y-71508227D01*
X104838796Y-71532495D01*
X104840000Y-71556999D01*
X104840000Y-72207001D01*
X104838796Y-72231505D01*
X104835196Y-72255773D01*
X104829235Y-72279572D01*
X104820970Y-72302671D01*
X104810480Y-72324850D01*
X104797868Y-72345893D01*
X104783253Y-72365599D01*
X104766777Y-72383777D01*
X104748599Y-72400253D01*
X104728893Y-72414868D01*
X104707850Y-72427480D01*
X104685671Y-72437970D01*
X104662572Y-72446235D01*
X104638773Y-72452196D01*
X104614505Y-72455796D01*
X104590001Y-72457000D01*
X103689999Y-72457000D01*
X103665495Y-72455796D01*
X103641227Y-72452196D01*
X103617428Y-72446235D01*
X103594329Y-72437970D01*
X103572150Y-72427480D01*
X103551107Y-72414868D01*
X103531401Y-72400253D01*
X103513223Y-72383777D01*
X103496747Y-72365599D01*
X103482132Y-72345893D01*
X103469520Y-72324850D01*
X103459030Y-72302671D01*
X103450765Y-72279572D01*
X103444804Y-72255773D01*
X103441204Y-72231505D01*
X103440000Y-72207001D01*
X103440000Y-71556999D01*
X103441204Y-71532495D01*
X103444804Y-71508227D01*
X103450765Y-71484428D01*
X103459030Y-71461329D01*
X103469520Y-71439150D01*
X103482132Y-71418107D01*
X103496747Y-71398401D01*
X103513223Y-71380223D01*
X103531401Y-71363747D01*
X103551107Y-71349132D01*
X103572150Y-71336520D01*
X103594329Y-71326030D01*
X103617428Y-71317765D01*
X103641227Y-71311804D01*
X103665495Y-71308204D01*
X103689999Y-71307000D01*
X104590001Y-71307000D01*
X104614505Y-71308204D01*
X104614505Y-71308204D01*
G37*
D11*
X104140000Y-71882000D03*
D10*
G36*
X104614505Y-73358204D02*
X104638773Y-73361804D01*
X104662572Y-73367765D01*
X104685671Y-73376030D01*
X104707850Y-73386520D01*
X104728893Y-73399132D01*
X104748599Y-73413747D01*
X104766777Y-73430223D01*
X104783253Y-73448401D01*
X104797868Y-73468107D01*
X104810480Y-73489150D01*
X104820970Y-73511329D01*
X104829235Y-73534428D01*
X104835196Y-73558227D01*
X104838796Y-73582495D01*
X104840000Y-73606999D01*
X104840000Y-74257001D01*
X104838796Y-74281505D01*
X104835196Y-74305773D01*
X104829235Y-74329572D01*
X104820970Y-74352671D01*
X104810480Y-74374850D01*
X104797868Y-74395893D01*
X104783253Y-74415599D01*
X104766777Y-74433777D01*
X104748599Y-74450253D01*
X104728893Y-74464868D01*
X104707850Y-74477480D01*
X104685671Y-74487970D01*
X104662572Y-74496235D01*
X104638773Y-74502196D01*
X104614505Y-74505796D01*
X104590001Y-74507000D01*
X103689999Y-74507000D01*
X103665495Y-74505796D01*
X103641227Y-74502196D01*
X103617428Y-74496235D01*
X103594329Y-74487970D01*
X103572150Y-74477480D01*
X103551107Y-74464868D01*
X103531401Y-74450253D01*
X103513223Y-74433777D01*
X103496747Y-74415599D01*
X103482132Y-74395893D01*
X103469520Y-74374850D01*
X103459030Y-74352671D01*
X103450765Y-74329572D01*
X103444804Y-74305773D01*
X103441204Y-74281505D01*
X103440000Y-74257001D01*
X103440000Y-73606999D01*
X103441204Y-73582495D01*
X103444804Y-73558227D01*
X103450765Y-73534428D01*
X103459030Y-73511329D01*
X103469520Y-73489150D01*
X103482132Y-73468107D01*
X103496747Y-73448401D01*
X103513223Y-73430223D01*
X103531401Y-73413747D01*
X103551107Y-73399132D01*
X103572150Y-73386520D01*
X103594329Y-73376030D01*
X103617428Y-73367765D01*
X103641227Y-73361804D01*
X103665495Y-73358204D01*
X103689999Y-73357000D01*
X104590001Y-73357000D01*
X104614505Y-73358204D01*
X104614505Y-73358204D01*
G37*
D11*
X104140000Y-73932000D03*
G04 #@! TD*
D10*
G04 #@! TO.C,R3*
G36*
X117314505Y-73358204D02*
X117338773Y-73361804D01*
X117362572Y-73367765D01*
X117385671Y-73376030D01*
X117407850Y-73386520D01*
X117428893Y-73399132D01*
X117448599Y-73413747D01*
X117466777Y-73430223D01*
X117483253Y-73448401D01*
X117497868Y-73468107D01*
X117510480Y-73489150D01*
X117520970Y-73511329D01*
X117529235Y-73534428D01*
X117535196Y-73558227D01*
X117538796Y-73582495D01*
X117540000Y-73606999D01*
X117540000Y-74257001D01*
X117538796Y-74281505D01*
X117535196Y-74305773D01*
X117529235Y-74329572D01*
X117520970Y-74352671D01*
X117510480Y-74374850D01*
X117497868Y-74395893D01*
X117483253Y-74415599D01*
X117466777Y-74433777D01*
X117448599Y-74450253D01*
X117428893Y-74464868D01*
X117407850Y-74477480D01*
X117385671Y-74487970D01*
X117362572Y-74496235D01*
X117338773Y-74502196D01*
X117314505Y-74505796D01*
X117290001Y-74507000D01*
X116389999Y-74507000D01*
X116365495Y-74505796D01*
X116341227Y-74502196D01*
X116317428Y-74496235D01*
X116294329Y-74487970D01*
X116272150Y-74477480D01*
X116251107Y-74464868D01*
X116231401Y-74450253D01*
X116213223Y-74433777D01*
X116196747Y-74415599D01*
X116182132Y-74395893D01*
X116169520Y-74374850D01*
X116159030Y-74352671D01*
X116150765Y-74329572D01*
X116144804Y-74305773D01*
X116141204Y-74281505D01*
X116140000Y-74257001D01*
X116140000Y-73606999D01*
X116141204Y-73582495D01*
X116144804Y-73558227D01*
X116150765Y-73534428D01*
X116159030Y-73511329D01*
X116169520Y-73489150D01*
X116182132Y-73468107D01*
X116196747Y-73448401D01*
X116213223Y-73430223D01*
X116231401Y-73413747D01*
X116251107Y-73399132D01*
X116272150Y-73386520D01*
X116294329Y-73376030D01*
X116317428Y-73367765D01*
X116341227Y-73361804D01*
X116365495Y-73358204D01*
X116389999Y-73357000D01*
X117290001Y-73357000D01*
X117314505Y-73358204D01*
X117314505Y-73358204D01*
G37*
D11*
X116840000Y-73932000D03*
D10*
G36*
X117314505Y-71308204D02*
X117338773Y-71311804D01*
X117362572Y-71317765D01*
X117385671Y-71326030D01*
X117407850Y-71336520D01*
X117428893Y-71349132D01*
X117448599Y-71363747D01*
X117466777Y-71380223D01*
X117483253Y-71398401D01*
X117497868Y-71418107D01*
X117510480Y-71439150D01*
X117520970Y-71461329D01*
X117529235Y-71484428D01*
X117535196Y-71508227D01*
X117538796Y-71532495D01*
X117540000Y-71556999D01*
X117540000Y-72207001D01*
X117538796Y-72231505D01*
X117535196Y-72255773D01*
X117529235Y-72279572D01*
X117520970Y-72302671D01*
X117510480Y-72324850D01*
X117497868Y-72345893D01*
X117483253Y-72365599D01*
X117466777Y-72383777D01*
X117448599Y-72400253D01*
X117428893Y-72414868D01*
X117407850Y-72427480D01*
X117385671Y-72437970D01*
X117362572Y-72446235D01*
X117338773Y-72452196D01*
X117314505Y-72455796D01*
X117290001Y-72457000D01*
X116389999Y-72457000D01*
X116365495Y-72455796D01*
X116341227Y-72452196D01*
X116317428Y-72446235D01*
X116294329Y-72437970D01*
X116272150Y-72427480D01*
X116251107Y-72414868D01*
X116231401Y-72400253D01*
X116213223Y-72383777D01*
X116196747Y-72365599D01*
X116182132Y-72345893D01*
X116169520Y-72324850D01*
X116159030Y-72302671D01*
X116150765Y-72279572D01*
X116144804Y-72255773D01*
X116141204Y-72231505D01*
X116140000Y-72207001D01*
X116140000Y-71556999D01*
X116141204Y-71532495D01*
X116144804Y-71508227D01*
X116150765Y-71484428D01*
X116159030Y-71461329D01*
X116169520Y-71439150D01*
X116182132Y-71418107D01*
X116196747Y-71398401D01*
X116213223Y-71380223D01*
X116231401Y-71363747D01*
X116251107Y-71349132D01*
X116272150Y-71336520D01*
X116294329Y-71326030D01*
X116317428Y-71317765D01*
X116341227Y-71311804D01*
X116365495Y-71308204D01*
X116389999Y-71307000D01*
X117290001Y-71307000D01*
X117314505Y-71308204D01*
X117314505Y-71308204D01*
G37*
D11*
X116840000Y-71882000D03*
G04 #@! TD*
D10*
G04 #@! TO.C,R2*
G36*
X130014505Y-71308204D02*
X130038773Y-71311804D01*
X130062572Y-71317765D01*
X130085671Y-71326030D01*
X130107850Y-71336520D01*
X130128893Y-71349132D01*
X130148599Y-71363747D01*
X130166777Y-71380223D01*
X130183253Y-71398401D01*
X130197868Y-71418107D01*
X130210480Y-71439150D01*
X130220970Y-71461329D01*
X130229235Y-71484428D01*
X130235196Y-71508227D01*
X130238796Y-71532495D01*
X130240000Y-71556999D01*
X130240000Y-72207001D01*
X130238796Y-72231505D01*
X130235196Y-72255773D01*
X130229235Y-72279572D01*
X130220970Y-72302671D01*
X130210480Y-72324850D01*
X130197868Y-72345893D01*
X130183253Y-72365599D01*
X130166777Y-72383777D01*
X130148599Y-72400253D01*
X130128893Y-72414868D01*
X130107850Y-72427480D01*
X130085671Y-72437970D01*
X130062572Y-72446235D01*
X130038773Y-72452196D01*
X130014505Y-72455796D01*
X129990001Y-72457000D01*
X129089999Y-72457000D01*
X129065495Y-72455796D01*
X129041227Y-72452196D01*
X129017428Y-72446235D01*
X128994329Y-72437970D01*
X128972150Y-72427480D01*
X128951107Y-72414868D01*
X128931401Y-72400253D01*
X128913223Y-72383777D01*
X128896747Y-72365599D01*
X128882132Y-72345893D01*
X128869520Y-72324850D01*
X128859030Y-72302671D01*
X128850765Y-72279572D01*
X128844804Y-72255773D01*
X128841204Y-72231505D01*
X128840000Y-72207001D01*
X128840000Y-71556999D01*
X128841204Y-71532495D01*
X128844804Y-71508227D01*
X128850765Y-71484428D01*
X128859030Y-71461329D01*
X128869520Y-71439150D01*
X128882132Y-71418107D01*
X128896747Y-71398401D01*
X128913223Y-71380223D01*
X128931401Y-71363747D01*
X128951107Y-71349132D01*
X128972150Y-71336520D01*
X128994329Y-71326030D01*
X129017428Y-71317765D01*
X129041227Y-71311804D01*
X129065495Y-71308204D01*
X129089999Y-71307000D01*
X129990001Y-71307000D01*
X130014505Y-71308204D01*
X130014505Y-71308204D01*
G37*
D11*
X129540000Y-71882000D03*
D10*
G36*
X130014505Y-73358204D02*
X130038773Y-73361804D01*
X130062572Y-73367765D01*
X130085671Y-73376030D01*
X130107850Y-73386520D01*
X130128893Y-73399132D01*
X130148599Y-73413747D01*
X130166777Y-73430223D01*
X130183253Y-73448401D01*
X130197868Y-73468107D01*
X130210480Y-73489150D01*
X130220970Y-73511329D01*
X130229235Y-73534428D01*
X130235196Y-73558227D01*
X130238796Y-73582495D01*
X130240000Y-73606999D01*
X130240000Y-74257001D01*
X130238796Y-74281505D01*
X130235196Y-74305773D01*
X130229235Y-74329572D01*
X130220970Y-74352671D01*
X130210480Y-74374850D01*
X130197868Y-74395893D01*
X130183253Y-74415599D01*
X130166777Y-74433777D01*
X130148599Y-74450253D01*
X130128893Y-74464868D01*
X130107850Y-74477480D01*
X130085671Y-74487970D01*
X130062572Y-74496235D01*
X130038773Y-74502196D01*
X130014505Y-74505796D01*
X129990001Y-74507000D01*
X129089999Y-74507000D01*
X129065495Y-74505796D01*
X129041227Y-74502196D01*
X129017428Y-74496235D01*
X128994329Y-74487970D01*
X128972150Y-74477480D01*
X128951107Y-74464868D01*
X128931401Y-74450253D01*
X128913223Y-74433777D01*
X128896747Y-74415599D01*
X128882132Y-74395893D01*
X128869520Y-74374850D01*
X128859030Y-74352671D01*
X128850765Y-74329572D01*
X128844804Y-74305773D01*
X128841204Y-74281505D01*
X128840000Y-74257001D01*
X128840000Y-73606999D01*
X128841204Y-73582495D01*
X128844804Y-73558227D01*
X128850765Y-73534428D01*
X128859030Y-73511329D01*
X128869520Y-73489150D01*
X128882132Y-73468107D01*
X128896747Y-73448401D01*
X128913223Y-73430223D01*
X128931401Y-73413747D01*
X128951107Y-73399132D01*
X128972150Y-73386520D01*
X128994329Y-73376030D01*
X129017428Y-73367765D01*
X129041227Y-73361804D01*
X129065495Y-73358204D01*
X129089999Y-73357000D01*
X129990001Y-73357000D01*
X130014505Y-73358204D01*
X130014505Y-73358204D01*
G37*
D11*
X129540000Y-73932000D03*
G04 #@! TD*
D10*
G04 #@! TO.C,R1*
G36*
X142714505Y-73358204D02*
X142738773Y-73361804D01*
X142762572Y-73367765D01*
X142785671Y-73376030D01*
X142807850Y-73386520D01*
X142828893Y-73399132D01*
X142848599Y-73413747D01*
X142866777Y-73430223D01*
X142883253Y-73448401D01*
X142897868Y-73468107D01*
X142910480Y-73489150D01*
X142920970Y-73511329D01*
X142929235Y-73534428D01*
X142935196Y-73558227D01*
X142938796Y-73582495D01*
X142940000Y-73606999D01*
X142940000Y-74257001D01*
X142938796Y-74281505D01*
X142935196Y-74305773D01*
X142929235Y-74329572D01*
X142920970Y-74352671D01*
X142910480Y-74374850D01*
X142897868Y-74395893D01*
X142883253Y-74415599D01*
X142866777Y-74433777D01*
X142848599Y-74450253D01*
X142828893Y-74464868D01*
X142807850Y-74477480D01*
X142785671Y-74487970D01*
X142762572Y-74496235D01*
X142738773Y-74502196D01*
X142714505Y-74505796D01*
X142690001Y-74507000D01*
X141789999Y-74507000D01*
X141765495Y-74505796D01*
X141741227Y-74502196D01*
X141717428Y-74496235D01*
X141694329Y-74487970D01*
X141672150Y-74477480D01*
X141651107Y-74464868D01*
X141631401Y-74450253D01*
X141613223Y-74433777D01*
X141596747Y-74415599D01*
X141582132Y-74395893D01*
X141569520Y-74374850D01*
X141559030Y-74352671D01*
X141550765Y-74329572D01*
X141544804Y-74305773D01*
X141541204Y-74281505D01*
X141540000Y-74257001D01*
X141540000Y-73606999D01*
X141541204Y-73582495D01*
X141544804Y-73558227D01*
X141550765Y-73534428D01*
X141559030Y-73511329D01*
X141569520Y-73489150D01*
X141582132Y-73468107D01*
X141596747Y-73448401D01*
X141613223Y-73430223D01*
X141631401Y-73413747D01*
X141651107Y-73399132D01*
X141672150Y-73386520D01*
X141694329Y-73376030D01*
X141717428Y-73367765D01*
X141741227Y-73361804D01*
X141765495Y-73358204D01*
X141789999Y-73357000D01*
X142690001Y-73357000D01*
X142714505Y-73358204D01*
X142714505Y-73358204D01*
G37*
D11*
X142240000Y-73932000D03*
D10*
G36*
X142714505Y-71308204D02*
X142738773Y-71311804D01*
X142762572Y-71317765D01*
X142785671Y-71326030D01*
X142807850Y-71336520D01*
X142828893Y-71349132D01*
X142848599Y-71363747D01*
X142866777Y-71380223D01*
X142883253Y-71398401D01*
X142897868Y-71418107D01*
X142910480Y-71439150D01*
X142920970Y-71461329D01*
X142929235Y-71484428D01*
X142935196Y-71508227D01*
X142938796Y-71532495D01*
X142940000Y-71556999D01*
X142940000Y-72207001D01*
X142938796Y-72231505D01*
X142935196Y-72255773D01*
X142929235Y-72279572D01*
X142920970Y-72302671D01*
X142910480Y-72324850D01*
X142897868Y-72345893D01*
X142883253Y-72365599D01*
X142866777Y-72383777D01*
X142848599Y-72400253D01*
X142828893Y-72414868D01*
X142807850Y-72427480D01*
X142785671Y-72437970D01*
X142762572Y-72446235D01*
X142738773Y-72452196D01*
X142714505Y-72455796D01*
X142690001Y-72457000D01*
X141789999Y-72457000D01*
X141765495Y-72455796D01*
X141741227Y-72452196D01*
X141717428Y-72446235D01*
X141694329Y-72437970D01*
X141672150Y-72427480D01*
X141651107Y-72414868D01*
X141631401Y-72400253D01*
X141613223Y-72383777D01*
X141596747Y-72365599D01*
X141582132Y-72345893D01*
X141569520Y-72324850D01*
X141559030Y-72302671D01*
X141550765Y-72279572D01*
X141544804Y-72255773D01*
X141541204Y-72231505D01*
X141540000Y-72207001D01*
X141540000Y-71556999D01*
X141541204Y-71532495D01*
X141544804Y-71508227D01*
X141550765Y-71484428D01*
X141559030Y-71461329D01*
X141569520Y-71439150D01*
X141582132Y-71418107D01*
X141596747Y-71398401D01*
X141613223Y-71380223D01*
X141631401Y-71363747D01*
X141651107Y-71349132D01*
X141672150Y-71336520D01*
X141694329Y-71326030D01*
X141717428Y-71317765D01*
X141741227Y-71311804D01*
X141765495Y-71308204D01*
X141789999Y-71307000D01*
X142690001Y-71307000D01*
X142714505Y-71308204D01*
X142714505Y-71308204D01*
G37*
D11*
X142240000Y-71882000D03*
G04 #@! TD*
D10*
G04 #@! TO.C,R8*
G36*
X53814505Y-71308204D02*
X53838773Y-71311804D01*
X53862572Y-71317765D01*
X53885671Y-71326030D01*
X53907850Y-71336520D01*
X53928893Y-71349132D01*
X53948599Y-71363747D01*
X53966777Y-71380223D01*
X53983253Y-71398401D01*
X53997868Y-71418107D01*
X54010480Y-71439150D01*
X54020970Y-71461329D01*
X54029235Y-71484428D01*
X54035196Y-71508227D01*
X54038796Y-71532495D01*
X54040000Y-71556999D01*
X54040000Y-72207001D01*
X54038796Y-72231505D01*
X54035196Y-72255773D01*
X54029235Y-72279572D01*
X54020970Y-72302671D01*
X54010480Y-72324850D01*
X53997868Y-72345893D01*
X53983253Y-72365599D01*
X53966777Y-72383777D01*
X53948599Y-72400253D01*
X53928893Y-72414868D01*
X53907850Y-72427480D01*
X53885671Y-72437970D01*
X53862572Y-72446235D01*
X53838773Y-72452196D01*
X53814505Y-72455796D01*
X53790001Y-72457000D01*
X52889999Y-72457000D01*
X52865495Y-72455796D01*
X52841227Y-72452196D01*
X52817428Y-72446235D01*
X52794329Y-72437970D01*
X52772150Y-72427480D01*
X52751107Y-72414868D01*
X52731401Y-72400253D01*
X52713223Y-72383777D01*
X52696747Y-72365599D01*
X52682132Y-72345893D01*
X52669520Y-72324850D01*
X52659030Y-72302671D01*
X52650765Y-72279572D01*
X52644804Y-72255773D01*
X52641204Y-72231505D01*
X52640000Y-72207001D01*
X52640000Y-71556999D01*
X52641204Y-71532495D01*
X52644804Y-71508227D01*
X52650765Y-71484428D01*
X52659030Y-71461329D01*
X52669520Y-71439150D01*
X52682132Y-71418107D01*
X52696747Y-71398401D01*
X52713223Y-71380223D01*
X52731401Y-71363747D01*
X52751107Y-71349132D01*
X52772150Y-71336520D01*
X52794329Y-71326030D01*
X52817428Y-71317765D01*
X52841227Y-71311804D01*
X52865495Y-71308204D01*
X52889999Y-71307000D01*
X53790001Y-71307000D01*
X53814505Y-71308204D01*
X53814505Y-71308204D01*
G37*
D11*
X53340000Y-71882000D03*
D10*
G36*
X53814505Y-73358204D02*
X53838773Y-73361804D01*
X53862572Y-73367765D01*
X53885671Y-73376030D01*
X53907850Y-73386520D01*
X53928893Y-73399132D01*
X53948599Y-73413747D01*
X53966777Y-73430223D01*
X53983253Y-73448401D01*
X53997868Y-73468107D01*
X54010480Y-73489150D01*
X54020970Y-73511329D01*
X54029235Y-73534428D01*
X54035196Y-73558227D01*
X54038796Y-73582495D01*
X54040000Y-73606999D01*
X54040000Y-74257001D01*
X54038796Y-74281505D01*
X54035196Y-74305773D01*
X54029235Y-74329572D01*
X54020970Y-74352671D01*
X54010480Y-74374850D01*
X53997868Y-74395893D01*
X53983253Y-74415599D01*
X53966777Y-74433777D01*
X53948599Y-74450253D01*
X53928893Y-74464868D01*
X53907850Y-74477480D01*
X53885671Y-74487970D01*
X53862572Y-74496235D01*
X53838773Y-74502196D01*
X53814505Y-74505796D01*
X53790001Y-74507000D01*
X52889999Y-74507000D01*
X52865495Y-74505796D01*
X52841227Y-74502196D01*
X52817428Y-74496235D01*
X52794329Y-74487970D01*
X52772150Y-74477480D01*
X52751107Y-74464868D01*
X52731401Y-74450253D01*
X52713223Y-74433777D01*
X52696747Y-74415599D01*
X52682132Y-74395893D01*
X52669520Y-74374850D01*
X52659030Y-74352671D01*
X52650765Y-74329572D01*
X52644804Y-74305773D01*
X52641204Y-74281505D01*
X52640000Y-74257001D01*
X52640000Y-73606999D01*
X52641204Y-73582495D01*
X52644804Y-73558227D01*
X52650765Y-73534428D01*
X52659030Y-73511329D01*
X52669520Y-73489150D01*
X52682132Y-73468107D01*
X52696747Y-73448401D01*
X52713223Y-73430223D01*
X52731401Y-73413747D01*
X52751107Y-73399132D01*
X52772150Y-73386520D01*
X52794329Y-73376030D01*
X52817428Y-73367765D01*
X52841227Y-73361804D01*
X52865495Y-73358204D01*
X52889999Y-73357000D01*
X53790001Y-73357000D01*
X53814505Y-73358204D01*
X53814505Y-73358204D01*
G37*
D11*
X53340000Y-73932000D03*
G04 #@! TD*
M02*
